<?xml version="1.0" encoding="utf-8"?>
<!-- Generator: Adobe Illustrator 16.0.0, SVG Export Plug-In . SVG Version: 6.00 Build 0)  -->
<!DOCTYPE svg PUBLIC "-//W3C//DTD SVG 1.1//EN" "http://www.w3.org/Graphics/SVG/1.1/DTD/svg11.dtd">
<svg version="1.1" id="Layer_1" xmlns="http://www.w3.org/2000/svg" xmlns:xlink="http://www.w3.org/1999/xlink" x="0px" y="0px"
	 width="177.167px" height="91.334px" viewBox="0 0 177.167 91.334" enable-background="new 0 0 177.167 91.334"
	 xml:space="preserve">
<g>
	<path fill="#508694" d="M141.5,8.5h-13l-7.5,21l-4.25-23H104l7.25,42.25L97,91.5h12.75v-6h16.5v5.75h13.5l-11.25-40L141.5,8.5z
		 M115.25,73l3.25-9.5L122,73H115.25z"/>
	<path fill="#508694" d="M95.75,4.5H82.5L66.25,44.75H64l3.75-11H53.5V29.5h8.75V18.25h-8.5V14H66V2.25L42.25,1.5l-4.75,29V-0.751
		h-12V15h-9.75V0H2.5L4,48L0,91.25h15v-13.5L22.5,91l10.25-13.25v13.5h13l-6.5-45h9v45.5h22.5l4-13.5h-15v-5.5h8v-12H60.5v-3.5
		h12.25l-1.5-8.5h3.25v9.75h9v33.251h11.75V58H105v-5.75l2.25-2.25L95.75,4.5z M25.75,46l-4,12L17.5,46.25v-17.5h8.25V46z
		 M84.584,29l3.25-9.5l3.5,9.5H84.584z"/>
	<polygon fill="#508694" points="144,10.25 156.25,16 157.25,26.25 165,20.25 177.25,26.25 156.25,44.25 154,49 154,76 168,76 
		164.5,92.25 141.5,92.25 141.5,59 137,56.5 144.5,39 	"/>
</g>
</svg>
