<?xml version="1.0" encoding="utf-8"?>
<!-- Generator: Adobe Illustrator 18.0.0, SVG Export Plug-In . SVG Version: 6.00 Build 0)  -->
<!DOCTYPE svg PUBLIC "-//W3C//DTD SVG 1.1//EN" "http://www.w3.org/Graphics/SVG/1.1/DTD/svg11.dtd">
<svg version="1.1" id="Layer_1" xmlns="http://www.w3.org/2000/svg" xmlns:xlink="http://www.w3.org/1999/xlink" x="0px" y="0px"
	 viewBox="0 0 373 554.8" enable-background="new 0 0 373 554.8" xml:space="preserve">
<path fill="#FFE313" d="M170.4,459.8c17.8,1,35.2,0,52.8,1.8c0.2,1.4,0.3,2.7,0.5,4c0.5,4.2,1,8.4,1.4,12.5c0.2,2.2,0.1,4.5,0.3,6.7
	c0.6,6.8,1.3,13.5,1.9,20.3c0.5,5.3,0.9,10.6,1.3,15.9c0.5,5.5,1.1,11.1,1.6,16.6c0.1,1,0.2,2,0,3c-0.2,0.7-0.9,1.5-1.5,1.7
	c-1,0.3-2.1,0.1-3.2,0.1c-6-0.1-11.9-0.2-17.9-0.2c-8.8-0.1-17.6-0.1-27-0.1c-0.4-1.8-1-3.6-1.2-5.5c-0.3-3.5-0.2-7-0.6-10.4
	c-0.6-5.6-1.3-11.3-2.1-16.9c-0.5-3.7-0.9-7.4-1.4-11c-0.9-6.1-2-12.2-2.9-18.3c-0.8-5.6-1.5-11.3-2.2-16.9
	C170.3,462.1,170.4,461.1,170.4,459.8z"/>
<path fill="#FFE313" d="M113.9,542.3c-3.2-0.1-6.1-0.2-8.9-0.3c-0.7,0-1.4-0.1-2.1-0.1c-9.4-0.1-18.8-0.2-28.2-0.4
	c-4.1-0.1-8.3-0.5-12.7-0.8c0-1-0.2-2.1-0.1-3.2c0.6-6.3,1.3-12.5,1.8-18.8c0.4-4.4,0.7-8.9,0.7-13.3c-0.1-11.8-0.5-23.6-0.5-35.4
	c0-3.5,0.7-7.1,1.1-10.9c4.2-0.1,8.4-0.1,12.6-0.3c7.9-0.4,15.7,0,23.5,0.7c1.5,0.1,3.1-0.1,4.7-0.1c2.6,0,2.8,0.2,2.9,3
	c0.2,4.8,0.3,9.7,0.6,14.5c0.5,7.9,0.9,15.8,1.9,23.7c1.6,12.7,2.7,25.3,2.9,38.1C114.1,539.8,114,540.8,113.9,542.3z"/>
<path fill="#FFE313" d="M171.5,542.4c-16,1.2-31.9-0.5-48.2,0.5c-0.2-1.8-0.5-3.2-0.6-4.6c-0.1-3.5-0.1-7-0.3-10.4
	c-0.4-5.8-1-11.6-1.5-17.4c-0.5-5.7-0.9-11.3-1.4-17c-0.6-6.8-1.3-13.5-1.8-20.3c-0.3-4.2-0.2-8.4-0.3-12.8
	c14.7,0,29.2-0.1,43.6-0.1C165.7,487.4,169.3,514.6,171.5,542.4z"/>
<path fill="#FFE313" d="M239.3,542.2c-0.4-3.7-0.8-6.9-1-10c-0.5-6-0.9-12.1-1.4-18.1c-0.7-7.5-1.6-15-2.4-22.5
	c-0.2-2.1-0.1-4.2-0.4-6.3c-0.7-6.1-1.6-12.2-2.4-18.4c-0.2-1.5-0.1-2.9-0.1-4.7c14.6,1.2,28.8,2.4,43.6,3.6c0.1,1.9,0.2,3.9,0.3,6
	c0.3,6.6,0.6,13.1,0.9,19.7c0.4,7.6,1,15.1,1.3,22.7c0.3,7.1,1.3,14,2.5,20.9c0.3,1.9,0.1,3.9,0.2,6.1
	C266.8,542.7,253.2,541.7,239.3,542.2z"/>
<path fill="#FFE313" d="M284.6,466.4c1.9,0,3.3-0.3,4.7-0.1c10,1.2,20,0.3,30.1,0.2c3.9,0,4.2,0.2,4.9,4.2c0.9,4.7,1.6,9.5,1.2,14.3
	c-0.1,1.9,0.4,3.9,0.5,5.9c0.5,10.2,1.2,20.3,1.4,30.5c0.1,6.4-0.5,12.8-0.9,19.7c-12.4,0-24.6,1.2-37-0.2
	c-0.6-5.5-1.4-10.8-1.9-16.2c-0.6-7.6-1.1-15.3-1.6-23c-0.6-9.8-1.3-19.5-1.9-29.3C284.1,470.6,284.4,468.7,284.6,466.4z"/>
<path d="M24.9,32.9c1.6-0.9,3.5-1.4,4.5-2.7c3.3-4.1,8.1-2.6,12.2-3.4c4.9-1,9.9-1.4,14.8-2.1c1.8-0.2,3.5-0.7,5.3-0.9
	c6.9-0.6,13.7-1.5,20.6-1.7c9.9-0.3,19.8-0.2,29.7-0.3c0.7,0,1.4,0,2.2,0c7,0.1,14.1,0.2,21.1,0.3c2.7,0,5.5-0.2,8.2-0.2
	c20.6-0.4,41.1-1,61.7-1.2c10.2-0.1,20.4,0.8,30.7,1c2.9,0.1,5.9-0.6,8.9-0.7c3.2-0.2,6.4-0.2,9.7-0.2c3.6,0,7.1,0.3,10.7,0.3
	c5.9,0,11.7-0.2,17.6-0.1c7.9,0.1,15.7,0.5,23.6,0.5c5.4,0,10.7-0.6,16.1-0.8c3.8-0.1,5.1,0.9,6.4,4.6c0.1,0.3,0.2,0.8,0.4,0.9
	c3.1,1.6,2.6,4.5,2.6,7.2c0.1,4.3,0.4,8.6,0.3,12.9c-0.2,6.8-0.7,13.5-1.1,20.3c-0.1,1,0,1.9,0,2.9c0.4,16.4,0.7,32.7,1.2,49.1
	c0.3,8.1,1.1,16.2,1.5,24.2c0.3,6.9,0.3,13.8,0.6,20.8c0.1,3.3,0.8,6.6,0.9,9.9c0.2,12,0.1,24.1,0.2,36.1c0,1.9,0.5,3.8,0.7,5.6
	c0.3,2.2,0.6,4.5,0.8,6.7c0.4,4.4,0.8,8.8,1,13.1c0.2,4-0.3,4.6-4.3,5.6c-0.8,0.2-1.6,0.3-2.4,0.4c-6.1,0.8-12.2,1.7-18.4,2.5
	c-0.5,0.1-0.9,0.1-1.4,0.1c-6.6,0.9-13.2,1.8-19.8,2.6c-5.1,0.6-10.2,0.9-15.3,1.4c-3.3,0.3-6.6,0.9-9.9,1.3
	c-5.6,0.7-11.1,1.3-16.7,2c-4.7,0.6-9.4,1.2-14.1,1.9c-4.5,0.6-8.9,1.2-13.4,1.9c-6.3,1-12.7,2.1-19,3c-2.9,0.4-5.9,0.7-8.9,1
	c-5.1,0.5-10.2,1-15.3,1.4c-5.1,0.4-10.2,0.7-15.3,0.8c-4.6,0.1-9.3-0.2-14-0.1c-9.1,0.3-18.2,0.5-27.2,1.4
	c-13.4,1.4-26.9,1.7-40.4,2.1c-7.8,0.2-15.5,0.5-23.3,0.8c-3.3,0.1-6.6,0.3-9.9,0.2c-2-0.1-4-0.5-6-0.9c-1.4-0.3-2.2-1.2-2.2-2.8
	c0-2.3,0.1-4.5-0.1-6.8c-0.6-6.9-1.3-13.7-1.8-20.6c-0.5-6.2-0.9-12.4-1.3-18.5c-0.5-7-1.1-14-1.7-21c-1-11.8-1.7-23.5-1.8-35.4
	c-0.1-9.3-0.4-18.6-0.7-28c-0.2-6.9-0.5-13.8-1-20.7c-0.8-10.2-1.9-20.4-2.8-30.6c-0.3-4-0.2-8.1-0.6-12.2
	c-0.7-8.4-1.6-16.8-2.5-25.2C25.9,39.6,25.4,36.4,24.9,32.9z M327.3,201c-0.8-7.9,0.9-15.8-0.5-23.5c-3.5,0.1-6.6,0-9.7,0.3
	c-8.1,0.6-16.1,1.4-24.2,2c-4.2,0.3-8.4,0.2-12.5,0.5c-9.5,0.8-18.9,1.7-28.4,2.5c-6.4,0.5-12.8,0.9-19.2,1.4
	c-6.2,0.5-12.3,1.1-18.5,1.6c-10.1,0.9-20.1,2-30.2,2.9c-5.2,0.5-10.5,0.8-15.7,1.1c-15.9,0.8-31.7,1.3-47.6,0.7
	c-11-0.4-22-0.4-32.9-0.2c-7,0.1-14,0.9-21,1.4c-4.4,0.3-8.8,0.6-13.2,1c-3.1,0.3-6.1,0.8-9.5,1.3c0,1.5,0,2.8,0.1,4
	c0.4,4.9,0.8,9.7,1.2,14.6c0.2,2.7,0.6,3,3.3,2.9c5.3-0.1,10.7-0.2,16.1-0.1c6.2,0.1,12.4,0.7,18.6,0.6c7.9-0.1,15.7-0.6,23.6-1
	c6.8-0.3,13.6-1,20.4-1.1c9.8-0.2,19.4-1.8,29.1-2.8c10.8-1.2,21.6-1.6,32.5-2.3c3-0.2,6,0.3,8.9,0.2c11.9-0.4,23.9-0.8,35.8-1.3
	c6.8-0.3,13.6-0.9,20.3-1.4c2.6-0.2,5.3,0.1,7.9-0.3c6.9-1.3,13.9-2,20.9-2.3c8.1-0.4,16.2-0.3,24.3-1.4
	C313.5,201.6,320,201.5,327.3,201z M43.1,187c3.7-0.5,6.6-0.8,9.5-1.2c7.8-0.9,15.7-0.2,23.5-1.4c4.9-0.8,9.9-0.5,14.9-0.5
	c12.2,0,24.3,0.2,36.5,0.1c10.5-0.1,21-0.4,31.5-0.8c7.4-0.3,14.7-0.9,22.1-1.5c6.3-0.5,12.5-1.2,18.8-1.8c1.8-0.2,3.6-0.2,5.3-0.4
	c6.4-0.7,12.7-1.5,19.1-2.1c6.8-0.6,13.6-0.9,20.3-1.4c8.2-0.6,16.4-1.3,24.5-1.9c4.8-0.3,9.6-0.3,14.3-0.7
	c7.7-0.7,15.4-1.7,23.1-2.3c5.9-0.5,11.9-0.5,17.9-0.7c0.8,0,1.5-0.2,2.4-0.3c-1.3-6-0.1-12.1-1.3-17.6c-3.2-0.1-5.9-0.2-8.6-0.2
	c-2.3,0-4.5-0.1-6.8,0.1c-6.6,0.5-13.3,1.1-19.9,1.6c-4.9,0.4-9.7,0.8-14.6,1c-4.8,0.3-9.5,0.5-14.3,0.6c-1.8,0-3.6-0.4-5.3-0.4
	c-3,0.1-5.9,0.6-8.9,0.7c-9.9,0.4-19.8,0.8-29.7,1.2c-0.6,0-1.2,0.1-1.8,0.1c-6.1,0.8-12.2,1.6-18.4,2.5c-4.9,0.7-9.9,1.4-14.8,2.1
	c-3.8,0.5-7.5,1.4-11.3,1.6c-14,0.6-27.9,1.1-41.9,1.5c-4.2,0.1-8.3-0.2-12.5-0.1c-10,0.1-20.1,0.3-30.1,0.5
	c-7.1,0.2-14.3,0.4-21.4,1.4c-5.9,0.8-11.9,0.8-17.8,1.2c-1.5,0.1-3,0.1-4.9,0.1C42.8,174.3,42.9,180.3,43.1,187z M324,109.4
	c-2.2-0.1-4.1-0.2-6-0.3c-4.3-0.2-8.6-0.5-12.8-0.4c-3.8,0.1-7.6,0.8-11.4,0.9c-13.9,0.4-27.9,0.7-41.8,2.1
	c-5.7,0.6-11.4,0.1-17.2,0c-8.1,0-16.2-0.2-24.3-0.1c-7.6,0.1-15.3,0.3-22.9,0.6c-5.5,0.2-10.9,0.6-16.4,1c-9.5,0.7-19,1.8-28.5,2.1
	c-12.6,0.4-25.3-0.1-37.9,0.1c-12.5,0.2-25,0.6-37.5,1.7c-8.9,0.7-17.5,2.6-26,4.5c0.1,5.1,0.2,9.9,0.4,14.9
	c3.8,0.1,7.3,0.3,10.7,0.2c3.2-0.1,6.4-0.6,9.6-0.7c10.3-0.3,20.5-0.3,30.8-0.8c16.3-0.8,32.7-0.6,49-1.9c12.3-1,24.8-0.9,37.1-2.1
	c11.1-1.2,22.3-1.7,33.5-2.3c9.9-0.5,19.8-0.4,29.7-0.8c16.9-0.6,33.9-1.3,50.8-2c0.2,0,0.5-0.1,0.7-0.1c5.7-0.3,11.4-1,17.1-0.8
	c4.7,0.2,9-1.4,13.5-1.4C324.2,118.8,324.1,114.1,324,109.4z M38.6,89c1.8,0,3.4,0,5-0.1c10.2-0.5,20.5-1,30.7-1.5
	c2.9-0.1,5.7,0.1,8.6,0c9.5-0.4,19.1-1,28.6-1.3c4.8-0.2,9.5,0.2,14.3,0.1c4.6-0.1,9.3-0.6,13.9-0.8c5.1-0.2,10.2-0.3,15.3-0.4
	c2.5,0,5,0.3,7.5,0.2c4.3-0.1,8.6-0.6,12.8-0.7c13.6-0.3,27.1-1.3,40.7-2.6c7.4-0.7,14.9-0.8,22.4-1.1c0.7,0,1.4,0,2.1,0
	c8.7-0.1,17.4,0,26.1-0.3c8-0.3,15.9-1.2,23.9-1.6c5.8-0.3,11.7-0.4,17.6-0.4c5,0,10-1.1,15.1,1c-0.1-3-0.1-5.6-0.2-8.2
	c-0.1-2.6-0.1-5.2-0.2-8.1c-1.5,0-2.8,0-4.1,0.1c-4.5,0.2-9,0.6-13.5,0.5c-7.1-0.1-14.3-0.9-21.4-0.7c-20.4,0.4-40.9,1.1-61.3,1.6
	c-1.9,0.1-3.8-0.1-5.7,0.1c-6.5,0.5-13,1.1-19.6,1.8c-6.5,0.6-13,1.3-19.5,1.9c-9.6,0.8-19.2,1.5-28.9,2.1
	c-7.3,0.4-14.5-0.3-21.8-0.5c-15.7-0.4-31.5-0.1-47.2,0c-5.1,0-10.2,0.2-15.3,0.4c-5.1,0.2-10.2,0.3-15.3,0.7c-4,0.3-8,1.1-12.1,1.7
	C36.8,78,37.3,83.2,38.6,89z M323.4,86.1c-3.9-0.2-7.4-0.7-11-0.6c-8,0.2-16,0.6-24,1C278,87,267.5,87.7,257,88
	c-6.9,0.2-13.8-0.1-20.7,0.1c-5.4,0.1-10.7,0.5-16.1,0.8c-7.4,0.5-14.8,1-22.1,1.5c-8.8,0.6-17.6,1.3-26.4,1.8
	c-3.6,0.2-7.1-0.2-10.7-0.2c-8.1,0.1-16.3,0.2-24.4,0.3c-9.2,0.2-18.4,0.3-27.6,0.7c-7.2,0.3-14.3,0.9-21.4,1.2
	c-16.2,0.6-32.4,1-49,1.5c0.7,6.2,1.3,11.9,1.9,17.9c1.6-0.2,2.9-0.4,4.2-0.5c4.8-0.7,9.6-1.6,14.5-2.1c6.5-0.6,13.1-1,19.6-1.3
	c10.5-0.4,21-0.7,31.5-0.9c11.4-0.3,22.9-0.2,34.3-0.7c9-0.4,18.1-1.3,27.1-2c3.7-0.3,7.3-0.9,11-0.9c11.1,0,22.1-1.1,33.3-0.2
	c5.8,0.5,11.7-0.2,17.6-0.3c6.2-0.1,12.4,0.2,18.6-0.1c9.3-0.4,18.6-1.4,27.8-1.7c12.2-0.5,24.4-0.7,36.5-1c2.3-0.1,4.7-0.1,7.3-0.2
	C323.7,96.3,323.6,91.5,323.4,86.1z M325.8,145.2c-0.2-4.6,0.3-9-0.7-13.4c-5.4,0.1-10.2,0.2-15.1,0.4c-5,0.2-10,0.7-14.9,1
	c-6.4,0.4-12.9,0.7-19.3,1c-23.4,1-46.8,0.3-70.2,2.4c-5.6,0.5-11.2,0.3-16.7,0.9c-13.9,1.5-27.8,2.2-41.7,2.7
	c-3.3,0.1-6.7,0.4-10,0.5c-23.4,0.8-46.8,1.6-70.2,2.4c-7.8,0.3-15.5,0.7-23.2,1.1c-0.6,0-1.1,0.3-1.7,0.4
	c0.1,5.4,0.3,10.5,0.4,15.8c1.3,0.2,2.3,0.4,3.3,0.4c3.9-0.1,7.9-0.1,11.8-0.4c10-0.8,19.9-1.7,29.9-1.6c6.7,0.1,13.4,0,20.1-0.2
	c18.6-0.6,37.2-1.6,55.9-1.9c8-0.1,15.8-1.7,23.8-2.5c7.8-0.7,15.5-2.3,23.3-3.2c6.7-0.8,13.5-1.4,20.3-1.7
	c9.3-0.5,18.6-0.8,27.9-0.9c9.1-0.1,18.1-0.3,27.1-1.3c9-1,18.1-1.4,27.1-1.9C317,144.9,321.1,145.2,325.8,145.2z M324.1,41.4
	c-1.7,0-2.9,0-4.1,0.1c-8.2,0.4-16.4,1-24.7,1.3c-9.4,0.3-18.9,0.2-28.3,0.5c-7.3,0.2-14.5,0.8-21.8,1.1c-5.2,0.2-10.5,0-15.7,0.1
	c-12.4,0.2-24.9,0.4-37.3,0.7c-11.1,0.3-22.2,0.7-33.3,1c-1.3,0-2.6,0-3.9-0.1c-8.9-0.6-17.8-1.6-26.7-0.9c-0.6,0-1.2-0.1-1.8-0.1
	c-4-0.1-8.1-0.5-12.1-0.2c-7.5,0.5-15,1-22.4,2c-9.1,1.3-18.3,1-27.3,2.5c-6.1,1-12.4,0.6-18.6,0.9c-3.7,0.2-7.3,0.7-10.7,1.7
	c-0.2,5,0.6,10.6,2,13.3c1.4-0.1,3-0.2,4.5-0.3c2-0.2,4-0.6,6-0.6c4.4-0.2,8.8-0.2,13.2-0.4c2.7-0.1,5.5-0.6,8.2-0.6
	c12.4-0.2,24.7-0.7,37.2,0.1c9.7,0.6,19.5-0.2,29.3,0.2c9,0.4,18.1-0.6,27.2-1.2c8.2-0.5,16.3-1.4,24.5-2.1
	c8.1-0.7,16.1-1.7,24.2-2.1c12.8-0.7,25.5-1,38.3-1.4c12.5-0.4,25.1-0.6,37.6-0.9c0.8,0,1.7-0.1,2.5,0c8.8,1.1,17.6,0.9,26.4,0.5
	c2.3-0.1,4.7-0.5,7.3-0.7C323.9,50.9,324,46.4,324.1,41.4z M327,208.5c-1.8,0-3.5,0-5.3,0.1c-9.6,0.7-19.2,1.7-28.9,2.2
	c-8.2,0.5-16.4,0.6-24.6,1.7c-6.8,0.9-13.7,1.2-20.6,1.9c-8.3,0.9-16.7,1.1-25,1.4c-9.6,0.4-19.3,0.5-28.9,0.7
	c-1.2,0-2.4-0.2-3.6-0.2c-1.9-0.1-3.8-0.3-5.7-0.2c-3,0.2-5.9,0.6-8.9,0.8c-2.5,0.2-5,0.1-7.5,0.4c-6.5,0.7-12.9,1.8-19.4,2.4
	c-9.6,0.9-19.2,1.6-28.9,2.1c-7.2,0.4-14.3,0.7-21.5,0.8c-12.2,0.2-24.3,0.2-36.5,0.2c-1.8,0-3.6-0.4-5.3-0.4
	c-3.3,0-6.6,0.1-10.3,0.2c0,1.6,0,2.9,0.1,4.1c0.3,3.4,0.8,6.8,1.2,10.3c0.1,0.8,0.3,1.5,0.5,2.5c6-0.7,11.8-1.5,17.6-1.9
	c7.9-0.5,15.7-0.8,23.6-0.9c5.5-0.1,10.9,0.7,16.4,0.6c11-0.2,21.9-0.2,32.9-1.8c7.2-1,14.5-1.1,21.7-1.6c8.6-0.6,17.1-1.2,25.7-1.8
	c7.9-0.5,15.7-0.9,23.6-1.6c8.2-0.7,16.3-1.9,24.5-2.6c9.8-0.8,19.7-1.4,29.6-1.9c8-0.4,16-0.5,24-0.9c4.1-0.2,8.3-0.7,12.4-1.1
	c2.2-0.2,4.5-0.6,6.7-0.9c5.5-0.7,11.1-1.5,16.6-2.1c1.8-0.2,3.7-0.1,5.5-0.2C328.1,216.7,327.6,212.7,327,208.5z M49.1,258.7
	c1.9,0.1,3.4,0.3,4.9,0.3c7.2-0.2,14.3-0.5,21.5-0.7c11-0.3,22-0.6,33-0.8c0.5,0,1,0,1.4-0.1c7-0.8,13.9-2,20.9-2.3
	c12.5-0.5,25.1-0.4,37.6-0.5c1.6,0,3.1,0,4.7-0.2c5.9-0.6,11.8-1.2,17.7-1.8c5.8-0.6,11.6-1.2,17.4-2c9.9-1.4,19.7-3.2,29.6-4.6
	c10.1-1.4,20.3-2.7,30.4-3.8c4.3-0.5,8.6-0.5,12.8-1c7.3-0.9,14.6-2.2,21.9-3.2c8-1.1,16.1-2,24.1-2.9c0.7-0.1,1.4-0.3,2.5-0.5
	c-0.2-2-0.3-4-0.5-6.1c-3.1-0.1-5.9-0.5-8.6-0.2c-4,0.4-8,1.4-12,1.9c-7.1,0.8-14.2,1.5-21.3,2.1c-3.1,0.3-6.1,0.1-9.2,0.3
	c-9.9,0.7-19.7,1.5-29.6,2.1c-7.7,0.4-15.5,0.4-23.2,1.5c-7.4,1-14.9,1.4-22.4,1.9c-10.6,0.8-21.2,1.4-31.8,2.1
	c-6.2,0.4-12.4,0.9-18.6,1.3c-1.5,0.1-3.1,0.1-4.6,0.3c-9.5,1.3-18.9,2.4-28.5,2.6c-5.1,0.1-10.3,0.3-15.4,0.3
	c-6.2-0.1-12.4-0.7-18.6-0.6c-6.9,0.1-13.8,0.3-20.7,1c-5.4,0.5-10.7,1.7-15.7,2.6C48.9,251.3,49,254.8,49.1,258.7z M323.4,28.5
	c-1.4,0-2.4-0.1-3.3-0.1c-12.8,0.1-25.5,0.1-38.3,0.2c-0.4,0-0.7,0-1.1,0c-7.5-0.2-15-0.5-22.5-0.6c-10.6-0.1-21.2,0-31.9,0
	c-13.7,0.1-27.5,0.1-41.2,0.3c-9.7,0.1-19.4,0.3-29,0.4c-0.8,0-1.7-0.1-2.5-0.1c-3.1,0.1-6.2,0.1-9.2,0.3c-2,0.1-4,0.5-6.1,0.4
	c-6.7-0.1-13.3-0.3-20-0.4c-1.2,0-2.4,0.1-3.6,0c-5.7-0.2-11.4-0.9-17.1-0.6c-8.9,0.3-17.8,1.4-26.7,1.8c-4.5,0.2-9,0.9-13.4,1.7
	c-2.1,0.4-4.2,0.8-6.3,1.1c-6,0.7-12,1.3-18.3,2c0.5,3.2,1,6.4,1.4,9.4c7.4-0.2,14.3-0.4,21.2-0.7c2.6-0.1,5.2-0.3,7.9-0.5
	c3.6-0.4,7.3-1,10.9-1.3c7.6-0.6,15.2-1,22.8-1.6c0.5,0,0.9-0.2,1.4-0.2c6.8-0.5,13.5-1.2,20.3-1.5c4.8-0.2,9.5,0.2,14.3,0.2
	c2,0,4.1-0.7,6-0.5c10.3,1.2,20.7,1.4,31,1.2c4-0.1,8-0.8,12.1-0.9c5.6-0.2,11.2,0.1,16.8,0c3.1-0.1,6.2-0.6,9.3-0.6
	c3.9,0,7.8,0.4,11.7,0.4c5.1,0,10.3-0.1,15.4-0.4c7.3-0.3,14.5-0.1,21.8-1.1c5-0.7,10.2,0,15.4-0.1c3.3-0.1,6.6-0.5,9.9-0.7
	c12.2-0.4,24.4-0.7,36.5-1.2c1.6-0.1,3.2-0.5,5-0.7C323.8,32.1,323.6,30.5,323.4,28.5z"/>
<path d="M51.9,541.7c2.5-8.8,2.5-17.3,3.5-25.6c1-8.2,0.2-16.3,0.3-24.5c0.1-8.2,0.1-16.4,0.2-24.6c0-1.8,0.4-3.7,0.6-5.5
	c0.1-0.6,0.5-1.3,0.3-1.8c-1.3-3.6,0.8-5.9,2.7-8.7c3.3,0.1,6.8,0.3,10.2,0.4c2,0.1,4.1,0.1,6.1,0.1c8.1,0.1,16.2,0,24.3,0.2
	c6.1,0.1,12.2,0.3,18.2,0.8c12.9,1.2,25.8,0.1,38.7,0c7.7-0.1,15.5-0.7,23.2,0.1c4,0.4,8.1,0.2,12.1,0.3c7.9,0.1,15.8,0.1,23.6,0.5
	c5.7,0.2,11.4,0.9,17.1,1.4c0.6,0.1,1.2,0,1.8,0.1c5.6,0.5,11.1,1.1,16.7,1.6c1.5,0.1,3.1,0.1,4.6,0.2c6.5,0.3,13.1,0.7,19.6,1
	c9,0.4,18.1,0.9,27.1,1c6.6,0.1,13.3-0.3,19.9-0.4c5-0.1,5.9,0.5,7.8,5.2c1.5,3.7,2.4,7.5,2.4,11.5c0.1,5.8,0.2,11.6,1.5,17.3
	c0.1,0.5,0.1,1,0.1,1.5c0.2,9.8,0.6,19.6,0.7,29.4c0,5.4-0.4,10.9-0.6,16.7c4.9,0.6,9.8-0.6,14.8-0.4c1-3,0.7-5.9,0.6-8.7
	c-0.6-11.4-0.6-22.8,0.4-34.1c0.1-1.2,0-2.5,0-3.7c0-13.7-0.1-27.3,0-41c0.1-7.2,0.4-14.4,0.9-21.5c0.8-10.8,1.3-21.5,1.4-32.3
	c0-6,0.8-12.1,1.3-18.1c0.1-0.7,0-1.5,0-2.2c0-8,0.4-16,1.5-24c0.3-1.8,0-3.7,0.1-5.6c0.3-6.4,0.5-12.9,0.9-19.3
	c0.5-8.6,0.7-17.3,1.6-25.9c1.4-13.4,1-26.8,0.6-40.2c0-1.7-0.4-3.4-0.6-5.2c-0.1-2.1-0.5-4.2-0.2-6.3c0.7-5.5,0.4-10.9-0.4-16.3
	c-0.1-0.9-0.2-1.7-0.2-2.6c-0.4-10.9-0.6-21.9-1.1-32.8c-0.4-8.7-1.2-17.3-1.7-26c-0.4-6.7-0.6-13.4-0.7-20.1
	c-0.1-6.7,0.1-13.4,0.2-20.1c0-13.1-0.1-26.3,0.1-39.4c0.2-9.9,0.8-19.8,1.3-29.7c0.1-2.2-0.1-4.5,0-6.7c0.2-5.4,0.5-10.9,0.7-16.3
	c0.1-2.2,0.1-4.5,0.1-6.7c0.1-5.8,0.2-11.7,0.1-17.5c0-2.9-0.4-3.1-3.2-3.2c-10.1-0.1-20.3,0.4-30.4-0.4c-9-0.7-17.9,0.5-26.8,0.1
	c-8.3-0.4-16.6-0.6-25-0.7c-5-0.1-10,0.3-15,0.4c-12,0.3-23.9,0.7-35.9,0.8c-10.9,0.1-21.7-0.1-32.6-0.2c-4.5,0-9.1,0-13.6-0.2
	c-25.7-1-51.3,0.6-77,0.8c-8.1,0.1-16.2-0.5-24.3-0.6c-3.1,0-6.2,0.5-9.3,0.6c-5.5,0.2-11,0.2-16.5,0.4c-5.1,0.2-10.1,0.7-15.2,1
	c-1.7,0.1-3.3,0.1-5,0.3c-3.7,0.4-7.3,0.8-11,1.2c-0.7,0.1-1.4,0.1-2.1,0.1c-2.9,0-4.5-1.2-4.5-3.1c0-1.8,2.6-4.3,4.6-4.4
	c2.1-0.1,4.3-0.2,6.4-0.3c4.9-0.4,9.7-0.9,14.6-1.1C41,8.4,47.4,8.4,53.8,8.2c1.3,0,2.6-0.2,3.9-0.3c6.4-0.2,12.9-0.5,19.3-0.6
	c3.6-0.1,7.1,0.3,10.7,0.3c7.2,0.1,14.3,0.1,21.5,0c10.4-0.2,20.8-0.5,31.2-0.7c10.5-0.2,21-0.7,31.5-0.4
	c12.4,0.4,24.8-0.1,37.2,0.4c15.9,0.7,31.8,0.2,47.6-0.7c10.7-0.6,21.5,0.2,32.2-0.3c5.2-0.2,10.5,0.6,15.7,0.7
	c2.5,0.1,5-0.6,7.5-0.6c9.7,0.1,19.3,0.4,29,0.5c5.6,0.1,11.2-0.1,16.8-0.1c4.3,0,6.9,2.5,6.9,6.9c0.1,9.7,0.5,19.4-0.2,29
	c-0.6,9-0.4,18.1-0.7,27.1c-0.2,7-1,14-1.3,21.1c-0.2,4.8,0.1,9.7,0,14.5c-0.1,10.5-0.3,21.1-0.4,31.6c-0.1,9.9-0.6,19.9,0.1,29.8
	c0.9,12.1,1,24.3,2.1,36.4c1,11.4,1,22.8,1.5,34.2c0.8,18,1.1,36,1.3,54c0.1,6.5-0.9,13.1-1.4,19.6c-0.2,2.2,0,4.5-0.2,6.7
	c-0.5,7.4-1,14.8-1.5,22.2c-0.1,2.5,0.1,5-0.1,7.5c-0.4,5.9-1,11.8-1.4,17.7c-0.3,4.1-0.5,8.1-0.7,12.2c-0.3,6.1-0.6,12.1-0.8,18.2
	c-0.3,7.4-0.6,14.8-0.8,22.3c-0.2,5.2-0.2,10.4-0.6,15.6c-1.2,14.2-1,28.5-1.2,42.7c-0.2,8.8,0.2,17.6,0.1,26.4
	c-0.1,8.3-0.4,16.6-0.5,24.9c0,2.7,0.5,5.4,0.6,8.1c0.1,1.7-0.3,3.4-0.3,5c0,0.8,0.2,1.7,0.4,2.5c0.6,2.5-0.1,3.7-2.6,4.1
	c-1,0.2-2.1,0.3-3.2,0.4c-6.3,0.3-12.6,0.6-18.9,1c-4.5,0.3-9,0.9-13.5,1c-7.3,0.1-14.6-0.2-21.8-0.1c-10.5,0.1-21,0.5-31.5,0.7
	c-6.2,0.1-12.5,0.4-18.6-0.1c-10.9-1-21.7,0-32.6,0c-21.7,0-43.5,0.5-65.2,0.7c-8.2,0.1-16.5-0.1-24.7-0.1
	c-6.4-0.1-12.9-0.1-19.3-0.3c-8-0.2-16-0.1-23.9-0.7c-12.3-1-24.6,0.1-36.9-0.1c-5.8-0.1-11.6-1-17.4-1.6c-1.8-0.2-3-1.4-3.3-3.4
	c-0.5-3,1.7-4.9,5.3-4.4c2.6,0.4,5.2,1.1,7.8,1.3C42.8,541.3,47.3,541.4,51.9,541.7z M170.4,459.8c0,1.3-0.2,2.3-0.1,3.2
	c0.7,5.6,1.4,11.3,2.2,16.9c0.9,6.1,2,12.2,2.9,18.3c0.6,3.7,1,7.3,1.4,11c0.7,5.6,1.5,11.3,2.1,16.9c0.3,3.5,0.3,7,0.6,10.4
	c0.2,1.9,0.8,3.7,1.2,5.5c9.3,0,18.1,0,27,0.1c6,0,11.9,0.1,17.9,0.2c1.1,0,2.2,0.2,3.2-0.1c0.6-0.2,1.3-1,1.5-1.7
	c0.2-0.9,0.1-2,0-3c-0.5-5.5-1.1-11.1-1.6-16.6c-0.5-5.3-0.9-10.6-1.3-15.9c-0.6-6.8-1.3-13.5-1.9-20.3c-0.2-2.2-0.1-4.5-0.3-6.7
	c-0.4-4.2-0.9-8.4-1.4-12.5c-0.1-1.3-0.3-2.6-0.5-4C205.6,459.8,188.2,460.8,170.4,459.8z M113.9,542.3c0-1.6,0.1-2.6,0.1-3.5
	c-0.2-12.8-1.3-25.4-2.9-38.1c-1-7.8-1.4-15.8-1.9-23.7c-0.3-4.8-0.4-9.7-0.6-14.5c-0.1-2.8-0.3-3-2.9-3c-1.6,0-3.1,0.2-4.7,0.1
	c-7.8-0.6-15.7-1-23.5-0.7c-4.2,0.2-8.3,0.2-12.6,0.3c-0.4,3.8-1.1,7.4-1.1,10.9c0,11.8,0.4,23.6,0.5,35.4c0,4.4-0.3,8.9-0.7,13.3
	c-0.5,6.3-1.2,12.5-1.8,18.8c-0.1,1.1,0,2.1,0.1,3.2c4.4,0.3,8.6,0.7,12.7,0.8c9.4,0.2,18.8,0.2,28.2,0.4c0.7,0,1.4,0,2.1,0.1
	C107.9,542.1,110.7,542.2,113.9,542.3z M171.5,542.4c-2.1-27.8-5.8-55-10.6-82.1c-14.4,0-28.8,0.1-43.6,0.1c0.1,4.4,0,8.6,0.3,12.8
	c0.5,6.8,1.2,13.5,1.8,20.3c0.5,5.7,0.9,11.3,1.4,17c0.5,5.8,1.1,11.6,1.5,17.4c0.2,3.5,0.2,7,0.3,10.4c0.1,1.4,0.3,2.8,0.6,4.6
	C139.6,541.9,155.5,543.6,171.5,542.4z M239.3,542.2c13.9-0.5,27.5,0.5,41.2-1c-0.1-2.2,0.1-4.2-0.2-6.1c-1.2-6.9-2.3-13.9-2.5-20.9
	c-0.3-7.6-0.9-15.1-1.3-22.7c-0.4-6.6-0.6-13.1-0.9-19.7c-0.1-2-0.2-4.1-0.3-6c-14.8-1.2-29.1-2.4-43.6-3.6c0,1.7,0,3.2,0.1,4.7
	c0.8,6.1,1.6,12.2,2.4,18.4c0.3,2.1,0.1,4.2,0.4,6.3c0.8,7.5,1.6,15,2.4,22.5c0.6,6,0.9,12.1,1.4,18.1
	C238.6,535.3,238.9,538.5,239.3,542.2z M284.6,466.4c-0.1,2.3-0.4,4.1-0.3,6c0.6,9.8,1.2,19.6,1.9,29.3c0.5,7.7,0.9,15.3,1.6,23
	c0.5,5.4,1.2,10.8,1.9,16.2c12.4,1.4,24.6,0.2,37,0.2c0.3-6.9,1-13.3,0.9-19.7c-0.2-10.2-0.9-20.3-1.4-30.5c-0.1-2-0.7-4-0.5-5.9
	c0.4-4.9-0.3-9.6-1.2-14.3c-0.7-3.9-1-4.2-4.9-4.2c-10,0.1-20,1-30.1-0.2C287.9,466.2,286.5,466.4,284.6,466.4z"/>
<path d="M4,19.7c1.2-1,2.3-1.8,3.4-2.8c1.2,0.5,2.3,1,3.4,1.5c1.5,0.7,2.2,1.8,2.1,3.5c-0.2,3.7-0.5,7.4-0.4,11.1
	c0.1,8.5,0.4,16.9,0.6,25.4c0.1,4.7,0.5,9.5,0,14.2c-0.9,7.6-0.2,15.1,0,22.7c0.3,11.8,1.1,23.6,1.7,35.3c0.5,8.5,1,17.1,1.5,25.6
	c0.4,7.3,0.8,14.6,1.1,22c0.5,12.3,1,24.6,1.4,36.9c0.5,15.1,0.8,30.3,1.4,45.4c0.2,4.9,1.1,9.8,1.4,14.8c0.3,4.7,0.5,9.4,0.7,14.2
	c0.6,15.1,1.1,30.3,1.8,45.4c0.5,9.8,1.2,19.6,1.8,29.4c0,0.4,0,0.7,0.1,1.1c0.8,19.4,1.2,38.7,2.5,58c0.7,10.3,0.9,20.6,1.3,30.8
	c0.5,13.4,0.9,26.8,1.5,40.2c0.5,12.4,1.1,24.8,1.6,37.2c0.2,4.5-1,6-5.1,7.1c-1.7,0.5-2.6-0.3-2.9-1.8c-0.3-1.8-0.8-3.8-0.4-5.5
	c1-4.7,0.3-9.4,0-14.1c-0.1-1.7-0.5-3.4-0.5-5.2c-0.4-12.4-0.8-24.8-1.1-37.2c-0.4-13.9-0.6-27.8-1.1-41.7c-0.2-5.9-1-11.8-1.5-17.8
	c-0.1-1.2-0.1-2.5-0.2-3.7c-0.7-14.3-1.3-28.5-2-42.8c-0.4-9.1-1-18.1-1.3-27.2c-0.5-12.4-0.9-24.8-1.4-37.3
	c-0.5-10.5-0.5-21.2-1.8-31.6c-2-16.2-1.5-32.5-2.2-48.7c-0.4-10.3-0.6-20.6-1-30.9c-0.5-14.5-1.2-29-1.8-43.6
	c-0.4-9.2-0.9-18.4-1.4-27.5c-0.4-6.6-0.8-13.1-1.2-19.7C5.6,94.8,5.1,87,5,79.2c-0.1-6.4,0.6-12.9,0.6-19.3
	c0-6.7-0.5-13.4-0.7-20.1C4.6,36,4.4,32.2,4.2,28.3C4.1,25.5,4.1,22.6,4,19.7z"/>
<path d="M299.8,493c-0.1-1.5-0.2-2.7-0.1-3.9c0.1-1.7,1.1-2.5,2.8-2.6c0.1,0,0.2,0.1,0.2,0c2.7-1.2,4.4,0.6,6.3,2
	c2.9,2.1,6,3.9,9,5.9c3.3,2.2,6.6,4.4,9.9,6.7c0.7,0.5,1,1.5,1.5,2.3c0.2,0.4,0.4,0.8,0.6,1.2c1.4,1.9,1,3.3-1.1,4.3
	c-4.5,2.1-9.1,4.2-13.7,6.3c-1.3,0.6-2.6,1.2-3.9,1.7c-1.9,0.8-3.8,1.1-5.8,1.1c-1.7,0-3-1.1-3.2-2.8c-0.1-0.6,0-1.2,0-2.1
	c-2.5,1.2-4.8,2.2-7,3.4c-2.4,1.3-5.2-0.1-5.7-2.8c-0.1-0.5,0-1.1-0.2-1.4c-2.5-2.4-1.5-5.7-2-8.6c-0.4-2.7-0.2-5.4-0.2-8.1
	c0-1.5-0.3-3-0.1-4.4c0.1-1.6,0.8-2,2.4-2c0.8,0,1.6-0.1,2.4,0c0.9,0.1,1.8,0.4,2.7,0.8C296.2,490.9,297.9,491.9,299.8,493z
	 M307.5,513.3c6-2.5,11.8-4.8,17.6-7.9c-2.4-1.8-4.3-3.4-6.4-4.8c-2.2-1.5-4.5-2.7-6.8-4.1c-2.1-1.3-4.2-2.6-6.6-4.2
	c0.2,1.3,0.5,2.1,0.6,3c0.1,1,0.5,1.7,1.5,2.2c1.7,1,3.3,2.2,5,3.3c1.7,1.1,1.8,2.8,0.4,4.2c-1.1,1.1-2.2,2.4-3.6,3.1
	C307.1,509.4,307.1,511,307.5,513.3z M306.8,503.4c-4.4-3.4-9.2-6-14.4-8.4c0.2,5.6,0.4,10.9,0.6,16.2c0,0.2,0.3,0.3,0.4,0.5
	C300.6,508.7,304,506.5,306.8,503.4z"/>
<path d="M95.7,496.6c1.7-1.1,3-1.9,4.2-2.7c3-2,6.2-0.7,6.9,2.9c0.5,3.1,0.8,6.3,1.1,9.5c0.1,1.5,0.3,3,0.2,4.5
	c-0.2,2.1-1.3,4.1-2.9,5.2c-1.2,0.9-2.9,0.2-4.3-0.6c-1.5-0.9-3.1-1.6-4.9-2.4c-0.2,1.7-0.5,3.1-0.4,4.4c0.2,3.3-2,4.1-4.4,2.8
	c-2.3-1.2-4.4-2.5-6.6-3.8c-1.4-0.8-2.8-1.5-4.2-2.3c-3.7-2.2-7.4-4.3-11.2-6.5c-1-0.6-1.2-1.5-1.3-2.6c-0.2-2.5,0.8-3.9,2.8-5.3
	c3.8-2.7,7.6-5.2,11.8-7.2c2.3-1.1,4.2-2.8,6.3-4.3c0.9-0.7,1.9-1.6,3-0.7c1.3,1,3.3,1.3,3.2,3.7C94.9,492.8,95.4,494.4,95.7,496.6z
	 M90,493.4c-5.4,4.3-11.7,6.1-16.5,10.7c5.4,3.9,11.2,6.5,16.8,9.9c0.2-3.1,0.2-3.1-1.9-4.5c-0.9-0.6-1.8-1.1-2.6-1.7
	c-0.5-0.4-1.2-1.2-1.1-1.7c0.2-1.9,0.4-4,2.5-5c1.1-0.5,2.2-1.2,3.4-1.9C90.5,497.3,90.3,495.6,90,493.4z M91,504.7
	c3.4,2.9,7.5,3.8,11.4,5.6c0.4-4,0.1-7.7-0.9-11.4C97.9,500.9,94.6,502.7,91,504.7z"/>
<path d="M273.1,502.3c0,4.8,0,9.6-0.1,14.4c0,1.6-0.3,3.1-0.7,4.7c-0.3,1.2-1.3,1.9-2.7,1.8c-3.8-0.3-7.6-0.5-11.4-0.9
	c-3.9-0.5-7.7-1.2-11.5-1.9c-1.3-0.2-2.5-0.5-3.7-0.9c-2.3-0.7-2.7-1.3-2.5-3.8c0-0.2,0.1-0.3,0-0.5c-1.5-2.4-0.5-4.9-0.6-7.4
	c-0.1-3.5-0.2-7-0.4-10.5c-0.1-3.2-0.4-6.4-0.5-9.6c0-2.2,1.2-3,3.4-2.8c1.1,0.1,2.2-0.2,3.3-0.1c6.6,0.7,13.1,1.4,19.7,2.1
	c0.8,0.1,1.6,0.2,2.4,0.3c2.1,0.3,3.8,1.3,4.3,3.5c0.4,1.9,0.6,3.8,0.8,5.7C273,498.3,273,500.3,273.1,502.3z M267.2,517.7
	c0-3.5,0-6.6,0.1-9.7c0-2.1,0.2-4.3,0.2-6.4c0.1-3,0-6-1.2-8.9c-7.2-1.5-14.5-1.7-21.8-2.5c0.2,8.4,1.4,16.4,0.4,24.9
	C252.4,515.6,259.5,518,267.2,517.7z"/>
<path d="M181.7,509.3c0.4-3.7,0.8-7.5,1.1-11.2c0.2-2.8,0.3-5.6,0.5-8.4c0.2-2.5,0.4-4.9,0.7-7.4c0.3-2.2,1.9-2.8,4.8-2.8
	c2.9,0,4.7,1.1,6.6,2.4c3.6,2.6,7.5,4.9,11.3,7.3c3.4,2.1,7,4.2,10.4,6.3c2.4,1.5,2.4,3.2,0.3,4.9c-5.7,4.6-12.6,8.2-19.7,11.4
	c-1.9,0.9-3.8,1.8-5.9,2.6c-0.9,0.3-2.2,0.7-3,0.5c-2.2-0.7-4.2-1.7-6.2-2.7C181.1,511.7,182.1,510.4,181.7,509.3z M209.8,498.1
	c-6.3-3.8-12.3-7.4-18.4-11.1c-0.3,0.6-0.7,0.9-0.7,1.3c-0.4,6.2-0.7,12.4-1.1,18.6c0,0.5,0.1,1.1,0.2,2
	C197.1,505.7,203.6,502.4,209.8,498.1z"/>
<g>
	<path d="M160,497c-0.3,4.8-0.3,10.4-1.4,15.9c-0.4,1.9-0.2,3.8-0.3,5.7c-0.1,2.5-1.7,3.6-4.2,2.9c-1.4-0.4-3-0.2-4.4-0.8
		c-1.7-0.6-3.3-0.9-5-1c-1-0.1-1.9-1.2-1.8-2.5c0.3-4.2,0.6-8.4,1-12.6c0-0.5,0.1-1,0.1-1.4c0-4.8,0.1-9.6,0.1-14.4
		c0-4.5,2.4-5.5,6.2-5.1c2,0.2,3.9,0.9,5.8,1.5c2.4,0.7,3.8,2.3,3.9,4.8C160.1,492.1,160,494.2,160,497z M152.6,516.4
		c1.3-8.8,1.9-17.3,1.6-26.1c-1.4-0.3-2.7-0.5-4.1-0.8c-0.1,0.5-0.3,0.8-0.3,1.1c-0.2,5.3-0.4,10.6-0.6,16c-0.1,1.9-0.1,3.8-0.6,5.7
		c-0.3,1.3-0.1,2.3,0.3,3.5C150.1,515.9,151.2,516.1,152.6,516.4z"/>
	<path d="M128.8,512.1c0.2-6.7,0.4-13.4,0.6-20.1c0.1-2.4,0.2-4.8,0.2-7.1c0-1.2,0.9-2.4,2.1-2.9c2.4-0.9,4.6-0.5,7,0.3
		c2.8,0.9,4,2.9,4.1,5.8c0,1.1,0.1,2.2,0,3.4c-0.3,4.8-0.7,9.5-1.1,14.3c-0.2,3.4-0.4,6.8-0.6,10.2c-0.1,2.3-1.4,3.2-3.6,2.8
		c-1.6-0.3-3.3-0.5-5-0.7c-3.3-0.2-4-1-3.9-4.3C128.8,513.2,128.7,512.7,128.8,512.1C128.8,512.1,128.8,512.1,128.8,512.1z
		 M135.2,487.4c-0.1,0.3-0.2,0.5-0.2,0.7c-0.2,5-0.3,10-0.5,15c-0.1,2.9-0.3,5.9-0.5,8.8c0,0.8,0.1,1.5,1.2,2
		c0.2-1.4,0.4-2.6,0.5-3.9c0.2-2.5,0.3-5.1,0.5-7.6c0.3-4.2,0.8-8.4,1.1-12.6c0-0.4-0.1-0.8-0.2-1.2
		C137.1,487.3,136.4,487.1,135.2,487.4z"/>
</g>
<path fill="#FFE313" d="M327.3,201c-7.2,0.5-13.8,0.6-20.3,1.4c-8.1,1.1-16.2,1-24.3,1.4c-7,0.3-14,1.1-20.9,2.3
	c-2.6,0.5-5.3,0.2-7.9,0.3c-6.8,0.4-13.6,1.1-20.3,1.4c-11.9,0.5-23.9,1-35.8,1.3c-3,0.1-6-0.4-8.9-0.2c-10.8,0.6-21.7,1.1-32.5,2.3
	c-9.7,1-19.3,2.6-29.1,2.8c-6.8,0.1-13.6,0.8-20.4,1.1c-7.9,0.4-15.7,0.9-23.6,1c-6.2,0.1-12.4-0.5-18.6-0.6
	c-5.3-0.1-10.7,0-16.1,0.1c-2.7,0.1-3.1-0.2-3.3-2.9c-0.4-4.9-0.8-9.7-1.2-14.6c-0.1-1.3-0.1-2.6-0.1-4c3.4-0.5,6.4-1,9.5-1.3
	c4.4-0.4,8.8-0.7,13.2-1c7-0.5,14-1.3,21-1.4c11-0.2,22-0.2,32.9,0.2c15.9,0.5,31.8,0,47.6-0.7c5.2-0.2,10.5-0.6,15.7-1.1
	c10.1-0.9,20.1-1.9,30.2-2.9c6.2-0.6,12.3-1.1,18.5-1.6c6.4-0.5,12.8-0.9,19.2-1.4c9.5-0.8,18.9-1.8,28.4-2.5
	c4.2-0.3,8.4-0.2,12.5-0.5c8.1-0.6,16.1-1.4,24.2-2c3.1-0.2,6.1-0.2,9.7-0.3C328.2,185.2,326.5,193.1,327.3,201z"/>
<path fill="#FFE313" d="M43.1,187c-0.2-6.7-0.3-12.7-0.5-18.9c1.9,0,3.4,0,4.9-0.1c5.9-0.4,11.9-0.4,17.8-1.2
	c7.1-1,14.2-1.2,21.4-1.4c10-0.2,20.1-0.4,30.1-0.5c4.2,0,8.3,0.3,12.5,0.1c14-0.4,27.9-0.9,41.9-1.5c3.8-0.2,7.5-1,11.3-1.6
	c4.9-0.7,9.9-1.4,14.8-2.1c6.1-0.9,12.2-1.7,18.4-2.5c0.6-0.1,1.2-0.1,1.8-0.1c9.9-0.4,19.8-0.8,29.7-1.2c3-0.1,5.9-0.6,8.9-0.7
	c1.8-0.1,3.6,0.4,5.3,0.4c4.8-0.1,9.6-0.3,14.3-0.6c4.9-0.3,9.7-0.7,14.6-1c6.6-0.5,13.3-1.1,19.9-1.6c2.3-0.2,4.5-0.1,6.8-0.1
	c2.7,0,5.4,0.2,8.6,0.2c1.3,5.5,0,11.6,1.3,17.6c-0.9,0.1-1.7,0.2-2.4,0.3c-6,0.2-12,0.3-17.9,0.7c-7.7,0.6-15.4,1.7-23.1,2.3
	c-4.8,0.4-9.5,0.4-14.3,0.7c-8.2,0.6-16.4,1.3-24.5,1.9c-6.8,0.5-13.6,0.8-20.3,1.4c-6.4,0.6-12.7,1.4-19.1,2.1
	c-1.8,0.2-3.6,0.3-5.3,0.4c-6.3,0.6-12.5,1.3-18.8,1.8c-7.4,0.6-14.7,1.2-22.1,1.5c-10.5,0.4-21,0.7-31.5,0.8
	c-12.2,0.1-24.3-0.1-36.5-0.1c-5,0-10-0.3-14.9,0.5c-7.8,1.2-15.7,0.5-23.5,1.4C49.7,186.1,46.7,186.5,43.1,187z"/>
<path fill="#FFE313" d="M324,109.4c0.1,4.7,0.2,9.4,0.3,14.4c-4.5,0-8.8,1.6-13.5,1.4c-5.7-0.3-11.4,0.5-17.1,0.8
	c-0.2,0-0.5,0.1-0.7,0.1c-16.9,0.7-33.9,1.4-50.8,2c-9.9,0.3-19.8,0.3-29.7,0.8c-11.2,0.5-22.4,1.1-33.5,2.3
	c-12.4,1.3-24.8,1.1-37.1,2.1c-16.3,1.3-32.7,1.1-49,1.9c-10.3,0.5-20.5,0.5-30.8,0.8c-3.2,0.1-6.4,0.6-9.6,0.7
	c-3.4,0.1-6.9-0.1-10.7-0.2c-0.1-5-0.2-9.9-0.4-14.9c8.4-1.8,17.1-3.7,26-4.5c12.5-1,25-1.5,37.5-1.7c12.6-0.2,25.3,0.3,37.9-0.1
	c9.5-0.3,19-1.4,28.5-2.1c5.5-0.4,10.9-0.8,16.4-1c7.6-0.3,15.3-0.5,22.9-0.6c8.1-0.1,16.2,0.1,24.3,0.1c5.7,0,11.5,0.5,17.2,0
	c13.9-1.4,27.8-1.7,41.8-2.1c3.8-0.1,7.6-0.8,11.4-0.9c4.3-0.1,8.6,0.3,12.8,0.4C319.8,109.2,321.7,109.3,324,109.4z"/>
<path fill="#FFE313" d="M38.6,89c-1.3-5.8-1.8-11-1.3-16.3c4.1-0.6,8.1-1.3,12.1-1.7c5.1-0.4,10.2-0.5,15.3-0.7
	c5.1-0.2,10.2-0.3,15.3-0.4c15.7-0.1,31.5-0.5,47.2,0c7.3,0.2,14.5,0.9,21.8,0.5c9.6-0.6,19.3-1.3,28.9-2.1c6.5-0.5,13-1.3,19.5-1.9
	c6.5-0.6,13-1.2,19.6-1.8c1.9-0.2,3.8,0,5.7-0.1c20.4-0.6,40.9-1.3,61.3-1.6c7.1-0.1,14.2,0.6,21.4,0.7c4.5,0.1,9-0.3,13.5-0.5
	c1.3-0.1,2.5-0.1,4.1-0.1c0.1,3,0.1,5.5,0.2,8.1c0.1,2.6,0.1,5.2,0.2,8.2c-5.2-2.1-10.2-1.1-15.1-1c-5.9,0.1-11.7,0.1-17.6,0.4
	c-8,0.4-15.9,1.3-23.9,1.6c-8.7,0.3-17.4,0.2-26.1,0.3c-0.7,0-1.4,0-2.1,0c-7.5,0.3-15,0.3-22.4,1.1c-13.5,1.3-27.1,2.3-40.7,2.6
	c-4.3,0.1-8.6,0.6-12.8,0.7c-2.5,0.1-5-0.3-7.5-0.2c-5.1,0.1-10.2,0.2-15.3,0.4c-4.6,0.2-9.3,0.6-13.9,0.8
	c-4.8,0.1-9.5-0.2-14.3-0.1C102,86.4,92.5,87,83,87.4c-2.9,0.1-5.7-0.1-8.6,0c-10.3,0.4-20.5,1-30.7,1.5C42,88.9,40.4,89,38.6,89z"
	/>
<path fill="#FFE313" d="M323.4,86.1c0.1,5.3,0.2,10.2,0.4,15.6c-2.6,0.1-5,0.1-7.3,0.2c-12.2,0.3-24.4,0.5-36.5,1
	c-9.3,0.4-18.6,1.3-27.8,1.7c-6.2,0.3-12.4,0-18.6,0.1c-5.9,0.1-11.8,0.7-17.6,0.3c-11.1-0.9-22.2,0.2-33.3,0.2
	c-3.7,0-7.3,0.6-11,0.9c-9,0.7-18,1.7-27.1,2c-11.4,0.5-22.9,0.4-34.3,0.7c-10.5,0.2-21,0.5-31.5,0.9c-6.6,0.3-13.1,0.6-19.6,1.3
	c-4.8,0.5-9.6,1.4-14.5,2.1c-1.3,0.2-2.6,0.3-4.2,0.5c-0.6-6-1.3-11.7-1.9-17.9c16.7-0.5,32.8-1,49-1.5c7.2-0.3,14.3-0.9,21.4-1.2
	c9.2-0.3,18.4-0.5,27.6-0.7c8.1-0.2,16.3-0.3,24.4-0.3c3.6,0,7.2,0.3,10.7,0.2c8.8-0.5,17.6-1.2,26.4-1.8c7.4-0.5,14.8-1,22.1-1.5
	c5.4-0.3,10.7-0.7,16.1-0.8c6.9-0.1,13.8,0.1,20.7-0.1c10.5-0.3,21-1,31.5-1.4c8-0.4,16-0.8,24-1C316,85.5,319.6,85.9,323.4,86.1z"
	/>
<path fill="#FFE313" d="M325.8,145.2c-4.7-0.1-8.9-0.3-13-0.1c-9,0.5-18.1,0.9-27.1,1.9c-9,1-18.1,1.2-27.1,1.3
	c-9.3,0.1-18.6,0.4-27.9,0.9c-6.8,0.3-13.6,0.9-20.3,1.7c-7.8,0.9-15.5,2.5-23.3,3.2c-7.9,0.8-15.7,2.4-23.8,2.5
	c-18.6,0.3-37.2,1.3-55.9,1.9c-6.7,0.2-13.4,0.3-20.1,0.2c-10-0.2-20,0.8-29.9,1.6c-3.9,0.3-7.9,0.3-11.8,0.4c-1,0-2.1-0.2-3.3-0.4
	c-0.1-5.3-0.3-10.5-0.4-15.8c0.6-0.1,1.1-0.4,1.7-0.4c7.7-0.4,15.5-0.8,23.2-1.1c23.4-0.8,46.8-1.6,70.2-2.4c3.3-0.1,6.7-0.3,10-0.5
	c13.9-0.5,27.9-1.2,41.7-2.7c5.5-0.6,11.2-0.4,16.7-0.9c23.4-2,46.8-1.4,70.2-2.4c6.4-0.3,12.9-0.6,19.3-1c5-0.3,10-0.8,14.9-1
	c4.9-0.2,9.8-0.3,15.1-0.4C326.1,136.2,325.7,140.7,325.8,145.2z"/>
<path fill="#FFE313" d="M324.1,41.4c-0.1,5-0.2,9.5-0.3,14.3c-2.7,0.3-5,0.6-7.3,0.7c-8.8,0.3-17.6,0.6-26.4-0.5
	c-0.8-0.1-1.7,0-2.5,0c-12.5,0.3-25.1,0.5-37.6,0.9c-12.8,0.4-25.5,0.8-38.3,1.4c-8.1,0.4-16.1,1.4-24.2,2.1
	c-8.2,0.7-16.3,1.6-24.5,2.1c-9,0.6-18.1,1.6-27.2,1.2c-9.8-0.4-19.6,0.4-29.3-0.2c-12.4-0.8-24.8-0.3-37.2-0.1
	c-2.7,0-5.5,0.5-8.2,0.6c-4.4,0.2-8.8,0.2-13.2,0.4c-2,0.1-4,0.4-6,0.6c-1.5,0.1-3.1,0.2-4.5,0.3c-1.4-2.7-2.2-8.3-2-13.3
	c3.4-1.1,7.1-1.6,10.7-1.7c6.2-0.3,12.5,0.2,18.6-0.9c9.1-1.5,18.3-1.3,27.3-2.5c7.4-1,14.9-1.6,22.4-2c4-0.2,8.1,0.1,12.1,0.2
	c0.6,0,1.2,0.1,1.8,0.1c8.9-0.7,17.8,0.3,26.7,0.9c1.3,0.1,2.6,0.1,3.9,0.1c11.1-0.3,22.2-0.8,33.3-1c12.4-0.3,24.9-0.5,37.3-0.7
	c5.2-0.1,10.5,0.1,15.7-0.1c7.3-0.2,14.5-0.9,21.8-1.1c9.4-0.3,18.9-0.2,28.3-0.5c8.2-0.3,16.4-0.8,24.7-1.3
	C321.2,41.5,322.4,41.5,324.1,41.4z"/>
<path fill="#FFE313" d="M327,208.5c0.6,4.3,1.1,8.2,1.7,12.3c-1.8,0-3.7-0.1-5.5,0.2c-5.6,0.6-11.1,1.4-16.6,2.1
	c-2.2,0.3-4.5,0.7-6.7,0.9c-4.1,0.4-8.3,0.9-12.4,1.1c-8,0.4-16,0.5-24,0.9c-9.9,0.5-19.7,1.1-29.6,1.9c-8.2,0.7-16.3,1.9-24.5,2.6
	c-7.8,0.7-15.7,1.1-23.6,1.6c-8.6,0.6-17.1,1.2-25.7,1.8c-7.3,0.5-14.6,0.6-21.7,1.6c-10.9,1.6-21.9,1.6-32.9,1.8
	c-5.5,0.1-10.9-0.7-16.4-0.6c-7.9,0.1-15.7,0.4-23.6,0.9c-5.8,0.4-11.6,1.2-17.6,1.9c-0.2-0.9-0.4-1.7-0.5-2.5
	c-0.4-3.4-0.8-6.8-1.2-10.3c-0.1-1.3-0.1-2.6-0.1-4.1c3.7-0.1,7-0.2,10.3-0.2c1.8,0,3.6,0.4,5.3,0.4c12.2,0,24.3,0,36.5-0.2
	c7.2-0.1,14.3-0.3,21.5-0.8c9.6-0.6,19.3-1.3,28.9-2.1c6.5-0.6,12.9-1.6,19.4-2.4c2.5-0.3,5-0.2,7.5-0.4c3-0.2,5.9-0.7,8.9-0.8
	c1.9-0.1,3.8,0.1,5.7,0.2c1.2,0.1,2.4,0.3,3.6,0.2c9.6-0.2,19.3-0.4,28.9-0.7c8.3-0.3,16.7-0.5,25-1.4c6.9-0.7,13.8-1,20.6-1.9
	c8.2-1.1,16.4-1.3,24.6-1.7c9.6-0.5,19.2-1.5,28.9-2.2C323.5,208.5,325.2,208.5,327,208.5z"/>
<path fill="#FFE313" d="M49.1,258.7c-0.1-3.8-0.2-7.4-0.3-11.2c5-0.9,10.3-2.1,15.7-2.6c6.9-0.7,13.8-0.9,20.7-1
	c6.2-0.1,12.4,0.5,18.6,0.6c5.1,0.1,10.3-0.2,15.4-0.3c9.6-0.1,19-1.3,28.5-2.6c1.5-0.2,3.1-0.2,4.6-0.3c6.2-0.4,12.4-0.9,18.6-1.3
	c10.6-0.7,21.2-1.4,31.8-2.1c7.5-0.5,15-0.9,22.4-1.9c7.7-1,15.4-1,23.2-1.5c9.9-0.6,19.7-1.4,29.6-2.1c3.1-0.2,6.1,0,9.2-0.3
	c7.1-0.6,14.2-1.3,21.3-2.1c4-0.5,8-1.5,12-1.9c2.7-0.3,5.4,0.1,8.6,0.2c0.2,2.1,0.3,4,0.5,6.1c-1.1,0.2-1.8,0.4-2.5,0.5
	c-8,1-16.1,1.9-24.1,2.9c-7.3,1-14.6,2.2-21.9,3.2c-4.2,0.5-8.6,0.5-12.8,1c-10.1,1.2-20.3,2.4-30.4,3.8c-9.9,1.4-19.7,3.2-29.6,4.6
	c-5.8,0.8-11.6,1.4-17.4,2c-5.9,0.6-11.8,1.2-17.7,1.8c-1.5,0.1-3.1,0.2-4.7,0.2c-12.5,0.2-25.1,0.1-37.6,0.5
	c-7,0.3-13.9,1.5-20.9,2.3c-0.5,0.1-1,0.1-1.4,0.1c-11,0.3-22,0.5-33,0.8c-7.2,0.2-14.3,0.5-21.5,0.7C52.5,259,51,258.8,49.1,258.7z
	"/>
<path fill="#FFE313" d="M323.4,28.5c0.2,2,0.4,3.6,0.6,5.6c-1.8,0.3-3.4,0.7-5,0.7c-12.2,0.4-24.4,0.7-36.5,1.2
	c-3.3,0.1-6.6,0.6-9.9,0.7c-5.1,0.1-10.3-0.6-15.4,0.1c-7.3,1-14.5,0.7-21.8,1.1c-5.1,0.2-10.3,0.4-15.4,0.4
	c-3.9,0-7.8-0.4-11.7-0.4c-3.1,0-6.2,0.6-9.3,0.6c-5.6,0.1-11.2-0.1-16.8,0c-4,0.1-8,0.8-12.1,0.9c-10.4,0.2-20.7,0-31-1.2
	c-2-0.2-4,0.5-6,0.5c-4.8,0-9.5-0.4-14.3-0.2c-6.8,0.3-13.5,1-20.3,1.5c-0.5,0-0.9,0.2-1.4,0.2c-7.6,0.5-15.2,1-22.8,1.6
	c-3.7,0.3-7.3,0.9-10.9,1.3c-2.6,0.3-5.2,0.4-7.9,0.5c-6.9,0.3-13.8,0.4-21.2,0.7c-0.4-2.9-0.9-6.1-1.4-9.4c6.4-0.7,12.4-1.3,18.3-2
	c2.1-0.2,4.2-0.7,6.3-1.1c4.4-0.8,8.9-1.5,13.4-1.7c8.9-0.5,17.8-1.5,26.7-1.8c5.7-0.2,11.4,0.4,17.1,0.6c1.2,0,2.4-0.1,3.6,0
	c6.7,0.1,13.3,0.3,20,0.4c2,0,4-0.3,6.1-0.4c3.1-0.1,6.2-0.2,9.2-0.3c0.8,0,1.7,0.1,2.5,0.1c9.7-0.1,19.4-0.3,29-0.4
	c13.7-0.1,27.5-0.2,41.2-0.3c10.6,0,21.2-0.1,31.9,0c7.5,0.1,15,0.4,22.5,0.6c0.4,0,0.7,0,1.1,0c12.8-0.1,25.5-0.1,38.3-0.2
	C321,28.4,322,28.5,323.4,28.5z"/>
<path d="M160.1,278.7c7.1,0,14.3,0.1,21.4-0.1c5.7-0.2,11.4-0.9,17.1-1.1c7.1-0.2,14.3-0.2,21.4-0.1c5.5,0,10.9,0.3,16.4,0.4
	c2.4,0,4.8-0.5,7.2-0.5c8.1,0.1,16.3,0.3,24.4,0.7c6.7,0.3,13.4,1,20.2,1.3c2.9,0.1,5.9-0.6,8.8-0.6c2.8-0.1,5.5,0,8.3,0.3
	c2.3,0.3,3.4,2.7,2.4,4.8c-0.6,1.3-0.3,2.5-0.1,3.7c0.4,2.6,1.2,5.3,1.2,7.9c0,5.8,1.2,11.5,1.8,17.3c0.5,5.3,1.1,10.6,1.6,15.9
	c0.6,6.9,1.2,13.8,1.2,20.7c0,6.6,0.3,13.1,0.7,19.7c0.3,5.6,1.1,11.2,1.4,16.8c0.1,2.5-0.2,4.9-0.4,7.4c-0.1,1.9-0.4,3.9-0.4,5.8
	c0.1,5.1-1.3,9.9-2.5,14.7c-0.2,0.7-0.4,1.4-0.4,2.2c0,2.4-1.2,3.9-3.5,4.4c-3.3,0.8-6.6,1.7-10,2c-4.9,0.5-9.8,0.5-14.6,0.9
	c-4.4,0.3-8.8,0.9-13.2,1.4c-0.6,0.1-1.3,0-1.9,0.1c-4.9,0.3-9.8,0.7-14.6,1.1c-0.6,0-1.3,0.1-1.9,0.1c-9.7-0.3-19.4,0.6-29.1,1.2
	c-4.2,0.2-8.5,0.4-12.7,0.5c-10.1,0.3-20.2,0.5-30.2,0.8c-5.6,0.2-11.2,0.6-16.9,0.9c-4.3,0.2-8.7,0.5-13,0.5
	c-3.3,0-6.6-0.3-9.9-0.3c-2.3,0-4.6,0.4-6.9,0.3c-6.8-0.1-13.7-0.2-20.5-0.6c-5-0.3-9.9-1.2-14.8-1.5c-5.5-0.4-11-1.2-16.4-2.6
	c-2.5-0.6-5.1-0.7-7.7-0.8c-3.3-0.1-6.1-1.3-8.8-3.1c-1.1-0.7-1.8-1.7-1.9-3.2c-0.6-5.8-1.5-11.5-2-17.3c-0.5-5.2-0.4-10.5-0.8-15.8
	c-0.7-7.6-0.9-15.1-1-22.7c-0.1-6-0.5-12-0.7-18c-0.2-5.4-0.4-10.7-0.6-16.1c-0.2-5-0.4-10-0.6-15c-0.2-5.1-0.4-10.2-0.6-15.2
	c0-1-0.4-2-0.5-3c-0.4-2.2,0.5-3.2,2.5-4.1c5.8-2.6,12.2-2.7,18.3-3.8c4.4-0.8,8.9-1.6,13.3-2.2c3.2-0.5,6.4-0.7,9.6-1.2
	c4.3-0.6,8.6-1.3,12.8-2c0.9-0.1,1.8-0.3,2.7-0.4c3.7-0.2,7.4-0.4,11-0.6c4.5-0.3,9-0.7,13.5-1c0.2,0,0.4-0.1,0.5-0.1
	c6.5-0.2,12.9-0.5,19.4-0.7C160.1,278.9,160.1,278.8,160.1,278.7z M62.7,295.8c-0.1,0.4-0.2,0.7-0.2,1.1c0.3,3.7,0.7,7.3,0.9,11
	c0.3,6.5,0.6,12.9,0.8,19.4c0.1,3.3-0.1,6.7,0.1,10c0.2,4.5,0.6,9,0.9,13.5c0.5,7.8-0.1,15.7,0.7,23.5c0.7,6.9,0.7,13.8,1,20.8
	c0.1,1.8,0,3.5,0.2,5.3c0.5,4.7,1.1,9.3,1.6,14c0.3,2.8,1.1,3.9,3.9,4.6c0.8,0.2,1.6,0.4,2.4,0.5c2.5,0.3,5,0.4,7.4,0.8
	c4.6,0.7,9.3,1.7,13.9,2.3c2.1,0.3,4.3,1.4,6.4,0.5c0.5-1.9,0.8-3.7,1.3-5.5c0.8-2.8,1.9-5.6,2.7-8.4c1.2-4.3,2.4-8.7,3.5-13.1
	c0.7-3,2.5-4.8,5.5-5.6c2.8-0.7,5.5-1.3,8.4-1.7c4.4-0.6,8.7-1.5,13.2-0.6c0.5,0.1,1.1,0,1.7,0c4.4-0.2,8.8-0.3,13.2-0.6
	c2.8-0.1,5.5-0.4,8.3-0.6c1.8-0.1,3.7-0.1,5.5-0.1c1,0,2,0.1,3,0.1c4.1-0.2,8.1-0.4,12.2-0.5c4.7-0.1,9.5,0.1,14.2-0.1
	c6.2-0.2,12.4-0.6,18.5-0.9c5.5-0.3,10.9-0.5,16.4-0.7c1.8-0.1,3.7-0.1,5.6-0.2c5.5-0.3,11-0.7,16.6-1.1c0.6,0,1.3,0,1.9,0
	c4.9-0.2,9.8-0.3,14.7-0.5c1.1,0,2,0.4,2.7,1.2c1.8,2.2,3.9,4.3,5.4,6.7c4.7,7.6,9.9,14.9,13.8,23.1c0.4,0.8,0.9,1.6,1.3,2.4
	c0.5,0.9,1.2,1.1,2.1,0.9c2.5-0.4,4.9-0.7,7.4-1.1c1.6-0.3,3.1-0.8,3.7-2.6c0.8-2.7,1.9-5.4,2.3-8.3c0.7-4.3,0.8-8.6,1.2-12.9
	c0.1-1.7,0.4-3.3,0.3-5c-0.4-6.4-1.1-12.7-1.4-19c-0.4-7.5-0.3-15-0.6-22.5c-0.3-6.2-0.6-12.3-1.2-18.5c-0.6-6.3-1.5-12.6-2.2-18.9
	c-0.2-1.7-0.6-3.5-0.3-5.2c0.4-2.6,0-5.1-0.6-7.7c-0.6-3.1-1.1-6.3-1.7-9.4c-0.1-0.5-0.3-1-0.5-1.5c-3.9,0-7.7,0.1-11.5,0
	c-9.2-0.2-18.5-0.5-27.7-0.8c-0.7,0-1.5,0-2.2-0.1c-4.1-0.3-8.1-0.7-12.2-0.8c-5.2-0.1-10.3-0.1-15.5,0c-12.6,0.2-25.2-0.5-37.7,0.5
	c-6.6,0.5-13.3,0.9-19.9,1c-11.8,0.3-23.7-0.2-35.5,0.8c-6.9,0.6-13.8,0.8-20.8,1.2c-0.1,0-0.2,0-0.3,0c-5.5,0.9-11.1,1.8-16.7,2.7
	c-5.2,0.8-10.4,1.5-15.6,2.3c-5.1,0.8-10.2,1.6-15.3,2.5C67.6,294.4,65.3,295.1,62.7,295.8z M285.7,417.7c-0.3-0.8-0.4-1.3-0.7-1.8
	c-2.9-5.1-5.8-10.3-8.8-15.4c-1.8-3.1-3.9-6.1-5.9-9.1c-1.3-2-3.1-2.9-5.6-2.8c-5.2,0.3-10.3,0.3-15.5,0.4c-0.4,0-0.7,0.1-1.1,0.1
	c-6.4,0.4-12.7,0.8-19.1,1.2c-3.3,0.2-6.6,0.3-10,0.4c-9.8,0.3-19.6,0.6-29.4,0.8c-8.4,0.2-16.8,0.3-25.3,0.4
	c-0.5,0-0.9,0.1-1.4,0.1c-8.8,0.5-17.7,1.4-26.6,1c-1.1,0-2.2-0.1-3.3,0c-4.4,0.5-8.8,1.1-13.1,1.6c-2.4,0.3-3.6,1.8-4.1,4.2
	c-1,4.6-2.2,9.1-3.4,13.6c-1,3.6-2,7.3-3,10.9c0.5,0.2,0.7,0.3,1,0.3c7.7,0.3,15.3,0.7,23,0.9c2.9,0.1,5.9-0.5,8.8-0.5
	c3.3,0,6.6,0.4,10,0.5c2.4,0,4.8-0.4,7.2-0.5c6.5-0.3,12.9-0.7,19.4-0.9c9.5-0.3,19-0.5,28.6-0.8c4.8-0.1,9.6-0.3,14.4-0.5
	c6.5-0.3,13.1-0.8,19.6-1.1c5.3-0.3,10.5-0.3,15.8-0.6c5.7-0.4,11.4-0.9,17.1-1.4C278,418.4,281.7,418.1,285.7,417.7z"/>
<path fill="#FFE313" d="M62.7,295.8c2.6-0.6,5-1.3,7.3-1.8c5.1-0.9,10.2-1.8,15.3-2.5c5.2-0.8,10.4-1.5,15.6-2.3
	c5.6-0.9,11.1-1.8,16.7-2.7c0.1,0,0.2,0,0.3,0c6.9-0.4,13.9-0.6,20.8-1.2c11.8-1,23.7-0.5,35.5-0.8c6.6-0.1,13.3-0.5,19.9-1
	c12.6-1,25.2-0.3,37.7-0.5c5.2-0.1,10.3-0.1,15.5,0c4.1,0.1,8.1,0.5,12.2,0.8c0.7,0.1,1.5,0,2.2,0.1c9.2,0.3,18.5,0.6,27.7,0.8
	c3.8,0.1,7.6,0,11.5,0c0.1,0.5,0.4,1,0.5,1.5c0.6,3.1,1.1,6.3,1.7,9.4c0.5,2.5,1,5,0.6,7.7c-0.3,1.7,0.1,3.5,0.3,5.2
	c0.7,6.3,1.6,12.6,2.2,18.9c0.6,6.1,0.9,12.3,1.2,18.5c0.3,7.5,0.3,15,0.6,22.5c0.3,6.4,1,12.7,1.4,19c0.1,1.6-0.2,3.3-0.3,5
	c-0.4,4.3-0.6,8.6-1.2,12.9c-0.4,2.8-1.5,5.5-2.3,8.3c-0.5,1.8-2.1,2.3-3.7,2.6c-2.4,0.5-4.9,0.8-7.4,1.1c-0.9,0.1-1.6-0.1-2.1-0.9
	c-0.4-0.8-0.9-1.6-1.3-2.4c-3.9-8.1-9.1-15.5-13.8-23.1c-1.5-2.4-3.6-4.5-5.4-6.7c-0.7-0.9-1.5-1.3-2.7-1.2
	c-4.9,0.2-9.8,0.3-14.7,0.5c-0.6,0-1.3,0-1.9,0c-5.5,0.3-11,0.7-16.6,1.1c-1.8,0.1-3.7,0.1-5.6,0.2c-5.5,0.2-10.9,0.4-16.4,0.7
	c-6.2,0.3-12.4,0.7-18.5,0.9c-4.7,0.2-9.5,0-14.2,0.1c-4.1,0.1-8.1,0.3-12.2,0.5c-1,0-2-0.1-3-0.1c-1.8,0-3.7,0-5.5,0.1
	c-2.8,0.1-5.5,0.4-8.3,0.6c-4.4,0.2-8.8,0.4-13.2,0.6c-0.6,0-1.1,0.1-1.7,0c-4.4-0.9-8.8,0-13.2,0.6c-2.8,0.4-5.6,1-8.4,1.7
	c-3,0.8-4.7,2.6-5.5,5.6c-1.1,4.4-2.3,8.7-3.5,13.1c-0.8,2.8-1.9,5.6-2.7,8.4c-0.5,1.8-0.9,3.6-1.3,5.5c-2.2,0.9-4.3-0.2-6.4-0.5
	c-4.7-0.6-9.3-1.6-13.9-2.3c-2.5-0.4-5-0.5-7.4-0.8c-0.8-0.1-1.6-0.2-2.4-0.5c-2.8-0.7-3.6-1.8-3.9-4.6c-0.5-4.7-1.1-9.3-1.6-14
	c-0.2-1.7-0.1-3.5-0.2-5.3c-0.3-6.9-0.3-13.9-1-20.8c-0.8-7.9-0.2-15.7-0.7-23.5c-0.3-4.5-0.7-9-0.9-13.5c-0.1-3.3,0-6.7-0.1-10
	c-0.2-6.5-0.4-12.9-0.8-19.4c-0.2-3.7-0.6-7.3-0.9-11C62.5,296.5,62.6,296.1,62.7,295.8z M210.8,338.1c0-0.2,0-0.3,0-0.5
	c-5.6,0.3-11.2,0.7-16.9,1c-5.1,0.3-10.1,0.7-15.2,1c-2.3,0.1-4.6,0.1-6.9,0.2c-2.7,0.1-4.4,2-4.3,4.7c0.1,0.9,0.2,1.8,0.4,2.7
	c0.7,3.4,1.6,6.8,2.3,10.3c0.6,3.1,1.2,6.2,0.3,9.3c-0.5,1.8,0.2,3.2,1.5,4.5c1.3,1.2,2.7,2,4.4,1.9c3.6-0.3,7.2-0.6,10.7-0.8
	c2.1-0.2,4.2-0.3,6.3-0.5c3.9-0.4,7.9-0.8,11.8-1.1c3.2-0.3,6.4-0.4,9.6-0.6c4-0.3,8.1-0.7,12.1-0.9c3.9-0.2,3.9,0,4.9-3.9
	c0-0.2,0.1-0.4,0.2-0.5c1.4-2,1-4.3,0.8-6.5c-0.5-4.9-1.3-9.9-2-14.8c-0.3-2.4-1.6-3.9-3.8-4.7c-1.3-0.4-2.7-0.8-4-0.8
	C219.1,338.1,214.9,338.1,210.8,338.1z M257.3,336.3c-2.9,0.2-7.5,2.2-11.3,6c-3.4,3.4-4.4,7.8-4.5,12.4c-0.1,1.8-0.1,3.7,0.8,5.4
	c1.7,3.6,4.5,6,8.3,7.2c5.5,1.7,10.8,1.2,15.9-1c5-2.2,8-6.2,9-11.5c0.4-2.2,0.4-4.6,0-6.8C274.2,341,267.1,336.1,257.3,336.3z
	 M142.3,370c3.3-0.1,6.4-0.6,8.9-2.7c4.4-3.7,8-7.9,8.3-14.1c0.2-2.6,0-5-1-7.3c-1-2.4-2.7-4.5-5.5-5c-2.6-0.5-5.2-0.8-7.8-1.2
	c-0.4-0.1-1,0-1.3,0.2c-3,1.5-6.2,2.9-9,4.7c-1.3,0.8-2.4,2.3-3.1,3.7c-1,2.1-1.6,4.3-2.2,6.5c-0.7,3-0.4,6,1.2,8.5
	C133.4,367.7,137.5,369.7,142.3,370z M287.3,292.1c-1.8-0.1-3.4,1.5-3.4,3.3c-0.1,1.6,2.7,4.2,4.5,4.3c1.5,0,3-1.5,3-3
	C291.5,294.6,289.2,292.1,287.3,292.1z M72.3,308.3c1.7,0,2.9-1.2,2.8-3.1c0-1.9-2.3-3.9-4.3-3.8c-2,0-3,1.1-2.9,3.1
	C67.9,306.4,70.2,308.3,72.3,308.3z M79.6,415c1.8,0,2.6-0.9,2.7-3.1c0.1-2-1.8-3.7-4-3.7c-1.9,0-3.1,1.2-3.1,3.1
	C75.2,413.1,77.4,415,79.6,415z M299.1,412.6c1.5,0,3.1-1.7,3-3c-0.1-1.7-2.5-3.8-4.3-3.8c-1.6,0-3.1,1.7-3,3.4
	C295,410.7,297.3,412.6,299.1,412.6z"/>
<path fill="#FFE313" d="M285.7,417.7c-4.1,0.4-7.8,0.7-11.4,1c-5.7,0.5-11.4,1.1-17.1,1.4c-5.3,0.3-10.5,0.4-15.8,0.6
	c-6.5,0.3-13.1,0.8-19.6,1.1c-4.8,0.2-9.6,0.4-14.4,0.5c-9.5,0.3-19,0.5-28.6,0.8c-6.5,0.2-12.9,0.6-19.4,0.9
	c-2.4,0.1-4.8,0.5-7.2,0.5c-3.3,0-6.6-0.5-10-0.5c-2.9,0-5.9,0.6-8.8,0.5c-7.7-0.2-15.3-0.6-23-0.9c-0.3,0-0.5-0.2-1-0.3
	c1-3.7,2-7.3,3-10.9c1.2-4.5,2.4-9.1,3.4-13.6c0.5-2.4,1.6-3.9,4.1-4.2c4.4-0.6,8.8-1.1,13.1-1.6c1.1-0.1,2.2-0.1,3.3,0
	c8.9,0.3,17.7-0.5,26.6-1c0.5,0,0.9-0.1,1.4-0.1c8.4-0.1,16.8-0.2,25.3-0.4c9.8-0.2,19.6-0.5,29.4-0.8c3.3-0.1,6.6-0.2,10-0.4
	c6.4-0.4,12.7-0.8,19.1-1.2c0.4,0,0.7-0.1,1.1-0.1c5.2-0.1,10.4-0.2,15.5-0.4c2.5-0.1,4.3,0.8,5.6,2.8c2,3,4,6,5.9,9.1
	c3,5.1,5.9,10.3,8.8,15.4C285.3,416.4,285.4,417,285.7,417.7z"/>
<path d="M210.8,338.1c4.2,0,8.3-0.1,12.5,0c1.3,0,2.7,0.4,4,0.8c2.2,0.7,3.5,2.3,3.8,4.7c0.6,4.9,1.4,9.8,2,14.8
	c0.2,2.2,0.6,4.4-0.8,6.5c-0.1,0.1-0.2,0.3-0.2,0.5c-1,3.9-1,3.8-4.9,3.9c-4,0.2-8.1,0.6-12.1,0.9c-3.2,0.2-6.4,0.4-9.6,0.6
	c-4,0.3-7.9,0.8-11.8,1.1c-2.1,0.2-4.2,0.3-6.3,0.5c-3.6,0.3-7.2,0.6-10.7,0.8c-1.8,0.1-3.2-0.6-4.4-1.9c-1.3-1.3-2-2.7-1.5-4.5
	c0.9-3.2,0.3-6.2-0.3-9.3c-0.7-3.4-1.5-6.8-2.3-10.3c-0.2-0.9-0.3-1.8-0.4-2.7c-0.2-2.7,1.5-4.6,4.3-4.7c2.3-0.1,4.6-0.1,6.9-0.2
	c5.1-0.3,10.1-0.7,15.2-1c5.6-0.4,11.2-0.7,16.9-1C210.8,337.8,210.8,338,210.8,338.1z M201.5,364.7c8.6,0.1,16.9-1.3,25.8-1.8
	c-0.9-6.3-1.7-12.3-2.6-18.6c-9.2-0.6-18.1-1.4-27.4-0.1C202.1,350.6,202.7,357.4,201.5,364.7z M180.8,365.5
	c3-5.9,2.1-11.2-0.8-16.4c0.4,2.6,1.2,5.2,1.3,7.8C181.5,359.7,181,362.4,180.8,365.5z M195.2,357.5c0.5-3.9-0.6-7.3-3.1-9.6
	c0.6,1.7,1.2,3.2,1.7,4.8C194.4,354.2,194.7,355.8,195.2,357.5z"/>
<path d="M257.3,336.3c9.8-0.1,16.8,4.7,18.2,11.8c0.4,2.2,0.4,4.6,0,6.8c-1,5.3-4,9.3-9,11.5c-5.1,2.2-10.5,2.7-15.9,1
	c-3.8-1.2-6.6-3.6-8.3-7.2c-0.8-1.8-0.8-3.6-0.8-5.4c0.2-4.6,1.2-9,4.5-12.4C249.8,338.4,254.4,336.5,257.3,336.3z M247.8,354.2
	c0,5.8,5.2,9.7,9.7,8.6c1.6-0.4,3.2-1,4.8-1.4c5.3-1.5,7.3-7.1,7.3-11.5c0-1-0.6-2.1-1.1-3.1c-1.3-2.4-3.3-3.9-6-4.6
	c-0.9-0.2-1.8-0.7-2.6-0.5c-1.9,0.5-3.7,1.5-5.7,2c-2,0.5-3.8,1.9-4.6,4.1C248.9,350.3,248.2,352.8,247.8,354.2z"/>
<path d="M142.3,370c-4.9-0.3-8.9-2.3-11.5-6.5c-1.6-2.6-1.9-5.6-1.2-8.5c0.5-2.2,1.2-4.5,2.2-6.5c0.7-1.4,1.8-2.9,3.1-3.7
	c2.9-1.8,6-3.2,9-4.7c0.4-0.2,0.9-0.3,1.3-0.2c2.6,0.4,5.2,0.8,7.8,1.2c2.8,0.5,4.5,2.6,5.5,5c1,2.3,1.2,4.8,1,7.3
	c-0.4,6.2-3.9,10.4-8.3,14.1C148.8,369.3,145.6,369.8,142.3,370z M147.7,344.9c-1.7,0.8-3.4,1.6-5.3,2.3c-4.1,1.5-5.8,4.8-6.5,8.7
	c-0.6,3.2,0,5.4,3.2,7.3c2.5,1.5,4.7,1.2,7.4-0.8c2.5-1.8,4.4-4.1,6-6.8c1.2-2.2,1.4-4.3,0.9-6.7c-0.3-1.7-1.2-2.8-3-3.1
	C149.5,345.7,148.7,345.2,147.7,344.9z"/>
<path d="M287.3,292.1c1.9,0.1,4.1,2.6,4.1,4.6c0,1.5-1.6,3.1-3,3c-1.8,0-4.6-2.7-4.5-4.3C284,293.6,285.6,292,287.3,292.1z"/>
<path d="M72.3,308.3c-2.1,0-4.3-1.9-4.4-3.8c-0.1-2.1,0.9-3.1,2.9-3.1c2,0,4.3,2,4.3,3.8C75.1,307,74,308.3,72.3,308.3z"/>
<path d="M79.6,415c-2.2,0-4.4-1.9-4.4-3.7c0-1.9,1.2-3.1,3.1-3.1c2.2,0,4.1,1.8,4,3.7C82.2,414.1,81.4,415,79.6,415z"/>
<path d="M299.1,412.6c-1.8,0-4.1-1.9-4.2-3.4c-0.1-1.7,1.4-3.4,3-3.4c1.7,0,4.1,2.1,4.3,3.8C302.2,410.9,300.5,412.6,299.1,412.6z"
	/>
<path fill="#FFE313" d="M201.5,364.7c1.3-7.4,0.7-14.2-4.2-20.5c9.4-1.3,18.2-0.5,27.4,0.1c0.9,6.3,1.7,12.3,2.6,18.6
	C218.4,363.4,210.1,364.9,201.5,364.7z"/>
<path fill="#FFE313" d="M180.8,365.5c0.2-3.2,0.7-5.9,0.5-8.6c-0.2-2.6-1-5.2-1.3-7.8C182.9,354.3,183.8,359.6,180.8,365.5z"/>
<path fill="#FFE313" d="M195.2,357.5c-0.5-1.7-0.8-3.3-1.3-4.9c-0.5-1.6-1.1-3.1-1.7-4.8C194.6,350.2,195.7,353.6,195.2,357.5z"/>
<path fill="#FFE313" d="M247.8,354.2c0.4-1.3,1.1-3.9,1.9-6.4c0.7-2.2,2.6-3.6,4.6-4.1c2-0.5,3.8-1.5,5.7-2c0.8-0.2,1.7,0.3,2.6,0.5
	c2.6,0.7,4.7,2.2,6,4.6c0.5,0.9,1.1,2,1.1,3.1c-0.1,4.4-2,9.9-7.3,11.5c-1.6,0.5-3.2,1-4.8,1.4C252.9,363.9,247.7,360,247.8,354.2z"
	/>
<path fill="#FFE313" d="M147.7,344.9c0.9,0.3,1.8,0.8,2.6,0.9c1.8,0.3,2.7,1.4,3,3.1c0.5,2.3,0.3,4.5-0.9,6.7c-1.5,2.7-3.4,5-6,6.8
	c-2.7,2-4.9,2.3-7.4,0.8c-3.1-1.9-3.8-4.1-3.2-7.3c0.7-3.8,2.4-7.2,6.5-8.7C144.3,346.5,146,345.7,147.7,344.9z"/>
</svg>
