<?xml version="1.0" encoding="utf-8"?>
<!-- Generator: Adobe Illustrator 18.0.0, SVG Export Plug-In . SVG Version: 6.00 Build 0)  -->
<!DOCTYPE svg PUBLIC "-//W3C//DTD SVG 1.1//EN" "http://www.w3.org/Graphics/SVG/1.1/DTD/svg11.dtd">
<svg version="1.1" id="Layer_1" xmlns="http://www.w3.org/2000/svg" xmlns:xlink="http://www.w3.org/1999/xlink" x="0px" y="0px"
	 viewBox="0 0 739.4 451.5" enable-background="new 0 0 739.4 451.5" xml:space="preserve">
<path fill="#508694" d="M522.5,14.2c2.2,14.2,3.4,28.4,3.7,42.8c0.2,11.6,1.6,23.1,3.8,34.5c1.7,8.5,2.9,17.1,4,25.7
	c2,15.3,3.7,30.6,5.5,46c0.4,3.6,0.3,7.2,0.4,10.7c0.4,9.8,0.6,19.5,1.2,29.3c0.7,10.6,1.9,21.1,2.6,31.7c0.7,12,0.9,24,1.6,35.9
	c0.5,7.6,1.6,15.1,2.3,22.6c0.5,6.6,0.8,13.2,1.1,19.8c0.2,5.4,0.4,10.7,0.4,16.1c0,6.5,0.1,13-0.4,19.4c-1.2,15-2.9,30-4,45
	c-0.5,6.4-0.1,12.9-0.2,19.4c-0.1,5.6-0.3,11.3-0.2,16.9c0.1,4.2,0.6,8.5,0.9,13c-3.3-0.1-6.3-0.2-9.3-0.2
	c-10.9-0.1-21.8-0.1-32.6-0.2c-8.7-0.1-17.4-0.3-26-0.6c-9.1-0.3-18.2-1-27.3-1.3c-13.2-0.5-26.5-1.1-39.7-1.2
	c-7.4-0.1-14.9,0.8-22.3,1.2c-10.2,0.5-20.4,1-30.6,1.4c-8.3,0.3-16.5,0.5-24.8,0.4c-7.6-0.1-15.2-0.6-22.8-0.9
	c-12.1-0.6-24.2-1.3-36.3-1.7c-12-0.5-24-1.1-36-2.2c-12.9-1.2-25.9-1.2-38.8-1.7c-5.9-0.3-11.9-0.6-17.8-0.9
	c-10.9-0.6-21.8-1.1-32.6-1.6c-1.5-0.1-3-0.2-4.5-0.4c-16.5-1.5-33-2.9-49.5-4.7c-9.6-1.1-19.1-2.9-28.6-4.3
	c-3.7-0.6-7.4-0.8-11.1-1.6c-9.4-2.1-18.7-4.6-28.2-6.7c-3.9-0.9-4.9-3.7-5.4-6.9c-1.2-7.2-2.4-14.4-3.2-21.7
	c-0.5-4.5-0.3-9.1-0.4-13.6c-0.2-6.9-0.5-13.7-0.7-20.6c-0.1-4.5-0.2-9.1-0.3-13.6c0-0.4,0.1-0.8,0-1.2c-1.3-13.1-0.1-26.2-0.5-39.3
	c-0.2-7.6-0.5-15.1,0.2-22.7c0.4-5.5-0.2-11-0.4-16.5c-0.3-9.5-0.5-19-0.8-28.5c-0.2-6.6-0.6-13.2-0.8-19.8c-0.1-5-0.2-9.9-0.1-14.9
	c0.2-9.6,0.4-19.3,0.9-28.9c0.5-9.5,1.5-19,2.1-28.5c0.3-4.5,0.5-9.1,0.7-13.6c0.2-5.5,0.4-11,0.7-16.5c0.3-6.7,0.7-13.5,1-20.2
	c0.3-6.6,0.9-13.2,0.9-19.8c0-6.1-0.5-12.1-0.8-18.2c-0.3-5.4-0.6-10.7-0.8-16.1c0-1.1,0.4-2.1,0.6-3.4c2.1-0.3,4-0.5,5.9-0.7
	c5.9-0.7,11.8-1.6,17.7-2.2c11.4-1.1,22.8-2.1,34.2-3.1c9.2-0.8,18.4-1.8,27.6-2.5c10-0.8,20.1-1.8,30.1-2.3
	c14.3-0.7,28.6-1.1,43-1.4c5.2-0.1,10.5,0.4,15.7,0.7c7.4,0.5,14.9,1.2,22.3,1.6c8.1,0.4,16.2,0.4,24.4,0.6
	c5.4,0.1,10.7,0.3,16.1,0.2c8-0.1,16-0.4,24-0.4c6.8,0,13.5,0.6,20.3,0.5c9.1-0.1,18.2-0.4,27.2-0.9c10.3-0.5,20.6-1.4,30.9-1.4
	c11,0,22-0.2,33-0.6c10.9-0.5,21.7-1.2,32.6-2.1c12.5-1,24.9-2.6,37.4-3.3c10.9-0.6,21.8-0.5,32.7-0.5c8.7,0,17.4,0.3,26,0.5
	C520.8,13.9,521.6,14.1,522.5,14.2z M411.2,55.2c0,0.1,0,0.2,0,0.3c-1.4-0.2-2.8-0.3-4.1-0.5c-12.3-1.8-24.7-2.7-37.1-2.9
	c-9.7-0.1-19.3-0.1-28.9-1.5c-0.7-0.1-1.4-0.1-2.1-0.1c-8.9-0.3-17.9-0.6-26.8-0.8c-5.1-0.1-10.2-0.4-15.3,0
	c-11.2,1-22.3,0.2-33.5-0.3c-11.3-0.5-22.6-1.5-33.9-2.2c-5.8-0.4-11.6-1-17.4-1c-6,0.1-12.1,0.9-18.1,1.4c-8.4,0.7-16.7,1.4-25.1,2
	c-10.8,0.8-21.7,1.6-32.6,2.3c-11.4,0.8-22.9,1.2-34.3,2.2c-7.4,0.6-14.8,1.7-21.9,4.2c-6.3,2.2-9.2,6.7-10,12.8
	c-1,7.7-2,15.3-1.8,23.1c0.2,9.4-0.2,18.7-0.3,28.1c-0.1,10.5-0.2,21-1.6,31.4c-0.1,0.7-0.2,1.4-0.2,2.1c-0.4,9.5-0.7,19-1.1,28.5
	c-0.6,12.7-1.1,25.4-1.8,38c-0.5,8.9-1.1,17.9-1.7,26.8c-0.2,3.6-0.7,7.2-0.8,10.7c-0.1,5.9,0,11.8-0.1,17.8c0,2.1-0.4,4.1-0.3,6.2
	c0.2,7.3,0.5,14.6,0.6,21.9c0.1,5.6-0.3,11.3-0.2,16.9c0.1,6.9,0.6,13.8,0.8,20.6c0.2,7,1.5,13.7,3.6,20.3c1,3.3,2.9,6.1,5.9,8.3
	c5.5,4,11.1,7.6,17.7,9.7c7.9,2.5,15.6,5.4,23.5,8c6.8,2.2,13.8,3.8,21,4.8c8.4,1.1,16.7,2.7,25,3.5c11.8,1.2,23.7,1.3,35.5,2.9
	c6.9,1,13.7,1.4,20.6,1.9c7.7,0.6,15.4,1.2,23.1,1.9c7.2,0.6,14.3,0.9,21.5,1.9c9.7,1.3,19.4,2.5,29.3,1.7c7-0.6,14.1-0.5,21.1-0.8
	c8.9-0.4,17.9-0.7,26.8-1.3c9.5-0.6,19-1.5,28.4-2.4c14.5-1.3,29.1-2.6,43.6-4.2c11.9-1.3,23.8-2.6,35.9-1.4
	c6.7,0.7,13.5-0.2,20-2.2c4.2-1.3,8-2.9,10.4-6.8c2.7-4.3,5.2-8.7,5.4-14c0.3-6.8,0.8-13.5,1.4-20.3c0.3-4.1,0.8-8.3,1.5-12.4
	c0.8-5.3,0.7-10.5-0.6-15.6c-3.1-12.5-2.9-25.2-1.7-37.8c0.8-9,0.2-17.9,0-26.8c-0.1-7.8-0.5-15.7-0.6-23.5
	c-0.1-8.3,0.1-16.5,0.1-24.8c0-6.5,0.1-12.9,0.1-19.4c0-7.7,0.3-15.4-0.2-23.1c-0.7-10.9-0.9-21.7-1-32.6
	c-0.1-6.9,0.1-13.9-1.2-20.6c-2.8-13.5-6.7-26.8-9.8-40.2c-1.5-6.3-5-10.9-9.9-14.8c-4.3-3.4-8.8-5.6-14.4-5.1
	c-2.9,0.2-5.8,0.2-8.6-0.1C426.8,57.1,419,56.1,411.2,55.2z"/>
<path fill="#508694" d="M557.8,299.1c-0.6-4.5-1.3-9.4-1.8-14.3c-0.9-10.7-1.8-21.4-2.4-32.2c-0.4-6.6-0.2-13.2-0.5-19.8
	c-0.4-7.3-1.2-14.6-1.8-21.8c-0.7-10.2-1.9-20.3-1.8-30.5c0.2-14.4-1.6-28.6-3.4-42.8c-1.6-12.8-3.2-25.7-5-38.5
	c-1.3-9.4-3.4-18.8-4.4-28.2c-1-9.3-0.9-18.7-1.4-28c-0.3-4.7-0.9-9.3-1.4-14c-0.5-4.9-1.2-9.8-1.8-14.9c4-0.2,7.9-0.5,11.8-0.5
	c6.5-0.1,12.9-0.2,19.4-0.2c2.2,0,4.4,0.4,6.6,0.5c10.5,0.7,20.9,1.6,31.4,2.2c6.1,0.3,12.1,0.3,18.2,0.5c4.4,0.2,8.8,0.4,13.2,0.8
	c12,1,24,1.8,35.9,3.2c5.4,0.6,10.8,2.3,16.2,3.5c1.9,0.4,2.2,1.9,2.6,3.4c1.3,4.8,2.2,9.8,4,14.4c5.1,12.9,6.1,26.9,10.1,40.1
	c3.1,10.3,4.8,21,6.3,31.6c1.9,13.1,3.5,26.2,3.8,39.5c0.2,8.1,1.2,16.2,1.6,24.3c0.2,4.8,0,9.6,0.1,14.4c0.1,4.5,0.3,9.1,0.4,13.6
	c0.1,4.8,0,9.6-0.1,14.5c0,5-0.1,9.9,0,14.9c0.1,5.2,0.1,10.5,0.4,15.7c0.4,9.4,0.9,18.7,1.3,28.1c0.2,3.3,0.2,6.5,0.4,10.3
	c-3.4,0.4-6.5,0.8-9.6,1c-7.2,0.5-14.4,0.6-21.5,1.4c-11.2,1.2-22.5,1.6-33.8,2.2c-8.4,0.5-16.7,1.8-25.1,2.5
	c-7.7,0.7-15.4,1.2-23.1,1.7c-6.5,0.4-12.9,0.9-19.4,1.2c-3.7,0.2-7.4,0-11.2,0.1C567.5,298.7,562.9,298.9,557.8,299.1z
	 M639.4,157.6c-0.2,0-0.7-0.2-1.3-0.3c-8.3-1.3-16.2-0.5-23.6,3.9c-0.9,0.6-2,0.8-3.1,1.2c-4,1.8-8.3,3.2-12,5.5
	c-6.8,4.2-11.9,10.2-16.8,16.4c-7.2,9.2-10.1,20-11.1,31.5c-0.7,8,0.2,15.8,2.7,23.3c4.2,12.4,11.9,22.3,22.4,30.1
	c3.3,2.4,7,3.8,10.6,5.6c9.3,4.5,19.2,4.7,29.1,5.1c1.3,0.1,2.7-0.4,4.1-0.6c7.2-1.1,13.6-4.6,20.2-7.3c9.1-3.7,17.2-8.9,24.1-15.8
	c3.8-3.7,6.3-8.4,7.8-13.5c1.7-5.9,2.5-11.8,2.3-18c-0.3-7.3-1.6-14.2-4.5-20.9c-4.5-10-10.3-19.3-16.9-27.9
	c-4.3-5.5-9.2-10.7-15.8-13.8C652,159.6,646.1,157.8,639.4,157.6z M560.6,81.1c-0.7,5,0,13.4,2.2,21.5c4.8,17.7,14.9,31.1,31.9,39
	c7.7,3.6,15.8,5.8,24.1,7c9.4,1.4,18.3-1.1,27-4.6c15.1-6.1,25.5-16.8,31.7-31.4c4.9-11.6,5-24,2.1-36.2c-2.5-10.4-7.3-19.8-14.6-28
	c-7.8-8.7-16.9-15-28.1-17.9c-3.7-1-7.7-1.7-11.4-1.4c-6.6,0.6-13.2,1.6-19.5,3.4c-10.8,3-21.1,7.4-29.5,15.4
	C567.9,56,562.3,65.6,560.6,81.1z"/>
<path fill="#508694" d="M558.6,327.1c1.4-0.3,2.6-0.8,3.8-0.9c5.1-0.2,10.2-0.3,15.3-0.4c8.3,0,16.5,0.1,24.8-0.9
	c16.8-2,33.7-3.3,50.6-5c6.3-0.6,12.6-1.6,18.9-2.2c12.7-1.3,25.5-2.6,38.2-3.9c2.3-0.2,4.6-0.6,7.2-0.9c0.2,4,0.2,7.8,0.6,11.6
	c1,9.2,2.1,18.3,3.4,27.4c1,6.7,3,13.3,3.3,20c0.3,8.1,2.6,15.7,4.6,23.4c0.2,0.8,0.4,1.6,0.4,2.4c0.1,5.8,0.3,11.5,0.2,17.3
	c-0.1,5-0.4,9.9-0.7,14.9c-0.1,1.2-0.3,2.4-0.4,3.8c-7,1.2-13.8,2-20.7,2.1c-12.5,0.3-25.1,0.9-37.6,1.3c-12,0.4-24,0.6-35.9,1.1
	c-7.8,0.3-15.7,1-23.5,1.6c-13.2,1-26.4,2.2-39.5,3.1c-5.3,0.4-10.7,0.1-16.5,0.1c-0.5-4.4-1.3-8.6-1.4-12.8
	c-0.1-8.4,0.3-16.8,0.2-25.2c-0.2-12.5,2.3-24.7,3.3-37.1c0.5-5.9,0.7-11.8,0.9-17.7C558.3,342.6,558.4,334.9,558.6,327.1z
	 M674.2,367.5c-2.3-0.2-5.2,2.2-5.5,4.6c-0.2,1.5,1.6,3.4,3.3,3.7c2.8,0.3,6.1-1.8,6.3-4.1C678.5,369.3,676.9,367.7,674.2,367.5z
	 M650.8,372.5c2.4,3.3,4.1,4,6.9,2.9c2.5-0.9,3.1-3.6,1.3-5.5c-2.5-2.6-4.4-2.5-6.7,0.4C651.8,370.9,651.4,371.7,650.8,372.5z
	 M623.8,388.4c2.8,0.4,5.6-1.1,5.9-3.1c0.2-1.7-2.1-4.1-4.1-4.4c-1.6-0.2-4.8,2.3-5.1,4.1C620.3,386.5,621.8,388.1,623.8,388.4z
	 M632.9,346.5c1.3,1.2,2.1,2,3,2.6c1.9,1.1,5.5-0.1,6.6-2c1-1.8,0.2-3.8-2.4-4.8c-0.8-0.3-2.2-0.2-2.9,0.3
	C635.7,343.5,634.6,344.9,632.9,346.5z M618.2,347.1c2.3,2.8,4.2,3.4,6.8,2.4c2.3-0.9,3.1-2.5,2.5-4.9
	C622.4,341.5,622,341.6,618.2,347.1z M644.8,383.1c-3.5-4.1-6.5-4.1-8.8-0.1c-0.7,1.3-0.6,2.2,0.5,3.2
	C639.3,388.7,643,387.4,644.8,383.1z M664.4,360.1c1.6,2.9,3.6,4,6.1,3.2c1.5-0.4,3.3-1.4,3.1-3.3c-0.1-1.3-1.1-2.8-2.2-3.6
	c-1.2-1-2.9-0.8-4.1,0.4C666.4,357.9,665.4,359,664.4,360.1z M626.5,394.3c1.8,2.9,3.5,3.7,5.8,3.1c2.4-0.6,4-3.7,2.9-5.4
	c-1.6-2.3-4.8-2.6-6.8-0.6C627.7,392.3,627.2,393.3,626.5,394.3z M647.9,360.9c1.5,3.5,2.1,4,4.3,3.7c2.3-0.3,4.3-1.9,4.5-3.7
	c0.3-2.1-1.5-3.2-2.8-3.6C650.7,356.2,649.4,358.9,647.9,360.9z M591.2,386.2c2.8,3.4,5.6,3.8,8,1.2c0.7-0.7,1.1-2.4,0.7-3.2
	c-1.2-2.8-4.2-3.2-6.4-1C592.6,383.9,592.1,385,591.2,386.2z M634.8,402.7c1.1,2.7,2.9,3.2,4.9,3.2c2,0,3.5-1.3,4-3
	c0.5-1.9-0.7-2.7-2.1-3.6c-1.7-1.1-3.1-0.9-4.4,0.6C636.4,400.8,635.6,401.7,634.8,402.7z M625.9,373.5c-4.1-2.8-5.6-2.8-7.7,0.4
	c-0.5,0.8-0.9,2.3-0.5,2.9c0.5,0.9,1.9,1.7,2.9,1.8C623.9,378.9,625.5,377.2,625.9,373.5z M631.4,364.9c3,3.9,6.8,4.1,8.5,0.5
	c0.4-0.7,0.4-2,0-2.7c-1.8-2.9-4.5-3-6.7-0.4C632.7,363.1,632.2,363.9,631.4,364.9z M632.8,374.4c2.9,3.4,6.1,3.8,8.4,1.2
	c1.2-1.4,1.2-2.6-0.2-3.8c-2.9-2.7-3.9-2.6-6.6,0.5C633.9,372.9,633.4,373.5,632.8,374.4z M607.2,385.9c-0.1,1.7,1.3,3.2,3,3.3
	c2.5,0.2,5-1.6,5.1-3.7c0.1-1.7-1.7-3.5-3.7-3.7C609.8,381.6,607.4,383.9,607.2,385.9z M661,395.1c2.6,0.2,4.7-1.3,4.9-3.4
	c0.1-1.1-2.1-3.5-3.4-3.7c-1.4-0.2-4.8,2.3-5,3.8C657.1,393.4,658.9,395,661,395.1z M657.6,353.4c3.7,4.1,6.8,3.8,9.2-0.8
	C663.2,347.8,661.1,347.9,657.6,353.4z M619.8,404c-0.2,1.4,1.4,3.1,3.1,3.3c2.3,0.3,4.8-1.2,5.3-3.1c0.4-1.6-1.3-3.5-3.5-3.8
	C622.8,400.1,620.1,402.1,619.8,404z M642.6,392.7c1,1,1.6,1.8,2.5,2.5c1.7,1.3,3.5,0.5,5.1-0.2c1.3-0.5,1.7-2.9,1-4
	c-0.9-1.4-3.4-2.5-4.6-1.7C645.2,390.1,644.1,391.3,642.6,392.7z M651.7,381.9c2.5,3.4,3.1,3.6,5.5,2.9c1.8-0.6,2.9-1.8,3.1-3.5
	c0.2-2.1-1.8-2.8-3.2-3.2C654,377.2,653.4,380.2,651.7,381.9z M592,367.6c1.6,2.9,2.6,3.5,4.7,2.9c2.4-0.6,3.3-2,3.4-5.1
	C595.7,362.7,595.7,362.7,592,367.6z M617.4,366.1c1,1,1.6,1.9,2.5,2.4c1.6,0.9,4.7,0,5.5-1.5c0.8-1.5,0.9-2.8-0.8-3.9
	c-2.3-1.5-3.5-1.4-5.3,0.6C618.8,364.3,618.3,365,617.4,366.1z M649.8,346.7c1.1,2.9,2.1,3.6,4.7,3.3c2.4-0.3,2.9-1.2,3.2-4.7
	C653.7,342.4,653.7,342.4,649.8,346.7z M612,373.7c-1.2-0.8-2.4-1.5-4-2.5c-1.5,1.7-3,3.3-4.6,5c1.7,2.3,3.3,2.9,5.7,2.3
	C611.5,377.9,612.1,376.3,612,373.7z M599.3,395.8c1.7,3.1,2.2,3.4,4.5,3.1c1.9-0.3,3.3-1.2,3.6-3.3c0.2-1.2-0.1-2.1-1.4-2.6
	C603.4,391.9,602.2,392.3,599.3,395.8z M614.2,345.8c-5.1-2.8-5.2-2.8-8.3,1.6c1.7,3,2.2,3.2,5,2.9
	C613.7,350,614.2,348.3,614.2,345.8z M632.9,354.1c-4.5-3.1-4.9-3-8.7,1.6c1.1,1.9,2.4,3,4.9,2.6C631.5,358,632.6,356.7,632.9,354.1
	z M650.4,402c2.8,3,6.1,3.3,7.7,0.8c0.4-0.7,0.7-1.9,0.3-2.6c-1.4-2.8-4.2-3-6.2-0.6C651.7,400.3,651.1,401.1,650.4,402z
	 M611.7,394.9c1.6,2.4,3.6,3.1,6,2.6c1.7-0.4,2.5-1.7,2.7-3.3c0.1-1.8-1.4-2.1-2.7-2.5C614.6,390.7,613.6,393.2,611.7,394.9z
	 M639,356.1c0.6,2.8,2.5,2.9,4.5,2.7c2.3-0.2,3.2-1.8,3.3-4C643.5,352,643,352,639,356.1z M607.5,404.9c1.8,2.9,3.2,3.5,5.5,2.5
	c1.7-0.7,2.5-2.7,1.7-4c-0.7-1.3-3.1-2-4.4-1.2C609.3,402.9,608.5,403.9,607.5,404.9z M590.7,376.6c1.8,2.7,3,3.3,5.3,2
	c0.9-0.5,1.7-1.8,2-2.8c0.1-0.6-0.8-1.6-1.5-2.1c-1.1-0.7-2.3-0.9-3.3,0.3C592.3,374.9,591.4,375.8,590.7,376.6z M598.6,357.4
	c1.7,2.4,3.4,3.2,5.4,2.5c2-0.7,2.7-2.1,2.3-4.1C603.1,353.7,603.1,353.7,598.6,357.4z M605.2,366.8c0.3,1.7,1.7,2.1,3.3,2.2
	c1.8,0.1,4-1.6,4.1-3.3c0.1-1.4-1.3-2.6-3-2.7C608.1,363,605.2,365.4,605.2,366.8z M618.1,354.5c-3.3-2.6-3.4-1.9-7.2,1.7
	c0.5,2.3,2.1,3,4.2,2.7C617.5,358.6,618.5,357.1,618.1,354.5z M674.8,381.2c-1.4-1.3-2.5-2.3-3.6-3.4c-1.7,1.3-3.1,2.3-4.9,3.7
	c1.5,1.2,2.5,2.2,4.2,3.6C671.8,383.9,673,382.8,674.8,381.2z"/>
<path fill="#508694" d="M716.7,298.1c0.2,2.2,0.3,4,0.4,5.7c-9,0.8-17.7,1.1-26.4,2.4c-14.3,2.1-28.7,3.5-43.1,5
	c-14.2,1.5-28.5,2.6-42.8,3.9c-5.3,0.5-10.7,1.2-16,1.6c-3.6,0.2-7.2-0.2-10.7-0.1c-6.4,0.1-12.9,0.2-19.8,0.4
	c-0.1-1.4-0.4-2.8-0.4-4.3c-0.1-1.5,0.1-3,0.1-4.4c11.9-0.4,23.7-0.8,35.5-1.3c8.3-0.3,16.5-0.6,24.8-1.2c10.3-0.8,20.6-2.1,30.9-3
	c6.4-0.6,12.9-0.7,19.3-1.1c6-0.4,12.1-1.1,18.1-1.5c7.4-0.5,14.8-0.8,22.3-1.2C711.3,298.7,713.8,298.4,716.7,298.1z"/>
<path fill="#508694" d="M430.1,339.8c4.8,6.1,9.3,11.7,13.7,17.4c2.3,3,4.1,6.2,6.3,9.2c2.9,4,6.1,7.8,9.1,11.8
	c1.7,2.1,3.2,4.3,5.1,6.9c-5.7,1.9-10.9,3.3-16.3,3.3c-5.6,0-11.3-0.6-16.9-0.3c-9.2,0.5-18.4,1.4-27.6,2.2
	c-12.8,1.1-25.5,2.3-38.3,3.5c-8.4,0.8-16.8,1.7-25.1,2.4c-6,0.5-12.1,0.8-18.1,1.1c-11.7,0.6-23.4,1.2-35.1,1.6
	c-5.5,0.2-11,0.3-16.5-0.2c-8.7-0.7-17.3-2.1-26-2.9c-4.7-0.5-9.4-0.4-14-0.5c-1.2,0-2.5-0.1-3.7-0.2c-18.2-1.8-36.3-3.6-54.5-5.2
	c-6.4-0.6-12.9-0.4-19.4-1c-8.5-0.7-16.9-2.1-25.3-4.1c-12.1-2.8-23.9-6.7-35.6-10.7c-3.1-1.1-6-2.7-9.5-4.3c2.7-3,4.9-5.8,7.5-8.1
	c7.6-6.8,15.4-13.5,23.1-20.1c2.9-2.5,2.8-2.2,6.1-0.7c9.8,4.5,19.9,8,30.7,9.4c7.1,0.9,14.1,2.7,21.1,3.9c3.8,0.6,7.7,0.8,11.5,1.1
	c4.5,0.4,9.1,0.7,13.5,1.4c11.5,1.7,22.9,3.6,34.4,5.4c11.2,1.8,22.5,3,33.8,2.8c8.1-0.2,16.3,0,24.4-0.1c11-0.1,22.1-0.2,33.1-0.4
	c16.5-0.3,32.7-2.7,48.9-5.1c14.9-2.3,29.6-5.5,43.5-11.7c3.7-1.6,7.3-3.3,10.9-5C426.5,341.5,428.2,340.7,430.1,339.8z"/>
<path fill="#508694" d="M468.5,375.9c-10.1-13.6-20.2-27.1-30.6-41c1.6-1.5,3.3-3.1,5.1-4.8c7.6-6.9,10.6-15.6,10.2-25.7
	c-0.6-13.1-0.2-26.2,0.4-39.3c0.7-13.7,0.3-27.5,0.3-41.3c0-7.2,0-14.3-0.2-21.5c-0.3-10.5-0.8-20.9-1-31.4
	c-0.2-12-2.2-23.9-3.5-35.8c-1.3-12.2-4.7-23.8-10.1-34.8c-1.3-2.6-3-5-4.5-7.6c6.5-7.1,13.6-13.3,21.9-19.3c2,7.1,4,13.8,5.9,20.5
	c1.3,4.8,2.5,9.6,3.5,14.5c1.1,5.8,2.5,11.6,2.9,17.5c0.5,8.2,0.2,16.5,0.4,24.8c0.1,5.4,0.6,10.7,0.8,16.1
	c0.3,8.1,0.4,16.3,0.5,24.4c0.2,12.1,0.3,24.2,0.4,36.3c0,0.7-0.1,1.4-0.1,2.1c-0.1,6.5-0.2,12.9-0.1,19.4
	c0.1,7.2,0.3,14.3,0.6,21.5c0.4,10.8-0.5,21.5-1.2,32.2c-0.3,4.8,0.6,9.6,1.2,14.4c0.8,6.4,1.9,12.8,2.6,19.2
	c0.2,2.1-0.3,4.4-0.5,6.6c-0.5,4.1-1,8.2-1.5,12.2c-0.2,1.9-0.5,3.8-0.6,5.8c-0.2,3.3-0.3,6.6-0.5,9.9c-0.1,1.6-0.6,3.1-0.9,4.7
	C469.3,375.8,468.9,375.8,468.5,375.9z"/>
<path fill="#508694" d="M447.6,67.1c-7.2,6.5-13.9,12.6-20.9,18.9c-1.7-1-3.7-2.2-5.7-3.3c-5.4-3-11.1-4.6-17.1-5.9
	c-8.7-1.9-17.5-2.1-26.3-2.6c-9.3-0.5-18.7,0.2-28.1,0.2c-5.2,0-10.5-0.3-15.7-0.4c-6.1-0.1-12.1-0.1-18.2-0.2
	c-4.7-0.1-9.4-0.1-14.1-0.3c-6.9-0.2-13.8-0.4-20.7-0.7c-5-0.2-9.9-0.3-14.9-0.4c-12.5-0.4-25.1-0.7-37.6-1.1
	c-7.2-0.2-14.3-0.8-21.5-0.8c-17.6,0.1-35.2,0.3-52.7,3.7c-12.1,2.4-24.1,4.8-35.5,9.6c-3.7,1.5-7.2,3.5-11.2,5.4
	c-1.7-1.6-3.8-3.1-5.2-5c-5-6.4-10.1-12.8-18.4-17.4c3.1-0.9,5.2-1.9,7.4-2.2c7-0.9,13.9-1.8,20.9-2.3c9.3-0.7,18.7-0.8,28-1.4
	c5.9-0.3,11.8-1,17.7-1.5c13.1-1,26.1-1.9,39.2-2.9c3.7-0.3,7.4-0.6,11.1-1c9.5-1,19,0.1,28.5,0.8c6.5,0.5,13,0.7,19.4,1
	c3.6,0.2,7.2,0.7,10.7,0.9c11,0.5,22,0.6,33.1,0.4c9.6-0.2,19.3,0.2,28.9,0.5c11.7,0.4,23.4,1,35.1,1.5c10.7,0.5,21.5,0.9,32.2,1.6
	c4.4,0.3,8.7,1.4,13.1,1.8c12,1,23.9,1.9,35.9,2.8C446,66.9,446.5,67,447.6,67.1z"/>
<path fill="#508694" d="M78.9,74.5c4.2,2.2,7.6,4.8,10.4,8.1c1.9,2.2,3.6,4.5,5.6,6.7c1.9,2.1,4,4.1,6.1,6.2
	c-1.5,2.6-3.2,5.1-4.4,7.8c-1.5,3.6-3.2,7.4-3.8,11.3c-1.3,7.5-2,15.1-2.7,22.7c-0.3,3-0.2,6-0.3,9.1c-0.3,9.1-0.5,18.2-0.9,27.2
	c-0.2,4.3-0.6,8.5-1,12.8c0,0.3,0,0.7-0.2,0.8c-3.4,1.6-1.8,4.7-2.2,7.3c-2,12.9-0.7,25.9-1.2,38.8c-0.3,7.6-0.5,15.2-0.7,22.8
	c0,1.9,0.1,3.8,0.2,5.8c0.4,7.6,0.7,15.1,1.4,22.7c0.5,5.5,1.6,10.9,2.6,16.3c0.6,3.4,1.2,6.8,2.3,10c2.4,7.1,7.1,12.7,12.1,18.1
	c1.4,1.5,2.9,3,4.2,4.4c-10.5,9.3-20.9,18.6-31.6,28.1c-2.1-8.6-3.4-17-3.4-25.5c-0.1-14.9-0.4-29.7-0.5-44.6
	c-0.1-8.3,0.6-16.5,0.1-24.8c-0.5-7.1,0.6-14,0.5-21.1c0-5.6,0.9-11.3,1.2-16.9c0.4-8.2,0.7-16.5,1-24.8c0.2-4,0.4-8,0.6-12
	c0.6-10.7,1.1-21.5,1.7-32.2c0.5-9.2,1.4-18.4,1.6-27.6c0.3-8.8-0.2-17.6-0.1-26.4c0.1-7.6,0.6-15.2,0.9-22.7
	C78.7,80.2,78.8,77.6,78.9,74.5z"/>
<path fill="#508694" d="M640,166.6c11.4,1.1,19.9,6.1,26.6,14.6c6.1,7.8,11.3,16.1,15.6,24.9c3.2,6.5,3.9,13.6,3.6,20.6
	c-0.2,5.3-1.2,10.7-2.8,15.8c-2.3,7.2-8.1,11.6-14.3,15.5c-7.9,4.9-16.6,8.3-25.2,11.5c-3.6,1.4-7.8,1.3-11.8,1.5
	c-7.6,0.4-14.6-2-21.6-4.7c-8.6-3.4-14.6-9.8-19.7-17.1c-6-8.7-8.2-18.4-8.4-29c-0.1-7.5,1-14.6,3.6-21.5c0.7-1.9,1.5-4,2.8-5.5
	c4.3-5,8.6-10.1,13.3-14.7c2.4-2.3,5.7-3.9,8.8-5.4c4-2,8.1-3.7,12.2-5.2C628.4,165.9,634.5,165.7,640,166.6z M628.5,250.8
	c2.2,0.1,4.4,0.2,6.6,0.2c5.3,0.1,9.9-2,14.6-4.2c7.6-3.6,13.1-9.3,15.1-17.6c0.8-3.1,2.4-6.3,1.3-9.7c-1.5-4.6-2.6-9.4-4.5-13.8
	c-3.1-7.2-8.5-12.3-16.4-13.9c-4.4-0.9-8.7-2.1-13.4-1.9c-5.5,0.3-10.5,1.4-14.8,4.5c-10.9,8.1-15.4,19.4-15,32.8
	c0.1,3.4,1.1,6.6,3.1,9.3C611,244.6,618.3,250,628.5,250.8z"/>
<path fill="#508694" d="M671.9,97.7c-0.5,6-2.4,11.7-5.1,17c-3,6.1-7.8,10.9-13,14.9c-9.5,7.2-20.5,10.8-32.5,10.7
	c-7.4,0-14.2-3.1-21.1-5.7c-10.2-3.8-17.2-11.2-22.2-20.2c-4.2-7.4-6.8-15.7-7.2-24.4c-0.2-3.6-0.3-7.2-0.5-10.7
	c-0.3-4.3,1.4-8.1,3.5-11.7c6.2-11.1,15.3-18.9,27.2-23c8.3-2.9,16.9-4.8,25.5-6.9c1.9-0.5,4.3-0.4,6.1,0.3
	c5.6,2.2,11.3,4.4,16.6,7.4c7.3,4.1,12.3,10.6,16,18c1.2,2.5,2.3,5,3.3,7.6C672.2,79.6,672.2,88.6,671.9,97.7z M588.3,82
	c-1.1,9.6-0.4,15.7,3,21.4c7.4,12.6,18.1,19.5,32.8,19.4c8.8-0.1,16.1-4.2,21.6-10.8c4-4.7,6.6-10.4,7.7-16.7c0.4-2.1,0.5-4-0.1-6
	c-2.4-8.9-7.6-16.3-14.3-22.3c-4.7-4.3-10.3-7.4-17-7.9c-2.2-0.2-4.6,0.8-6.7-1.1c-0.4-0.4-1.8,0.1-2.7,0.4
	c-1.6,0.5-3.1,1.1-4.7,1.7C596.8,64.9,589.8,73,588.3,82z"/>
<path d="M738.7,429.6c-0.7,3.3-1.5,7.2-2.4,11.1c-0.4,1.9-1.8,2.7-3.6,2.9c-7.5,0.8-15.1,1.7-22.6,2.1c-7.7,0.4-15.4,0-23.1,0.2
	c-5.5,0.1-11,0.5-16.5,0.8c-10.2,0.4-20.4,0.7-30.6,1.2c-10.5,0.6-20.9,1.3-31.4,2.1c-11.3,0.8-22.5,2.1-33.8,2.5
	c-10.7,0.4-21.5,0.1-32.2,0.1c-8.3,0-16.5,0.1-24.8,0.1c-2.9,0-5.8,0-8.7-0.1c-10.1-0.3-20.1-0.5-30.2-1c-9.9-0.4-19.8-1.1-29.8-1.5
	c-12-0.5-24-1-36-1c-8.1,0-16.2,0.9-24.3,1.3c-10.5,0.5-20.9,0.7-31.4,1.2c-11,0.6-22.1,0.2-33.1-0.5c-7.4-0.5-14.9-0.2-22.3-0.3
	c-1,0-1.9-0.2-2.9-0.2c-6.9-0.3-13.8-0.5-20.7-0.8c-3.7-0.1-7.4-0.3-11.2-0.5c-5.8-0.3-11.6-0.5-17.3-0.9
	c-11.5-0.8-23.1-1.7-34.6-2.4c-10.2-0.6-20.4-0.8-30.6-1.4c-7-0.4-14-1-21.1-1.4c-7.3-0.4-14.6-0.4-21.9-1.1
	c-17.2-1.6-34.4-3.3-51.6-5.1c-6.5-0.7-13-1.4-19.3-2.6c-12.1-2.3-24.1-4.8-36.1-7.4c-5.4-1.2-10.7-2.8-15.9-4.6
	c-3.9-1.3-6.2-4.3-6.8-8.6c-1.2-7.6-2.9-15.2-4-22.8c-0.6-4.3-0.5-8.8-0.6-13.2c-0.2-6.2-0.3-12.4-0.5-18.5
	c-0.2-7.2-0.5-14.3-0.7-21.5c-0.2-6.1-0.4-12.1-0.5-18.2c-0.1-12.9,0-25.9,0-38.8c0-1.9,0.3-3.9,0.3-5.8c-0.3-9.5-0.7-19-1-28.5
	c-0.1-4.5,0-9.1,0-13.7c-0.1-8-0.4-16-0.5-24c-0.1-6.3-0.1-12.7,0-19c0.1-6.6,0.3-13.2,0.6-19.9c0.3-6.5,1-12.9,1.4-19.4
	c0.5-8.5,0.8-17.1,1.3-25.6c0.3-5.2,0.7-10.5,1-15.7c0.3-4.5,0.4-9.1,0.6-13.6c0.1-3.3,0.3-6.6,0.4-9.9c0.3-9.4,0.8-18.7,0.7-28.1
	c-0.1-5.5-1.1-10.9-1.6-16.4C8.2,36,7.9,30.8,10,25.8c0.7-1.8,2.1-2.4,3.7-3c4.7-1.9,9.7-2,14.6-2.6c9.7-1.2,19.4-2.6,29.1-3.6
	c4.8-0.5,9.6-0.6,14.4-1c5.5-0.4,11-0.8,16.5-1.2c10-0.8,20-1.8,30.1-2.5c11.1-0.8,22.3-1.7,33.4-1.8c12.5-0.2,25.1-1.1,37.6,0
	c11.3,1,22.6,1.7,33.9,2c11.4,0.3,22.8,1,34.3,0.4c10.7-0.6,21.5-0.2,32.3,0c11.6,0.2,23.1,0.6,34.7-0.7c7.1-0.8,14.3-1.2,21.5-1.4
	c8.4-0.2,16.8,0,25.2-0.1c3.2,0,6.3-0.1,9.5-0.3c13.5-0.7,27-1.3,40.5-2.2c8.9-0.6,17.8-1.6,26.8-2.2c9.5-0.7,19-1.4,28.4-1.7
	c8.5-0.2,17.1,0.2,25.6,0.3c8.4,0.1,16.8,0.5,25.2,0.4c7,0,14-0.7,21-0.7c7.3,0,14.6,0.4,21.9,0.8c10.1,0.5,20.1,1.2,30.2,1.8
	c9.6,0.5,19.3,1,28.9,1.6c11.3,0.6,22.6,1.2,33.8,1.8c4.9,0.2,9.5,1.6,14.1,3c4.1,1.2,8.2,2.2,12.3,3.4c3,0.9,5,2.8,5.8,5.9
	c1,3.6,1.9,7.2,2.9,10.8c2.3,7.7,5.1,15.2,7,22.9c3.6,14.5,6.8,29,9.9,43.6c1.3,6.3,1.8,12.8,3,19.2c2.3,13.2,2.7,26.6,3.4,40
	c0.5,9.1,1,18.2,1.3,27.3c0.2,7.8,0.1,15.7,0.2,23.5c0.1,9.4,0.7,18.8,0.4,28.1c-0.3,12.3,1.3,24.5,1.7,36.8
	c0.2,9.5,1.2,19,1.6,28.4c0.3,6.3,0,12.7,0.6,19c1,10.1,2.4,20.2,3.7,30.3c1,7.9,2.2,15.8,3.2,23.7c0.1,1,0.1,1.9,0.3,2.9
	c1.3,5.1,2.9,10.1,3.8,15.2c0.7,4.2,0.9,8.5,0.9,12.7C739.4,414.1,739,421.5,738.7,429.6z M522.5,14.2c-0.8-0.1-1.6-0.3-2.5-0.3
	c-8.7-0.2-17.3-0.5-26-0.5c-10.9,0-21.8-0.1-32.7,0.5c-12.5,0.7-24.9,2.3-37.4,3.3c-10.8,0.9-21.7,1.6-32.6,2.1
	c-11,0.5-22,0.6-33,0.6c-10.3,0-20.6,0.9-30.9,1.4c-9.1,0.5-18.2,0.8-27.2,0.9c-6.7,0.1-13.5-0.5-20.3-0.5c-8,0-16,0.3-24,0.4
	c-5.4,0-10.7-0.1-16.1-0.2c-8.1-0.2-16.3-0.2-24.4-0.6c-7.4-0.3-14.9-1.1-22.3-1.6c-5.2-0.3-10.5-0.8-15.7-0.7
	c-14.3,0.3-28.7,0.7-43,1.4c-10,0.5-20.1,1.4-30.1,2.3c-9.2,0.8-18.4,1.7-27.6,2.5c-11.4,1-22.8,2-34.2,3.1
	c-5.9,0.6-11.8,1.4-17.7,2.2c-1.9,0.2-3.8,0.5-5.9,0.7c-0.2,1.2-0.7,2.3-0.6,3.4c0.2,5.4,0.5,10.7,0.8,16.1
	c0.3,6.1,0.8,12.1,0.8,18.2c0,6.6-0.6,13.2-0.9,19.8c-0.3,6.7-0.7,13.5-1,20.2c-0.2,5.5-0.4,11-0.7,16.5c-0.2,4.5-0.3,9.1-0.7,13.6
	c-0.7,9.5-1.6,19-2.1,28.5c-0.5,9.6-0.7,19.3-0.9,28.9c-0.1,5-0.1,9.9,0.1,14.9c0.2,6.6,0.6,13.2,0.8,19.8c0.3,9.5,0.5,19,0.8,28.5
	c0.2,5.5,0.8,11.1,0.4,16.5c-0.6,7.6-0.4,15.1-0.2,22.7c0.4,13.1-0.8,26.2,0.5,39.3c0,0.4,0,0.8,0,1.2c0.1,4.5,0.1,9.1,0.3,13.6
	c0.2,6.9,0.5,13.7,0.7,20.6c0.1,4.5-0.1,9.1,0.4,13.6c0.8,7.3,2,14.5,3.2,21.7c0.5,3.2,1.6,6,5.4,6.9c9.4,2.1,18.7,4.6,28.2,6.7
	c3.6,0.8,7.4,1.1,11.1,1.6c9.5,1.5,19.1,3.3,28.6,4.3c16.5,1.8,33,3.1,49.5,4.7c1.5,0.1,3,0.3,4.5,0.4c10.9,0.6,21.8,1.1,32.6,1.6
	c5.9,0.3,11.9,0.7,17.8,0.9c13,0.5,26,0.5,38.8,1.7c12,1.1,24,1.7,36,2.2c12.1,0.5,24.2,1.2,36.3,1.7c7.6,0.4,15.2,0.8,22.8,0.9
	c8.3,0.1,16.5-0.1,24.8-0.4c10.2-0.3,20.4-0.9,30.6-1.4c7.4-0.4,14.9-1.2,22.3-1.2c13.2,0.1,26.5,0.7,39.7,1.2
	c9.1,0.4,18.2,1,27.3,1.3c8.7,0.3,17.4,0.5,26,0.6c10.9,0.1,21.8,0.1,32.6,0.2c3,0,6,0.1,9.3,0.2c-0.3-4.6-0.9-8.8-0.9-13
	c-0.1-5.6,0.1-11.3,0.2-16.9c0.1-6.5-0.3-13,0.2-19.4c1.2-15,2.8-30,4-45c0.5-6.4,0.4-12.9,0.4-19.4c0-5.4-0.2-10.7-0.4-16.1
	c-0.3-6.6-0.5-13.2-1.1-19.8c-0.6-7.5-1.8-15.1-2.3-22.6c-0.7-12-0.9-24-1.6-35.9c-0.6-10.6-1.9-21.1-2.6-31.7
	c-0.6-9.7-0.8-19.5-1.2-29.3c-0.1-3.6,0-7.2-0.4-10.7c-1.7-15.3-3.5-30.7-5.5-46c-1.1-8.6-2.3-17.2-4-25.7
	c-2.2-11.4-3.6-22.9-3.8-34.5C525.9,42.6,524.7,28.4,522.5,14.2z M557.8,299.1c5.1-0.2,9.7-0.4,14.3-0.5c3.7-0.1,7.4,0.1,11.2-0.1
	c6.5-0.3,12.9-0.7,19.4-1.2c7.7-0.5,15.4-1,23.1-1.7c8.4-0.8,16.7-2,25.1-2.5c11.3-0.6,22.6-1,33.8-2.2c7.1-0.8,14.3-0.9,21.5-1.4
	c3.1-0.2,6.2-0.6,9.6-1c-0.1-3.7-0.2-7-0.4-10.3c-0.4-9.4-1-18.7-1.3-28.1c-0.2-5.2-0.3-10.4-0.4-15.7c0-5,0-9.9,0-14.9
	c0-4.8,0.1-9.6,0.1-14.5c0-4.5-0.3-9.1-0.4-13.6c-0.1-4.8,0.1-9.6-0.1-14.4c-0.4-8.1-1.4-16.2-1.6-24.3c-0.3-13.3-1.9-26.4-3.8-39.5
	c-1.6-10.7-3.2-21.3-6.3-31.6c-4-13.2-5-27.1-10.1-40.1c-1.8-4.6-2.7-9.6-4-14.4c-0.4-1.5-0.7-3-2.6-3.4c-5.4-1.2-10.7-2.9-16.2-3.5
	c-11.9-1.4-24-2.2-35.9-3.2c-4.4-0.4-8.8-0.6-13.2-0.8c-6.1-0.2-12.1-0.1-18.2-0.5c-10.5-0.6-20.9-1.4-31.4-2.2
	c-2.2-0.2-4.4-0.5-6.6-0.5c-6.5,0-12.9,0-19.4,0.2c-3.9,0.1-7.9,0.4-11.8,0.5c0.6,5.1,1.2,10,1.8,14.9c0.5,4.7,1.1,9.3,1.4,14
	c0.5,9.3,0.4,18.7,1.4,28c1,9.5,3.1,18.8,4.4,28.2c1.8,12.8,3.3,25.7,5,38.5c1.8,14.2,3.6,28.4,3.4,42.8
	c-0.2,10.1,1.1,20.3,1.8,30.5c0.5,7.3,1.4,14.6,1.8,21.8c0.4,6.6,0.1,13.2,0.5,19.8c0.6,10.7,1.5,21.4,2.4,32.2
	C556.5,289.6,557.3,294.5,557.8,299.1z M558.6,327.1c-0.2,7.8-0.3,15.5-0.6,23.2c-0.2,5.9-0.4,11.8-0.9,17.7
	c-0.9,12.4-3.4,24.6-3.3,37.1c0.1,8.4-0.4,16.8-0.2,25.2c0.1,4.2,0.9,8.4,1.4,12.8c5.8,0,11.1,0.2,16.5-0.1
	c13.2-0.9,26.4-2.1,39.5-3.1c7.8-0.6,15.7-1.3,23.5-1.6c12-0.5,24-0.7,35.9-1.1c12.5-0.4,25.1-1,37.6-1.3c6.9-0.1,13.7-0.9,20.7-2.1
	c0.2-1.3,0.4-2.5,0.4-3.8c0.3-5,0.6-9.9,0.7-14.9c0.1-5.8-0.1-11.5-0.2-17.3c0-0.8-0.2-1.6-0.4-2.4c-2-7.7-4.3-15.3-4.6-23.4
	c-0.3-6.7-2.3-13.3-3.3-20c-1.3-9.1-2.4-18.3-3.4-27.4c-0.4-3.8-0.4-7.6-0.6-11.6c-2.6,0.3-4.9,0.7-7.2,0.9
	c-12.7,1.3-25.5,2.5-38.2,3.9c-6.3,0.7-12.6,1.6-18.9,2.2c-16.9,1.7-33.8,3.1-50.6,5c-8.3,1-16.5,0.8-24.8,0.9
	c-5.1,0-10.2,0.2-15.3,0.4C561.1,326.2,559.9,326.7,558.6,327.1z M716.7,298.1c-2.9,0.3-5.4,0.6-7.8,0.7c-7.4,0.4-14.8,0.7-22.3,1.2
	c-6,0.4-12.1,1.1-18.1,1.5c-6.4,0.4-12.9,0.6-19.3,1.1c-10.3,0.9-20.6,2.2-30.9,3c-8.2,0.6-16.5,0.9-24.8,1.2
	c-11.8,0.5-23.6,0.9-35.5,1.3c0,1.4-0.2,2.9-0.1,4.4c0,1.5,0.3,2.9,0.4,4.3c6.9-0.1,13.3-0.3,19.8-0.4c3.6,0,7.2,0.4,10.7,0.1
	c5.4-0.3,10.7-1.1,16-1.6c14.3-1.3,28.5-2.5,42.8-3.9c14.4-1.5,28.8-2.9,43.1-5c8.7-1.3,17.4-1.6,26.4-2.4
	C717,302.1,716.8,300.4,716.7,298.1z"/>
<path d="M411.2,55.2c7.8,0.9,15.7,1.9,23.5,2.7c2.9,0.3,5.8,0.4,8.6,0.1c5.6-0.5,10.1,1.7,14.4,5.1c4.9,3.9,8.4,8.5,9.9,14.8
	c3.2,13.4,7.1,26.7,9.8,40.2c1.4,6.7,1.2,13.7,1.2,20.6c0.1,10.9,0.3,21.7,1,32.6c0.5,7.7,0.2,15.4,0.2,23.1c0,6.5,0,12.9-0.1,19.4
	c0,8.3-0.2,16.5-0.1,24.8c0.1,7.8,0.4,15.7,0.6,23.5c0.2,8.9,0.8,17.9,0,26.8c-1.2,12.7-1.4,25.3,1.7,37.8
	c1.3,5.1,1.4,10.4,0.6,15.6c-0.7,4.1-1.1,8.2-1.5,12.4c-0.6,6.7-1.1,13.5-1.4,20.3c-0.2,5.3-2.8,9.7-5.4,14
	c-2.4,3.9-6.2,5.5-10.4,6.8c-6.6,2-13.3,2.9-20,2.2c-12.1-1.2-23.9,0.1-35.9,1.4c-14.5,1.6-29.1,2.8-43.6,4.2
	c-9.5,0.9-18.9,1.7-28.4,2.4c-8.9,0.6-17.9,0.9-26.8,1.3c-7,0.3-14.1,0.3-21.1,0.8c-9.9,0.8-19.6-0.5-29.3-1.7
	c-7.1-0.9-14.3-1.3-21.5-1.9c-7.7-0.6-15.4-1.3-23.1-1.9c-6.9-0.5-13.7-0.9-20.6-1.9c-11.7-1.7-23.6-1.8-35.5-2.9
	c-8.4-0.8-16.7-2.4-25-3.5c-7.2-0.9-14.1-2.6-21-4.8c-7.9-2.5-15.6-5.5-23.5-8c-6.6-2.1-12.2-5.6-17.7-9.7c-2.9-2.2-4.8-5-5.9-8.3
	c-2.1-6.6-3.4-13.3-3.6-20.3c-0.2-6.9-0.6-13.7-0.8-20.6c-0.1-5.6,0.2-11.3,0.2-16.9c-0.1-7.3-0.5-14.6-0.6-21.9
	c0-2.1,0.3-4.1,0.3-6.2c0.1-5.9,0-11.8,0.1-17.8c0.1-3.6,0.5-7.2,0.8-10.7c0.6-8.9,1.2-17.9,1.7-26.8c0.7-12.7,1.3-25.4,1.8-38
	c0.4-9.5,0.7-19,1.1-28.5c0-0.7,0.1-1.4,0.2-2.1c1.4-10.4,1.5-20.9,1.6-31.4c0.1-9.4,0.5-18.7,0.3-28.1C68,86.5,69,78.9,70,71.2
	c0.8-6.2,3.8-10.6,10-12.8c7.1-2.5,14.5-3.6,21.9-4.2c11.4-1,22.8-1.5,34.3-2.2c10.9-0.7,21.7-1.5,32.6-2.3c8.4-0.6,16.8-1.3,25.1-2
	c6-0.5,12.1-1.3,18.1-1.4c5.8-0.1,11.6,0.6,17.4,1c11.3,0.7,22.6,1.7,33.9,2.2c11.1,0.5,22.3,1.3,33.5,0.3c5.1-0.5,10.2-0.2,15.3,0
	c8.9,0.2,17.9,0.5,26.8,0.8c0.7,0,1.4,0,2.1,0.1c9.6,1.4,19.2,1.4,28.9,1.5c12.4,0.1,24.8,1.1,37.1,2.9c1.4,0.2,2.7,0.3,4.1,0.5
	C411.1,55.4,411.2,55.3,411.2,55.2z M243.4,355.5c6.2,0.2,13.8,0.4,21.4,0.5c11.3,0.1,22.6,0.1,33.9,0.1c16,0,32-0.3,47.9-2.4
	c18.8-2.5,37.5-5,55.4-11.9c12.5-4.9,25.1-9.4,34.7-19.5c3.4-3.6,6-7.7,6.8-12.5c0.4-2.5,0-5.2-0.2-7.8c-0.9-10.9-0.3-21.8,0.2-32.7
	c0.1-3.3,0.7-6.6,0.8-9.9c0.2-6.9,0.2-13.8,0.2-20.7c0-8.4-0.1-16.8-0.2-25.2c-0.1-5.9-0.4-11.8-0.5-17.8
	c-0.1-6.5,0.2-12.9-0.3-19.4c-1-12.8-2.2-25.5-3.5-38.2c-1.1-10.6-3.3-21-7.7-30.8c-1.9-4.2-3.6-8.6-7.3-11.4
	c-3.7-2.8-7.6-5.7-11.9-7.5c-4.7-2-9.9-3.4-15-4.2c-6.4-1-12.9-1.2-19.4-1.5c-5.2-0.2-10.5,0-15.7,0c-9,0-17.9,0-26.9-0.1
	c-7.4-0.1-14.9-0.4-22.3-0.5c-9.7-0.2-19.3-0.2-29-0.5c-8.3-0.3-16.5-0.9-24.8-1.2c-11.7-0.4-23.4-0.6-35.1-0.9
	c-8.3-0.2-16.5-0.3-24.8-0.4c-5.4,0-10.8-0.2-16.1,0.3c-9.6,0.9-19.2,2.2-28.7,3.5c-10.6,1.4-20.8,4.2-30.8,7.9
	c-10.2,3.8-17.6,10.2-20.7,20.9c-0.1,0.4-0.4,0.8-0.4,1.2c-1.1,9.1-2.4,18.1-3.1,27.2c-0.6,7.1-0.2,14.3-0.5,21.5
	c-0.4,8.1-1.1,16.2-1.7,24.4c-0.1,1,0,1.9-0.1,2.9c-0.2,3.4,0.3,6.9-2.2,9.9c-0.5,0.5-0.5,1.6-0.5,2.4c-0.1,3.3-0.2,6.6-0.3,9.9
	c0,4,0.4,8,0.1,12c-0.7,9.2-0.8,18.4-0.7,27.7c0.1,6.9,0,13.8,0.6,20.6c0.7,8.6,1.9,17.3,3.1,25.9c1.1,7.7,3,15.3,8.5,21.2
	c4.1,4.3,7.7,9.3,12.6,12.5c7.6,5,16.4,7.7,25.5,9.4c3.8,0.7,7.6,1.3,11.4,2c2.6,0.5,5.1,1.1,7.7,1.6c4.7,0.9,9.5,2.2,14.3,2.5
	c14.8,0.9,29.4,2.7,44,5.1C228.5,352.5,235.2,353.9,243.4,355.5z M430.1,339.8c-1.9,0.9-3.6,1.7-5.4,2.5c-3.6,1.7-7.3,3.4-10.9,5
	c-13.9,6.2-28.6,9.5-43.5,11.7c-16.2,2.5-32.5,4.9-48.9,5.1c-11,0.2-22.1,0.3-33.1,0.4c-8.1,0.1-16.3-0.1-24.4,0.1
	c-11.4,0.2-22.6-1-33.8-2.8c-11.5-1.8-22.9-3.7-34.4-5.4c-4.5-0.7-9-1-13.5-1.4c-3.8-0.4-7.7-0.5-11.5-1.1c-7.1-1.2-14-2.9-21.1-3.9
	c-10.8-1.4-20.9-5-30.7-9.4c-3.2-1.5-3.2-1.7-6.1,0.7c-7.7,6.7-15.5,13.3-23.1,20.1c-2.6,2.3-4.8,5.1-7.5,8.1
	c3.5,1.6,6.4,3.3,9.5,4.3c11.7,4,23.5,7.9,35.6,10.7c8.4,2,16.8,3.4,25.3,4.1c6.4,0.5,13,0.4,19.4,1c18.2,1.6,36.3,3.5,54.5,5.2
	c1.2,0.1,2.5,0.2,3.7,0.2c4.7,0.2,9.4,0.1,14,0.5c8.7,0.8,17.3,2.2,26,2.9c5.5,0.5,11,0.4,16.5,0.2c11.7-0.4,23.4-1,35.1-1.6
	c6.1-0.3,12.1-0.6,18.1-1.1c8.4-0.7,16.8-1.6,25.1-2.4c12.8-1.2,25.5-2.4,38.3-3.5c9.2-0.8,18.4-1.7,27.6-2.2
	c5.6-0.3,11.3,0.3,16.9,0.3c5.4,0,10.6-1.4,16.3-3.3c-1.9-2.6-3.5-4.7-5.1-6.9c-3-3.9-6.2-7.8-9.1-11.8c-2.2-3-4.1-6.3-6.3-9.2
	C439.5,351.5,434.9,345.9,430.1,339.8z M468.5,375.9c0.4,0,0.8-0.1,1.2-0.1c0.3-1.6,0.7-3.1,0.9-4.7c0.3-3.3,0.3-6.6,0.5-9.9
	c0.1-1.9,0.3-3.8,0.6-5.8c0.5-4.1,1-8.2,1.5-12.2c0.2-2.2,0.8-4.4,0.5-6.6c-0.7-6.4-1.8-12.8-2.6-19.2c-0.6-4.8-1.4-9.6-1.2-14.4
	c0.6-10.7,1.6-21.4,1.2-32.2c-0.3-7.2-0.5-14.3-0.6-21.5c-0.1-6.5,0.1-12.9,0.1-19.4c0-0.7,0.1-1.4,0.1-2.1
	c-0.1-12.1-0.2-24.2-0.4-36.3c-0.1-8.1-0.3-16.3-0.5-24.4c-0.2-5.4-0.6-10.7-0.8-16.1c-0.2-8.3,0.1-16.5-0.4-24.8
	c-0.4-5.9-1.7-11.7-2.9-17.5c-1-4.9-2.2-9.7-3.5-14.5c-1.8-6.7-3.8-13.4-5.9-20.5c-8.2,6-15.4,12.2-21.9,19.3c1.6,2.6,3.3,5,4.5,7.6
	c5.4,11,8.8,22.6,10.1,34.8c1.3,11.9,3.3,23.8,3.5,35.8c0.2,10.5,0.8,20.9,1,31.4c0.2,7.2,0.2,14.3,0.2,21.5
	c0,13.8,0.3,27.6-0.3,41.3c-0.6,13.1-1,26.2-0.4,39.3c0.5,10.1-2.6,18.8-10.2,25.7c-1.8,1.6-3.5,3.3-5.1,4.8
	C448.2,348.7,458.4,362.3,468.5,375.9z M447.6,67.1c-1.1-0.1-1.6-0.2-2.1-0.2c-12-0.9-23.9-1.8-35.9-2.8c-4.4-0.4-8.7-1.5-13.1-1.8
	c-10.7-0.7-21.5-1.1-32.2-1.6c-11.7-0.5-23.4-1.1-35.1-1.5c-9.6-0.3-19.3-0.7-28.9-0.5c-11,0.2-22,0.1-33.1-0.4
	c-3.6-0.2-7.2-0.7-10.7-0.9c-6.5-0.4-13-0.6-19.4-1c-9.5-0.7-19-1.8-28.5-0.8c-3.7,0.4-7.4,0.7-11.1,1c-13.1,1-26.1,1.9-39.2,2.9
	c-5.9,0.5-11.8,1.1-17.7,1.5c-9.3,0.5-18.7,0.7-28,1.4c-7,0.5-14,1.4-20.9,2.3c-2.2,0.3-4.3,1.2-7.4,2.2c8.3,4.6,13.3,11,18.4,17.4
	c1.5,1.9,3.5,3.4,5.2,5c4-1.9,7.5-3.9,11.2-5.4c11.4-4.7,23.4-7.2,35.5-9.6c17.5-3.4,35-3.7,52.7-3.7c7.2,0,14.3,0.5,21.5,0.8
	c12.5,0.4,25.1,0.8,37.6,1.1c5,0.1,9.9,0.3,14.9,0.4c6.9,0.2,13.8,0.5,20.7,0.7c4.7,0.1,9.4,0.2,14.1,0.3c6.1,0.1,12.1,0.1,18.2,0.2
	c5.2,0.1,10.5,0.4,15.7,0.4c9.4,0,18.8-0.6,28.1-0.2c8.8,0.4,17.6,0.7,26.3,2.6c6,1.3,11.8,2.9,17.1,5.9c2,1.1,4,2.3,5.7,3.3
	C433.7,79.8,440.4,73.7,447.6,67.1z M78.9,74.5c-0.1,3.1-0.2,5.7-0.3,8.3c-0.3,7.6-0.8,15.2-0.9,22.7c-0.1,8.8,0.3,17.6,0.1,26.4
	c-0.3,9.2-1.1,18.4-1.6,27.6c-0.6,10.7-1.2,21.5-1.7,32.2c-0.2,4-0.5,8-0.6,12c-0.3,8.3-0.6,16.5-1,24.8c-0.3,5.7-1.3,11.3-1.2,16.9
	c0.1,7-1,14-0.5,21.1c0.5,8.2-0.2,16.5-0.1,24.8c0.1,14.9,0.4,29.7,0.5,44.6c0.1,8.6,1.3,16.9,3.4,25.5
	c10.7-9.5,21.1-18.8,31.6-28.1c-1.4-1.4-2.9-2.9-4.2-4.4c-4.9-5.4-9.7-11-12.1-18.1c-1.1-3.2-1.7-6.7-2.3-10
	c-1-5.4-2.1-10.9-2.6-16.3c-0.7-7.5-1-15.1-1.4-22.7c-0.1-1.9-0.3-3.8-0.2-5.8c0.2-7.6,0.4-15.2,0.7-22.8
	c0.6-12.9-0.7-25.9,1.2-38.8c0.4-2.5-1.2-5.6,2.2-7.3c0.2-0.1,0.2-0.5,0.2-0.8c0.3-4.3,0.8-8.5,1-12.8c0.4-9.1,0.6-18.2,0.9-27.2
	c0.1-3,0-6.1,0.3-9.1c0.8-7.6,1.5-15.2,2.7-22.7c0.7-3.9,2.3-7.6,3.8-11.3c1.2-2.8,2.9-5.3,4.4-7.8c-2.1-2.1-4.2-4.1-6.1-6.2
	c-1.9-2.1-3.7-4.4-5.6-6.7C86.5,79.3,83.1,76.7,78.9,74.5z"/>
<path d="M639.4,157.6c6.7,0.2,12.6,2,18.3,4.6c6.6,3,11.5,8.2,15.8,13.8c6.7,8.6,12.5,17.9,16.9,27.9c2.9,6.6,4.2,13.6,4.5,20.9
	c0.3,6.2-0.5,12.1-2.3,18c-1.5,5.1-4,9.7-7.8,13.5c-6.9,6.9-15,12.2-24.1,15.8c-6.6,2.7-13,6.2-20.2,7.3c-1.4,0.2-2.7,0.7-4.1,0.6
	c-9.9-0.4-19.8-0.6-29.1-5.1c-3.6-1.8-7.3-3.1-10.6-5.6c-10.5-7.8-18.2-17.7-22.4-30.1c-2.6-7.5-3.4-15.3-2.7-23.3
	c1-11.5,3.9-22.2,11.1-31.5c4.8-6.2,10-12.2,16.8-16.4c3.7-2.3,7.9-3.7,12-5.5c1-0.4,2.1-0.7,3.1-1.2c7.3-4.4,15.3-5.3,23.6-3.9
	C638.7,157.4,639.3,157.6,639.4,157.6z M640,166.6c-5.5-0.9-11.5-0.8-17.4,1.4c-4.1,1.6-8.2,3.3-12.2,5.2c-3.1,1.5-6.3,3.1-8.8,5.4
	c-4.7,4.6-9.1,9.6-13.3,14.7c-1.3,1.5-2.1,3.6-2.8,5.5c-2.6,6.9-3.7,14-3.6,21.5c0.2,10.5,2.4,20.3,8.4,29
	c5.1,7.3,11.1,13.7,19.7,17.1c7,2.7,14,5.1,21.6,4.7c4-0.2,8.2-0.1,11.8-1.5c8.6-3.2,17.3-6.6,25.2-11.5c6.2-3.9,12-8.3,14.3-15.5
	c1.6-5.1,2.6-10.5,2.8-15.8c0.3-7-0.5-14.1-3.6-20.6c-4.3-8.9-9.5-17.1-15.6-24.9C659.9,172.7,651.4,167.7,640,166.6z"/>
<path d="M560.6,81.1c1.6-15.5,7.3-25.1,15.9-33.3c8.4-7.9,18.7-12.3,29.5-15.4c6.3-1.8,12.9-2.8,19.5-3.4c3.7-0.4,7.8,0.4,11.4,1.4
	c11.2,3,20.3,9.3,28.1,17.9c7.3,8.2,12.1,17.5,14.6,28c2.9,12.2,2.8,24.6-2.1,36.2c-6.2,14.7-16.7,25.4-31.7,31.4
	c-8.7,3.5-17.6,6-27,4.6c-8.3-1.2-16.3-3.4-24.1-7c-17-7.9-27.1-21.3-31.9-39C560.6,94.5,559.9,86.1,560.6,81.1z M671.9,97.7
	c0.2-9.1,0.2-18.2-3.3-26.8c-1-2.6-2.1-5.1-3.3-7.6c-3.7-7.5-8.7-13.9-16-18c-5.2-3-10.9-5.2-16.6-7.4c-1.8-0.7-4.2-0.8-6.1-0.3
	c-8.5,2.1-17.2,4-25.5,6.9c-11.9,4.1-21.1,11.9-27.2,23c-2,3.7-3.7,7.4-3.5,11.7c0.2,3.6,0.3,7.2,0.5,10.7c0.4,8.7,3,17,7.2,24.4
	c5.1,9,12,16.4,22.2,20.2c6.9,2.5,13.6,5.6,21.1,5.7c11.9,0.1,23-3.5,32.5-10.7c5.2-4,10-8.8,13-14.9
	C669.5,109.4,671.4,103.8,671.9,97.7z"/>
<path d="M674.2,367.5c2.7,0.3,4.3,1.9,4.1,4.2c-0.2,2.2-3.5,4.4-6.3,4.1c-1.7-0.2-3.4-2.2-3.3-3.7
	C669,369.7,671.9,367.2,674.2,367.5z"/>
<path d="M650.8,372.5c0.6-0.9,1-1.6,1.5-2.2c2.3-2.9,4.2-3,6.7-0.4c1.8,1.9,1.2,4.6-1.3,5.5C654.9,376.5,653.3,375.9,650.8,372.5z"
	/>
<path d="M623.8,388.4c-2-0.3-3.6-1.9-3.3-3.5c0.3-1.8,3.4-4.3,5.1-4.1c2,0.3,4.3,2.7,4.1,4.4C629.5,387.3,626.6,388.9,623.8,388.4z"
	/>
<path d="M632.9,346.5c1.6-1.6,2.8-2.9,4.2-3.9c0.7-0.5,2.1-0.6,2.9-0.3c2.5,1,3.4,3,2.4,4.8c-1.1,1.9-4.7,3-6.6,2
	C635,348.5,634.3,347.6,632.9,346.5z"/>
<path d="M618.2,347.1c3.8-5.5,4.2-5.6,9.3-2.5c0.6,2.4-0.2,4-2.5,4.9C622.4,350.5,620.6,349.9,618.2,347.1z"/>
<path d="M644.8,383.1c-1.8,4.2-5.6,5.5-8.3,3.2c-1.2-1-1.2-2-0.5-3.2C638.4,379.1,641.3,379,644.8,383.1z"/>
<path d="M664.4,360.1c1-1.1,1.9-2.2,3-3.2c1.2-1.2,2.9-1.4,4.1-0.4c1.1,0.8,2,2.3,2.2,3.6c0.2,1.9-1.6,2.8-3.1,3.3
	C668,364,666.1,363,664.4,360.1z"/>
<path d="M626.5,394.3c0.7-1,1.2-2.1,1.9-2.8c1.9-2.1,5.2-1.7,6.8,0.6c1.2,1.7-0.4,4.8-2.9,5.4C630,398,628.4,397.2,626.5,394.3z"/>
<path d="M647.9,360.9c1.5-2,2.8-4.7,6-3.6c1.3,0.4,3.1,1.5,2.8,3.6c-0.2,1.8-2.2,3.4-4.5,3.7C650,364.8,649.4,364.3,647.9,360.9z"/>
<path d="M591.2,386.2c0.8-1.2,1.4-2.3,2.3-3.1c2.1-2.2,5.2-1.7,6.4,1c0.4,0.8,0,2.5-0.7,3.2C596.8,390,594,389.6,591.2,386.2z"/>
<path d="M634.8,402.7c0.8-1,1.6-1.9,2.4-2.8c1.3-1.5,2.7-1.7,4.4-0.6c1.3,0.9,2.6,1.7,2.1,3.6c-0.4,1.7-2,3-4,3
	C637.7,405.9,635.9,405.4,634.8,402.7z"/>
<path d="M625.9,373.5c-0.4,3.6-2,5.4-5.3,5.2c-1-0.1-2.4-0.9-2.9-1.8c-0.4-0.7,0-2.1,0.5-2.9C620.3,370.7,621.8,370.7,625.9,373.5z"
	/>
<path d="M631.4,364.9c0.7-1,1.2-1.8,1.8-2.5c2.2-2.6,5-2.5,6.7,0.4c0.4,0.7,0.3,1.9,0,2.7C638.2,369,634.5,368.9,631.4,364.9z"/>
<path d="M632.8,374.4c0.6-0.9,1.1-1.5,1.6-2.1c2.6-3.1,3.7-3.2,6.6-0.5c1.4,1.3,1.4,2.5,0.2,3.8
	C638.9,378.2,635.7,377.8,632.8,374.4z"/>
<path d="M607.2,385.9c0.1-2,2.6-4.4,4.4-4.1c2.1,0.3,3.8,2,3.7,3.7c-0.1,2.1-2.6,3.9-5.1,3.7C608.5,389.1,607.1,387.6,607.2,385.9z"
	/>
<path d="M661,395.1c-2.1-0.2-3.9-1.8-3.6-3.3c0.3-1.5,3.6-4,5-3.8c1.3,0.2,3.5,2.5,3.4,3.7C665.7,393.8,663.6,395.3,661,395.1z"/>
<path d="M657.6,353.4c3.6-5.4,5.6-5.6,9.2-0.8C664.4,357.2,661.2,357.5,657.6,353.4z"/>
<path d="M619.8,404c0.3-1.9,3-3.9,4.9-3.6c2.2,0.4,3.9,2.2,3.5,3.8c-0.4,1.9-3,3.3-5.3,3.1C621.2,407.1,619.6,405.4,619.8,404z"/>
<path d="M642.6,392.7c1.5-1.3,2.6-2.5,4-3.4c1.2-0.8,3.7,0.3,4.6,1.7c0.7,1.1,0.2,3.5-1,4c-1.6,0.7-3.4,1.5-5.1,0.2
	C644.2,394.5,643.6,393.7,642.6,392.7z"/>
<path d="M651.7,381.9c1.6-1.8,2.3-4.7,5.4-3.9c1.4,0.4,3.5,1.1,3.2,3.2c-0.2,1.7-1.3,3-3.1,3.5C654.8,385.6,654.2,385.3,651.7,381.9
	z"/>
<path d="M592,367.6c3.7-4.8,3.7-4.8,8.1-2.2c-0.1,3.1-1,4.5-3.4,5.1C594.6,371,593.6,370.4,592,367.6z"/>
<path d="M617.4,366.1c0.9-1.1,1.3-1.8,1.9-2.4c1.9-2,3.1-2,5.3-0.6c1.7,1.1,1.5,2.4,0.8,3.9c-0.8,1.5-3.9,2.4-5.5,1.5
	C619.1,368,618.4,367,617.4,366.1z"/>
<path d="M649.8,346.7c3.9-4.3,3.9-4.3,7.8-1.4c-0.3,3.6-0.8,4.4-3.2,4.7C651.9,350.4,650.9,349.7,649.8,346.7z"/>
<path d="M612,373.7c0,2.6-0.6,4.2-2.9,4.8c-2.3,0.6-4,0-5.7-2.3c1.5-1.7,3-3.3,4.6-5C609.7,372.3,610.8,373,612,373.7z"/>
<path d="M599.3,395.8c2.9-3.5,4-3.9,6.7-2.8c1.3,0.5,1.6,1.3,1.4,2.6c-0.3,2.1-1.7,3-3.6,3.3C601.6,399.2,601,398.9,599.3,395.8z"/>
<path d="M614.2,345.8c0,2.4-0.5,4.2-3.2,4.5c-2.8,0.3-3.3,0.1-5-2.9C609,343,609.2,343,614.2,345.8z"/>
<path d="M632.9,354.1c-0.3,2.6-1.4,3.8-3.8,4.2c-2.5,0.4-3.8-0.7-4.9-2.6C628,351.2,628.5,351.1,632.9,354.1z"/>
<path d="M650.4,402c0.7-0.9,1.2-1.7,1.8-2.4c2-2.4,4.8-2.2,6.2,0.6c0.3,0.7,0.1,1.9-0.3,2.6C656.5,405.3,653.3,405,650.4,402z"/>
<path d="M611.7,394.9c1.9-1.6,2.9-4.2,5.9-3.2c1.3,0.4,2.9,0.6,2.7,2.5c-0.1,1.6-1,3-2.7,3.3C615.3,397.9,613.3,397.3,611.7,394.9z"
	/>
<path d="M639,356.1c4-4,4.5-4.1,7.8-1.2c-0.1,2.1-1,3.7-3.3,4C641.5,359,639.6,358.8,639,356.1z"/>
<path d="M607.5,404.9c1-1,1.8-2,2.8-2.7c1.2-0.9,3.6-0.1,4.4,1.2c0.8,1.3,0,3.3-1.7,4C610.7,408.4,609.3,407.8,607.5,404.9z"/>
<path d="M590.7,376.6c0.8-0.8,1.6-1.7,2.4-2.6c1-1.1,2.3-1,3.3-0.3c0.7,0.5,1.6,1.6,1.5,2.1c-0.3,1.1-1,2.3-2,2.8
	C593.7,379.9,592.4,379.3,590.7,376.6z"/>
<path d="M598.6,357.4c4.5-3.6,4.5-3.6,7.8-1.6c0.3,2-0.3,3.5-2.3,4.1C602,360.6,600.3,359.8,598.6,357.4z"/>
<path d="M605.2,366.8c0-1.5,2.9-3.9,4.4-3.8c1.7,0.1,3.1,1.4,3,2.7c-0.1,1.6-2.2,3.3-4.1,3.3C606.9,369,605.5,368.6,605.2,366.8z"/>
<path d="M618.1,354.5c0.3,2.6-0.6,4.1-2.9,4.4c-2.1,0.3-3.7-0.4-4.2-2.7C614.8,352.6,614.8,351.9,618.1,354.5z"/>
<path d="M674.8,381.2c-1.8,1.6-2.9,2.7-4.3,3.9c-1.7-1.4-2.8-2.4-4.2-3.6c1.8-1.4,3.2-2.4,4.9-3.7
	C672.3,378.9,673.3,379.8,674.8,381.2z"/>
<path d="M628.5,250.8c-10.2-0.8-17.5-6.3-23.3-14.2c-2-2.7-3-5.9-3.1-9.3c-0.5-13.4,4-24.7,15-32.8c4.3-3.2,9.3-4.3,14.8-4.5
	c4.7-0.2,9,1,13.4,1.9c7.9,1.7,13.2,6.7,16.4,13.9c1.9,4.4,3,9.2,4.5,13.8c1.1,3.4-0.6,6.6-1.3,9.7c-2,8.3-7.4,14-15.1,17.6
	c-4.6,2.2-9.3,4.3-14.6,4.2C632.9,251,630.7,250.9,628.5,250.8z M612.8,220.1c0.1,0,0.2,0,0.2,0.1c-0.1,1-0.2,1.9-0.3,2.9
	c-1.1,10.8,5.9,16.7,15,18.5c7.2,1.4,13.7-1,19.8-4.6c7.6-4.4,10.3-11.2,8-19.7c-0.7-2.7-1.4-5.4-2.5-7.9
	c-2.3-5.4-5.8-9.1-12.1-10.1c-3.5-0.6-6.8-0.6-10.2,0c-7.6,1.2-12.9,5.4-15.7,12.5C613.9,214.4,613.5,217.3,612.8,220.1z"/>
<path d="M588.3,82c1.5-9,8.5-17,19.6-21.8c1.5-0.7,3.1-1.2,4.7-1.7c0.9-0.3,2.3-0.8,2.7-0.4c2.1,1.9,4.5,0.9,6.7,1.1
	c6.7,0.5,12.2,3.6,17,7.9c6.7,6.1,11.9,13.4,14.3,22.3c0.5,2,0.5,3.9,0.1,6c-1.1,6.3-3.7,12-7.7,16.7c-5.5,6.5-12.8,10.7-21.6,10.8
	c-14.7,0.1-25.4-6.8-32.8-19.4C587.9,97.6,587.1,91.5,588.3,82z M597.7,87.1c-0.4,3.2,0.5,7.6,2.3,11.9c2.6,6.3,7.7,9.9,13.4,12.9
	c5.4,2.8,10.7,2.8,16.2,0.3c7-3.3,11.5-8.9,14.3-15.9c0.6-1.5,0.6-3.6,0.2-5.2c-2.8-11.2-10.3-18.5-20.6-22.7
	c-3.9-1.6-8.7-1.9-13,0.6C604.1,72.8,598.7,77.5,597.7,87.1z"/>
<path fill="#508694" d="M612.8,220.1c0.7-2.8,1.1-5.7,2.2-8.4c2.8-7.1,8.1-11.2,15.7-12.5c3.4-0.5,6.7-0.5,10.2,0
	c6.2,1,9.8,4.8,12.1,10.1c1.1,2.5,1.7,5.2,2.5,7.9c2.4,8.5-0.3,15.3-8,19.7c-6.1,3.5-12.6,6-19.8,4.6c-9.1-1.8-16-7.7-15-18.5
	c0.1-1,0.2-1.9,0.3-2.9C613,220.1,612.9,220.1,612.8,220.1z"/>
<path fill="#508694" d="M597.7,87.1c1-9.6,6.4-14.2,12.9-18.1c4.3-2.5,9.1-2.2,13-0.6c10.2,4.2,17.8,11.5,20.6,22.7
	c0.4,1.6,0.4,3.7-0.2,5.2c-2.8,7-7.3,12.6-14.3,15.9c-5.5,2.6-10.9,2.5-16.2-0.3c-5.7-3-10.8-6.5-13.4-12.9
	C598.2,94.6,597.3,90.3,597.7,87.1z"/>
</svg>
