<?xml version="1.0" encoding="utf-8"?>
<!-- Generator: Adobe Illustrator 16.0.0, SVG Export Plug-In . SVG Version: 6.00 Build 0)  -->
<!DOCTYPE svg PUBLIC "-//W3C//DTD SVG 1.1//EN" "http://www.w3.org/Graphics/SVG/1.1/DTD/svg11.dtd">
<svg version="1.1" id="Layer_1" xmlns="http://www.w3.org/2000/svg" xmlns:xlink="http://www.w3.org/1999/xlink" x="0px" y="0px"
	 width="648.078px" height="566.896px" viewBox="0 0 648.078 566.896" enable-background="new 0 0 648.078 566.896"
	 xml:space="preserve">
<g>
	<rect x="527.83" y="153.747" width="114.204" height="407.144"/>
	<g>
		<path fill="#FFFFFF" d="M642.034,558.391c-38.068,0-76.136,0-114.204,0c0.833,0.833,1.667,1.667,2.5,2.5
			c0-34.104,0-68.209,0-102.312c0-64.234,0-128.469,0-192.702c0-37.246,0-74.492,0-111.738c0-0.13,0-0.261,0-0.391
			c-0.833,0.833-1.667,1.667-2.5,2.5c38.068,0,76.136,0,114.204,0c-0.833-0.833-1.667-1.667-2.5-2.5c0,34.104,0,68.208,0,102.313
			c0,64.234,0,128.468,0,192.702c0,37.246,0,74.492,0,111.738c0,0.13,0,0.26,0,0.391c0,3.225,5,3.225,5,0
			c0-34.104,0-68.209,0-102.312c0-64.234,0-128.469,0-192.702c0-37.246,0-74.492,0-111.738c0-0.13,0-0.261,0-0.391
			c0-1.363-1.138-2.5-2.5-2.5c-38.068,0-76.136,0-114.204,0c-1.363,0-2.5,1.137-2.5,2.5c0,34.104,0,68.208,0,102.313
			c0,64.234,0,128.468,0,192.702c0,37.246,0,74.492,0,111.738c0,0.13,0,0.26,0,0.391c0,1.363,1.137,2.5,2.5,2.5
			c38.068,0,76.136,0,114.204,0C645.259,563.391,645.259,558.391,642.034,558.391z"/>
	</g>
</g>
<g>
	<g>
		<circle cx="586.49" cy="207.125" r="41.694"/>
		<g>
			<path fill="#FFFFFF" d="M625.684,207.125c-0.357,21.633-17.562,38.836-39.194,39.194c-21.634,0.357-38.845-18.1-39.193-39.194
				c-0.357-21.634,18.1-38.845,39.193-39.194C608.124,167.573,625.335,186.03,625.684,207.125c0.053,3.221,5.054,3.226,5,0
				c-0.361-21.893-16.219-40.482-37.985-43.739c-21.551-3.224-41.937,10.504-48.513,30.917c-6.738,20.918,4.415,43.825,23.902,53
				c19.812,9.329,43.326,1.718,55.406-16.014c4.822-7.077,7.049-15.678,7.189-24.164
				C630.737,203.898,625.736,203.904,625.684,207.125z"/>
		</g>
	</g>
	<g>
		<circle cx="586.489" cy="207.125" r="15.68"/>
		<g>
			<path fill="#FFFFFF" d="M599.669,207.125c-0.724,17.002-25.636,17.002-26.359,0c-0.315-7.409,6.238-12.884,13.18-13.18
				C593.898,193.63,599.374,200.183,599.669,207.125c0.137,3.212,5.137,3.225,5,0c-0.435-10.205-7.975-17.746-18.18-18.18
				c-10.193-0.434-17.773,8.627-18.18,18.18c-0.434,10.193,8.627,17.773,18.18,18.18c10.193,0.434,17.773-8.627,18.18-18.18
				C604.806,203.899,599.806,203.913,599.669,207.125z"/>
		</g>
	</g>
</g>
<g>
	<g>
		<circle cx="586.49" cy="299.777" r="41.694"/>
		<g>
			<path fill="#FFFFFF" d="M625.684,299.777c-0.357,21.633-17.562,38.838-39.194,39.195c-21.635,0.357-38.845-18.102-39.193-39.195
				c-0.357-21.634,18.1-38.845,39.193-39.193C608.123,260.227,625.335,278.684,625.684,299.777c0.053,3.221,5.054,3.226,5,0
				c-0.361-21.893-16.219-40.482-37.985-43.739c-21.55-3.224-41.937,10.503-48.513,30.917c-6.738,20.918,4.415,43.825,23.902,53.002
				c19.812,9.329,43.326,1.717,55.406-16.015c4.822-7.077,7.049-15.679,7.189-24.165
				C630.737,296.552,625.736,296.557,625.684,299.777z"/>
		</g>
	</g>
	<g>
		<circle cx="586.489" cy="299.777" r="15.68"/>
		<g>
			<path fill="#FFFFFF" d="M599.669,299.777c-0.724,17.002-25.636,17.002-26.359,0c-0.315-7.409,6.238-12.885,13.18-13.18
				C593.898,286.282,599.374,292.836,599.669,299.777c0.137,3.212,5.138,3.226,5,0c-0.435-10.204-7.976-17.745-18.18-18.18
				c-10.193-0.434-17.773,8.627-18.18,18.18c-0.434,10.193,8.627,17.773,18.18,18.18c10.193,0.434,17.773-8.627,18.18-18.18
				C604.806,296.552,599.806,296.565,599.669,299.777z"/>
		</g>
	</g>
</g>
<g>
	<circle cx="609.757" cy="378.51" r="17.426"/>
	<g>
		<path fill="#FFFFFF" d="M625.934,378.51c-0.35,9.075-7.102,15.826-16.177,16.176c-9.067,0.349-15.847-7.63-16.176-16.176
			c-0.35-9.067,7.63-15.847,16.176-16.176C618.825,361.984,625.604,369.963,625.934,378.51c0.062,1.606,2.562,1.613,2.5,0
			c-0.402-10.459-8.218-18.273-18.677-18.676c-10.45-0.402-18.296,8.821-18.676,18.676c-0.402,10.45,8.821,18.296,18.676,18.676
			c10.45,0.402,18.297-8.82,18.677-18.676C628.496,376.896,625.995,376.903,625.934,378.51z"/>
	</g>
</g>
<g>
	<circle cx="568.292" cy="380.045" r="17.426"/>
	<g>
		<path fill="#FFFFFF" d="M584.469,380.045c-0.35,9.076-7.101,15.828-16.177,16.178c-9.068,0.35-15.847-7.631-16.176-16.178
			c-0.349-9.067,7.629-15.847,16.176-16.176C577.36,363.52,584.14,371.498,584.469,380.045c0.062,1.606,2.562,1.613,2.5,0
			c-0.402-10.459-8.218-18.273-18.677-18.676c-10.45-0.402-18.296,8.82-18.676,18.676c-0.402,10.451,8.819,18.298,18.676,18.678
			c10.452,0.402,18.298-8.821,18.677-18.678C587.031,378.432,584.53,378.438,584.469,380.045z"/>
	</g>
</g>
<g>
	<circle cx="568.292" cy="380.045" r="6.553"/>
	<g>
		<path fill="#FFFFFF" d="M573.596,380.045c-0.368,6.837-10.238,6.838-10.606,0C562.621,373.206,573.229,373.242,573.596,380.045
			c0.086,1.604,2.587,1.611,2.5,0c-0.238-4.415-3.389-7.565-7.804-7.803c-4.406-0.237-7.584,3.745-7.803,7.803
			c-0.237,4.406,3.744,7.586,7.803,7.805c4.406,0.237,7.585-3.747,7.804-7.805C576.183,378.434,573.682,378.441,573.596,380.045z"/>
	</g>
</g>
<g>
	<rect x="527.83" y="438.441" width="114.204" height="122.449"/>
	<g>
		<path fill="#FFFFFF" d="M642.034,558.391c-38.068,0-76.136,0-114.204,0c0.833,0.833,1.667,1.667,2.5,2.5
			c0-40.816,0-81.633,0-122.449c-0.833,0.833-1.667,1.667-2.5,2.5c38.068,0,76.136,0,114.204,0c-0.833-0.833-1.667-1.667-2.5-2.5
			c0,40.816,0,81.633,0,122.449c0,3.225,5,3.225,5,0c0-40.816,0-81.633,0-122.449c0-1.363-1.138-2.5-2.5-2.5
			c-38.068,0-76.136,0-114.204,0c-1.363,0-2.5,1.137-2.5,2.5c0,40.816,0,81.633,0,122.449c0,1.363,1.137,2.5,2.5,2.5
			c38.068,0,76.136,0,114.204,0C645.259,563.391,645.259,558.391,642.034,558.391z"/>
	</g>
</g>
<g>
	<g>
		<path d="M5.359,153.746v407.143h523.47V153.746H5.359z M487.104,519.195c0,5.457-4.307,9.879-9.616,9.879H66.118
			c-5.311,0-9.615-4.422-9.615-9.879V202.953c0-5.456,4.305-9.879,9.615-9.879h411.369c5.31,0,9.616,4.423,9.616,9.879V519.195z"/>
		<g>
			<path fill="#FFFFFF" d="M2.859,153.746c0,34.104,0,68.208,0,102.312c0,64.234,0,128.468,0,192.702c0,37.245,0,74.491,0,111.737
				c0,0.13,0,0.26,0,0.391c0,1.363,1.137,2.5,2.5,2.5c28.144,0,56.287,0,84.43,0c61.432,0,122.865,0,184.297,0
				c60.225,0,120.45,0,180.675,0c24.688,0,49.378,0,74.067,0c1.362,0,2.5-1.137,2.5-2.5c0-34.104,0-68.208,0-102.312
				c0-64.234,0-128.468,0-192.702c0-37.246,0-74.491,0-111.737c0-0.13,0-0.261,0-0.391c0-1.363-1.138-2.5-2.5-2.5
				c-28.144,0-56.287,0-84.43,0c-61.433,0-122.865,0-184.297,0c-60.225,0-120.45,0-180.675,0c-24.689,0-49.378,0-74.068,0
				c-3.224,0-3.224,5,0,5c28.144,0,56.287,0,84.43,0c61.432,0,122.865,0,184.297,0c60.225,0,120.45,0,180.675,0
				c24.688,0,49.378,0,74.067,0c-0.833-0.833-1.667-1.667-2.5-2.5c0,34.104,0,68.208,0,102.312c0,64.234,0,128.468,0,192.702
				c0,37.245,0,74.491,0,111.737c0,0.13,0,0.26,0,0.391c0.833-0.833,1.667-1.667,2.5-2.5c-28.144,0-56.287,0-84.43,0
				c-61.433,0-122.865,0-184.297,0c-60.225,0-120.45,0-180.675,0c-24.689,0-49.378,0-74.068,0c0.833,0.833,1.667,1.667,2.5,2.5
				c0-34.104,0-68.208,0-102.312c0-64.234,0-128.468,0-192.702c0-37.246,0-74.491,0-111.737c0-0.13,0-0.261,0-0.391
				C7.859,150.522,2.859,150.522,2.859,153.746z"/>
			<path fill="#FFFFFF" d="M484.604,519.195c-0.531,8.105-7.428,7.379-13.075,7.379c-6.565,0-13.132,0-19.697,0
				c-23.502,0-47.004,0-70.506,0c-64.084,0-128.168,0-192.251,0c-40.381,0-80.762,0-121.143,0c-1.291,0-2.404,0.01-3.705-0.264
				c-4.207-0.883-5.224-5.127-5.224-8.75c0-5.648,0-11.297,0-16.945c0-24.648,0-49.298,0-73.946c0-61.396,0-122.793,0-184.189
				c0-13.141,0-26.282,0-39.422c0-7.627,6.589-7.483,11.823-7.483c6.143,0,12.287,0,18.43,0c54.202,0,108.404,0,162.605,0
				c59.779,0,119.558,0,179.337,0c14.552,0,29.104,0,43.656,0c5.192,0,9.749,2.128,9.749,8.305c0,5.073,0,10.146,0,15.219
				c0,56.438,0,112.878,0,169.316c0,43.456,0,86.911,0,130.366C484.604,518.919,484.604,519.057,484.604,519.195
				c0,3.225,5,3.225,5,0c0-40.327,0-80.655,0-120.982c0-58.033,0-116.065,0-174.098c0-10.369,3.875-33.542-12.273-33.542
				c-10.855,0-21.712,0-32.567,0c-56.988,0-113.976,0-170.963,0c-57.545,0-115.091,0-172.636,0c-11.553,0-23.106,0-34.659,0
				c-15.99,0-12.501,21.019-12.501,31.463c0,57.424,0,114.847,0,172.271c0,41.606,0,83.214,0,124.821
				c0,15.711,19.866,12.445,30.12,12.445c21.572,0,43.145,0,64.717,0c63.57,0,127.141,0,190.712,0c44.33,0,88.659,0,132.988,0
				c1.521,0,3.041,0,4.561,0c7.174,0,12.051-5.474,12.503-12.379C489.814,515.975,484.813,515.995,484.604,519.195z"/>
		</g>
	</g>
	<g>
		<path d="M477.487,193.074H66.118c-5.311,0-9.615,4.423-9.615,9.879v316.243c0,5.457,4.305,9.879,9.615,9.879h411.369
			c5.31,0,9.616-4.422,9.616-9.879V202.953C487.104,197.497,482.797,193.074,477.487,193.074z M475.713,412.947
			c0,47.809-40.612,86.566-90.708,86.566H160.197c-50.095,0-90.707-38.758-90.707-86.566V291.633
			c0-47.811,40.612-86.568,90.707-86.568h224.808c50.096,0,90.708,38.757,90.708,86.568V412.947z"/>
		<g>
			<path fill="#FFFFFF" d="M477.487,190.574c-33.788,0-67.577,0-101.366,0c-64.184,0-128.369,0-192.553,0
				c-38.808,0-77.616,0-116.424,0c-15.797,0-13.142,17.381-13.142,28.055c0,23.795,0,47.591,0,71.387c0,61.814,0,123.628,0,185.442
				c0,14.412,0,28.824,0,43.236c0,15.426,16.843,12.88,27.157,12.88c50.964,0,101.928,0,152.893,0c61.561,0,123.122,0,184.683,0
				c17.325,0,34.65,0,51.976,0c3.323,0,6.729,0.244,9.997-0.442c8.283-1.738,8.896-10.111,8.896-16.835
				c0-50.242,0-100.484,0-150.727c0-51.422,0-102.845,0-154.268c0-1.95,0-3.899,0-5.849
				C489.604,196.302,484.548,191.062,477.487,190.574c-3.22-0.223-3.198,4.779,0,5c8.365,0.578,7.116,9.181,7.116,15.017
				c0,8.205,0,16.41,0,24.614c0,27.638,0,55.275,0,82.913c0,58.875,0,117.75,0,176.625c0,6.862,0,13.725,0,20.587
				c0,5.213-0.562,11.244-7.654,11.244c-11.897,0-23.795,0-35.692,0c-57.816,0-115.632,0-173.448,0c-56.7,0-113.401,0-170.101,0
				c-10.503,0-21.006,0-31.509,0c-7.969,0-7.196-8.063-7.196-13.425c0-7.7,0-15.4,0-23.101c0-59.866,0-119.733,0-179.6
				c0-26.717,0-53.434,0-80.151c0-7.391,0-14.781,0-22.171c0-5.287-0.393-12.553,7.32-12.553c36.075,0,72.15,0,108.226,0
				c64.24,0,128.48,0,192.72,0c36.632,0,73.266,0,109.899,0c0.106,0,0.213,0,0.319,0
				C480.712,195.574,480.712,190.574,477.487,190.574z"/>
			<path fill="#FFFFFF" d="M473.213,412.947c-0.388,47.548-41.634,84.066-88.231,84.066c-16.346,0-32.692,0-49.039,0
				c-56.213,0-112.425,0-168.638,0c-9.246,0-18.318-0.25-27.434-2.24c-22.421-4.896-42.389-18.737-54.915-37.926
				c-9.125-13.98-12.966-30.006-12.966-46.548c0-11.215,0-22.429,0-33.643c0-27.459,0-54.918,0-82.377
				c0-16.698,4.003-32.353,12.966-46.549c12.292-19.469,32.692-32.729,54.915-37.926c17.943-4.196,38.298-2.24,56.582-2.24
				c31.017,0,62.034,0,93.052,0c27.058,0,54.117,0,81.175,0c4.768,0,9.535,0,14.302,0c22.688,0,44.686,8.424,61.441,23.726
				c16.929,15.46,26.604,37.471,26.79,60.342c0.061,7.479,0,14.959,0,22.438c0,29.648,0,59.297,0,88.944
				C473.213,406.326,473.213,409.637,473.213,412.947c0,3.225,5,3.225,5,0c0-23.209,0-46.418,0-69.627c0-13.918,0-27.837,0-41.755
				c0-11.249-0.199-22.198-3.209-33.188c-10.899-39.796-50.01-65.813-90.371-65.813c-17.939,0-35.878,0-53.817,0
				c-55.207,0-110.414,0-165.62,0c-10.838,0-21.474,0.837-31.98,3.789c-20.723,5.822-38.872,19.08-51.137,36.684
				c-10.118,14.523-15.088,32.04-15.088,49.653c0,9.934,0,19.868,0,29.803c0,28.521,0,57.042,0,85.563
				c0,13.854,1.903,27.018,7.47,39.847c8.565,19.74,25,35.531,44.238,44.806c20.875,10.063,42.755,9.304,65.135,9.304
				c29.257,0,58.514,0,87.771,0c29.489,0,58.979,0,88.469,0c7.555,0,15.109,0,22.665,0c14.334,0,28.113-2.519,41.322-8.189
				c32.138-13.798,53.869-45.905,54.154-80.877C478.239,409.722,473.239,409.725,473.213,412.947z"/>
		</g>
	</g>
	<g>
		<g>
			<path fill="#FFFFFF" d="M385.005,202.565c-47.662,0-95.323,0-142.984,0c-24.646,0-49.292,0-73.938,0
				c-8.09,0-16.049,0.091-24.091,1.355c-21.62,3.398-41.708,14.869-55.981,31.375c-13.448,15.551-21.021,35.828-21.021,56.382
				c0,8.002,0,16.005,0,24.007c0,29.487,0,58.975,0,88.462c0,11.765,0.451,23.187,3.966,34.582
				c6.283,20.37,20.518,37.534,38.384,48.871c15.274,9.691,33.423,14.415,51.436,14.415c6.053,0,12.105,0,18.158,0
				c58.56,0,117.12,0,175.68,0c20.024,0,40.629,1.471,59.985-4.586c37.578-11.756,63.613-46.67,63.613-85.993
				c0-26.59,0-53.179,0-79.769c0-25.948,2.812-53.226-8.565-77.363C454.454,222.071,420.011,202.825,385.005,202.565
				c-3.225-0.024-3.223,4.976,0,5c46.325,0.344,88.208,36.301,88.208,84.112c0,23.853,0,47.705,0,71.558c0,13.638,0,27.274,0,40.911
				c0,12.226-0.585,23.993-4.622,35.746c-12.537,36.497-49.087,57.122-86.319,57.122c-53.604,0-107.209,0-160.813,0
				c-19.932,0-39.865,0-59.797,0c-40.04,0-77.147-25.088-87.319-64.698c-2.681-10.442-2.352-21.068-2.352-31.729
				c0-14.435,0-28.868,0-43.302c0-15.439,0-30.88,0-46.319c0-8.248-0.293-16.567,0.178-24.807
				c2.597-45.396,44.269-78.593,88.239-78.593c17.417,0,34.835,0,52.252,0c55.561,0,111.121,0,166.682,0c1.888,0,3.776,0,5.664,0
				C388.229,207.565,388.229,202.565,385.005,202.565z"/>
		</g>
	</g>
</g>
<g>
	<g>
		<g>
			<path fill="#FFFFFF" d="M527.503,461.127c38,0,76,0,114,0c1.612,0,1.612-2.5,0-2.5c-38,0-76,0-114,0
				C525.891,458.627,525.891,461.127,527.503,461.127L527.503,461.127z"/>
		</g>
	</g>
	<g>
		<g>
			<path fill="#FFFFFF" d="M528.17,451.328c38,0,76,0,114,0c1.612,0,1.612-2.5,0-2.5c-38,0-76,0-114,0
				C526.558,448.828,526.558,451.328,528.17,451.328L528.17,451.328z"/>
		</g>
	</g>
	<g>
		<g>
			<path fill="#FFFFFF" d="M527.17,480.727c38,0,76,0,114,0c1.612,0,1.612-2.5,0-2.5c-38,0-76,0-114,0
				C525.558,478.227,525.558,480.727,527.17,480.727L527.17,480.727z"/>
		</g>
	</g>
	<g>
		<g>
			<path fill="#FFFFFF" d="M527.837,470.928c38,0,76,0,114,0c1.612,0,1.612-2.5,0-2.5c-38,0-76,0-114,0
				C526.225,468.428,526.225,470.928,527.837,470.928L527.837,470.928z"/>
		</g>
	</g>
	<g>
		<g>
			<path fill="#FFFFFF" d="M527.837,500.326c38,0,76,0,114,0c1.612,0,1.612-2.5,0-2.5c-38,0-76,0-114,0
				C526.225,497.826,526.225,500.326,527.837,500.326L527.837,500.326z"/>
		</g>
	</g>
	<g>
		<g>
			<path fill="#FFFFFF" d="M528.504,490.527c38,0,76,0,114,0c1.612,0,1.612-2.5,0-2.5c-38,0-76,0-114,0
				C526.892,488.027,526.892,490.527,528.504,490.527L528.504,490.527z"/>
		</g>
	</g>
	<g>
		<g>
			<path fill="#FFFFFF" d="M527.504,519.928c38,0,76,0,114,0c1.612,0,1.612-2.5,0-2.5c-38,0-76,0-114,0
				C525.892,517.428,525.892,519.928,527.504,519.928L527.504,519.928z"/>
		</g>
	</g>
	<g>
		<g>
			<path fill="#FFFFFF" d="M528.171,510.127c38,0,76,0,114,0c1.612,0,1.612-2.5,0-2.5c-38,0-76,0-114,0
				C526.559,507.627,526.559,510.127,528.171,510.127L528.171,510.127z"/>
		</g>
	</g>
	<g>
		<g>
			<path fill="#FFFFFF" d="M527.504,529.727c38,0,76,0,114,0c1.612,0,1.612-2.5,0-2.5c-38,0-76,0-114,0
				C525.892,527.227,525.892,529.727,527.504,529.727L527.504,529.727z"/>
		</g>
	</g>
	<g>
		<g>
			<path fill="#FFFFFF" d="M527.171,549.328c38,0,76,0,114,0c1.612,0,1.612-2.5,0-2.5c-38,0-76,0-114,0
				C525.559,546.828,525.559,549.328,527.171,549.328L527.171,549.328z"/>
		</g>
	</g>
	<g>
		<g>
			<path fill="#FFFFFF" d="M527.838,539.527c38,0,76,0,114,0c1.612,0,1.612-2.5,0-2.5c-38,0-76,0-114,0
				C526.226,537.027,526.226,539.527,527.838,539.527L527.838,539.527z"/>
		</g>
	</g>
</g>
<g>
	<g>
		<g>
			<path fill="#FFFFFF" d="M561.838,461.906c15.556,0,31.111,0,46.667,0c3.225,0,3.225-5,0-5c-15.556,0-31.111,0-46.667,0
				C558.613,456.906,558.613,461.906,561.838,461.906L561.838,461.906z"/>
		</g>
	</g>
	<g>
		<g>
			<path fill="#FFFFFF" d="M549.505,471.824c23.444,0,46.889,0,70.333,0c3.225,0,3.225-5,0-5c-23.444,0-46.889,0-70.333,0
				C546.28,466.824,546.28,471.824,549.505,471.824L549.505,471.824z"/>
		</g>
	</g>
	<g>
		<g>
			<path fill="#FFFFFF" d="M543.171,481.74c28,0,56,0,84,0c3.225,0,3.225-5,0-5c-28,0-56,0-84,0
				C539.946,476.74,539.946,481.74,543.171,481.74L543.171,481.74z"/>
		</g>
	</g>
	<g>
		<g>
			<path fill="#FFFFFF" d="M539.505,491.656c30.111,0,60.222,0,90.333,0c3.225,0,3.225-5,0-5c-30.111,0-60.222,0-90.333,0
				C536.28,486.656,536.28,491.656,539.505,491.656L539.505,491.656z"/>
		</g>
	</g>
	<g>
		<g>
			<path fill="#FFFFFF" d="M539.505,501.574c30.444,0,60.889,0,91.333,0c3.225,0,3.225-5,0-5c-30.444,0-60.889,0-91.333,0
				C536.28,496.574,536.28,501.574,539.505,501.574L539.505,501.574z"/>
		</g>
	</g>
	<g>
		<g>
			<path fill="#FFFFFF" d="M539.505,511.49c30.111,0,60.222,0,90.333,0c3.225,0,3.225-5,0-5c-30.111,0-60.222,0-90.333,0
				C536.28,506.49,536.28,511.49,539.505,511.49L539.505,511.49z"/>
		</g>
	</g>
	<g>
		<g>
			<path fill="#FFFFFF" d="M542.838,521.406c27.889,0,55.778,0,83.667,0c3.225,0,3.225-5,0-5c-27.889,0-55.778,0-83.667,0
				C539.613,516.406,539.613,521.406,542.838,521.406L542.838,521.406z"/>
		</g>
	</g>
	<g>
		<g>
			<path fill="#FFFFFF" d="M549.171,531.322c23.556,0,47.111,0,70.667,0c3.225,0,3.225-5,0-5c-23.556,0-47.111,0-70.667,0
				C545.946,526.322,545.946,531.322,549.171,531.322L549.171,531.322z"/>
		</g>
	</g>
	<g>
		<g>
			<path fill="#FFFFFF" d="M561.505,541.24c16.222,0,32.444,0,48.666,0c3.225,0,3.225-5,0-5c-16.222,0-32.444,0-48.666,0
				C558.28,536.24,558.28,541.24,561.505,541.24L561.505,541.24z"/>
		</g>
	</g>
</g>
<g>
	<g>
		<path fill="#FFFFFF" d="M396.271,154.838c32.872-37.415,65.743-74.83,98.615-112.245c8.128-9.252,16.257-18.503,24.385-27.755
			c2.119-2.412-1.403-5.962-3.535-3.535c-32.872,37.415-65.743,74.83-98.615,112.245c-8.128,9.252-16.257,18.503-24.385,27.755
			C390.616,153.715,394.139,157.265,396.271,154.838L396.271,154.838z"/>
	</g>
</g>
<g>
	<g>
		<path fill="#FFFFFF" d="M253.003,153.071c-4.548-47.432-9.097-94.864-13.645-142.296c-0.118-1.234-0.237-2.469-0.355-3.704
			c-0.305-3.18-5.308-3.21-5,0c4.548,47.432,9.097,94.864,13.645,142.296c0.118,1.234,0.237,2.469,0.355,3.704
			C248.308,156.251,253.311,156.281,253.003,153.071L253.003,153.071z"/>
	</g>
</g>
</svg>
