<?xml version="1.0" encoding="utf-8"?>
<!-- Generator: Adobe Illustrator 16.0.0, SVG Export Plug-In . SVG Version: 6.00 Build 0)  -->
<!DOCTYPE svg PUBLIC "-//W3C//DTD SVG 1.1//EN" "http://www.w3.org/Graphics/SVG/1.1/DTD/svg11.dtd">
<svg version="1.1" id="Layer_1" xmlns="http://www.w3.org/2000/svg" xmlns:xlink="http://www.w3.org/1999/xlink" x="0px" y="0px"
	 width="576px" height="579px" viewBox="0 0 576 579" enable-background="new 0 0 576 579" xml:space="preserve">
<path stroke="#FFFFFF" stroke-miterlimit="10" d="M550.646,181.159h-91.648c-0.015,130.175-0.955,260.351-0.027,390.527h91.676
	c11.239,0,20.354-6.293,20.354-14.059V195.218C570.999,187.454,561.885,181.159,550.646,181.159z"/>
<line fill="none" stroke="#FFFFFF" stroke-miterlimit="10" x1="459.158" y1="181.684" x2="459.158" y2="572.211"/>
<g>
	<line fill="none" stroke="#FFFFFF" stroke-miterlimit="10" x1="459.158" y1="459.579" x2="569.685" y2="459.579"/>
	<line fill="none" stroke="#FFFFFF" stroke-miterlimit="10" x1="458.105" y1="471.947" x2="569.685" y2="471.947"/>
	<line fill="none" stroke="#FFFFFF" stroke-miterlimit="10" x1="459.158" y1="484.316" x2="569.685" y2="484.316"/>
	<line fill="none" stroke="#FFFFFF" stroke-miterlimit="10" x1="459.158" y1="509.053" x2="569.685" y2="509.053"/>
	<line fill="none" stroke="#FFFFFF" stroke-miterlimit="10" x1="458.105" y1="521.421" x2="569.685" y2="521.421"/>
	<line fill="none" stroke="#FFFFFF" stroke-miterlimit="10" x1="459.158" y1="496.685" x2="569.685" y2="496.685"/>
	<line fill="none" stroke="#FFFFFF" stroke-miterlimit="10" x1="459.158" y1="546.158" x2="569.685" y2="546.158"/>
	<line fill="none" stroke="#FFFFFF" stroke-miterlimit="10" x1="458.105" y1="558.526" x2="569.685" y2="558.526"/>
	<line fill="none" stroke="#FFFFFF" stroke-miterlimit="10" x1="459.158" y1="533.789" x2="569.685" y2="533.789"/>
</g>
<g>
	<line fill="none" stroke="#FFFFFF" stroke-width="3" stroke-miterlimit="10" x1="484" y1="471.5" x2="543.5" y2="471.5"/>
	<line fill="none" stroke="#FFFFFF" stroke-width="3" stroke-miterlimit="10" x1="472.5" y1="483.917" x2="553.5" y2="483.917"/>
	<line fill="none" stroke="#FFFFFF" stroke-width="3" stroke-miterlimit="10" x1="469" y1="496.333" x2="560.5" y2="496.333"/>
	<line fill="none" stroke="#FFFFFF" stroke-width="3" stroke-miterlimit="10" x1="467" y1="508.75" x2="561" y2="508.75"/>
	<line fill="none" stroke="#FFFFFF" stroke-width="3" stroke-miterlimit="10" x1="467.5" y1="521.167" x2="559" y2="521.167"/>
	<line fill="none" stroke="#FFFFFF" stroke-width="3" stroke-miterlimit="10" x1="474.5" y1="533.583" x2="554.5" y2="533.583"/>
	<line fill="none" stroke="#FFFFFF" stroke-width="3" stroke-miterlimit="10" x1="483.5" y1="546" x2="543" y2="546"/>
</g>
<g>
	<circle stroke="#FFFFFF" stroke-miterlimit="10" cx="514.746" cy="233.74" r="45.5"/>
	<circle stroke="#FFFFFF" stroke-miterlimit="10" cx="514.746" cy="233.74" r="20"/>
</g>
<g>
	<circle stroke="#FFFFFF" stroke-miterlimit="10" cx="514.746" cy="335.743" r="45.5"/>
	<circle stroke="#FFFFFF" stroke-miterlimit="10" cx="514.746" cy="335.743" r="20"/>
</g>
<g>
	<circle stroke="#FFFFFF" stroke-miterlimit="10" cx="492.246" cy="419.493" r="20"/>
	<circle stroke="#FFFFFF" stroke-miterlimit="10" cx="492.246" cy="419.493" r="11"/>
</g>
<circle stroke="#FFFFFF" stroke-miterlimit="10" cx="540.746" cy="419.493" r="20"/>
<g>
	<path stroke="#FFFFFF" stroke-miterlimit="10" d="M458.997,181.159H26.083c-11.239,0-20.347,6.295-20.347,14.06v362.409
		c0,7.766,9.108,14.059,20.347,14.059H458.97C458.042,441.51,458.982,311.334,458.997,181.159z M432.002,519.075
		c0,6.415-6.292,11.611-14.053,11.611H55.786c-7.76,0-14.048-5.196-14.048-11.611V219.771c0-6.413,6.288-11.611,14.048-11.611
		h362.163c7.761,0,14.053,5.198,14.053,11.611V519.075z"/>
	<path stroke="#FFFFFF" stroke-miterlimit="10" d="M417.949,208.16H55.786c-7.76,0-14.048,5.198-14.048,11.611v299.305
		c0,6.415,6.288,11.611,14.048,11.611h362.163c7.761,0,14.053-5.196,14.053-11.611V219.771
		C432.002,213.358,425.71,208.16,417.949,208.16z M415.186,469.84c0,16.105-17.126,29.159-38.253,29.159H99.252
		c-21.125,0-38.251-13.054-38.251-29.159V258.158c0-16.104,17.126-29.159,38.251-29.159h277.681
		c21.127,0,38.253,13.056,38.253,29.159V469.84z"/>
	<path fill="none" stroke="#FFFFFF" stroke-miterlimit="10" d="M376.933,228.999H99.252c-21.125,0-38.251,13.056-38.251,29.159
		V469.84c0,16.105,17.126,29.159,38.251,29.159h277.681c21.127,0,38.253-13.054,38.253-29.159V258.158
		C415.186,242.055,398.06,228.999,376.933,228.999z"/>
</g>
<line stroke="#FFFFFF" stroke-miterlimit="10" x1="46" y1="211" x2="71" y2="238.5"/>
<line stroke="#FFFFFF" stroke-miterlimit="10" x1="427" y1="210.5" x2="405.5" y2="239"/>
<line stroke="#FFFFFF" stroke-miterlimit="10" x1="428.5" y1="527" x2="404" y2="490.5"/>
<line stroke="#FFFFFF" stroke-miterlimit="10" x1="45.5" y1="527" x2="71.5" y2="489.5"/>
<line fill="none" stroke="#FFFFFF" stroke-miterlimit="10" x1="312" y1="180" x2="464.5" y2="27.5"/>
<line fill="none" stroke="#FFFFFF" stroke-miterlimit="10" x1="217" y1="181" x2="217" y2="7"/>
<path fill="none" stroke="#FFFFFF" stroke-miterlimit="10" d="M486.08,631.57c0-2.485-2.015-4.5-4.5-4.5l0,0
	c-2.484,0-4.499,2.015-4.499,4.5v6c0,2.484,2.015,4.499,4.499,4.499l0,0c2.485,0,4.5-2.015,4.5-4.499V631.57z"/>
</svg>
